#N canvas 367 147 910 493 10;
#X obj 30 68 c_taptap;
#X obj 30 7 r \$1;
#X obj 75 40 inlet;
#X obj 30 120 f \$2;
#X obj 30 92 b;
#X obj 30 205 outlet;
#X obj 118 93 inlet;
#X text 69 6 on reçoit le premier argument;
#X text 77 118 on utilise le second;
#X text 90 68 -> click droit -> help pour plus d'info;
#X obj 223 141 inlet;
#X obj 30 163 spigot;
#X msg 324 30 dump;
#X obj 339 230 outlet;
#X obj 324 -6 r save_everything;
#X connect 0 0 4 0;
#X connect 0 1 13 0;
#X connect 1 0 0 0;
#X connect 2 0 0 1;
#X connect 3 0 11 0;
#X connect 4 0 3 0;
#X connect 6 0 3 1;
#X connect 10 0 11 1;
#X connect 11 0 5 0;
#X connect 12 0 0 1;
#X connect 14 0 12 0;
