#N canvas 207 60 499 332 10;
#X declare -path rj;
#X obj 2 35 cnv 15 315 290 empty empty empty 20 12 0 14 -191407 -66577
0;
#X obj 13 50 tgl 70 0 hihat hihat.r empty 17 7 0 10 -262144 -1 -1 0
1;
#X obj 86 50 tgl 70 0 snare snare.r empty 17 7 0 10 -262144 -1 -1 0
1;
#X obj 160 50 tgl 70 0 kick kick.r empty 17 7 0 10 -262144 -1 -1 0
1;
#X obj 234 50 tgl 70 0 cymbal cymbal.r empty 17 7 0 10 -262144 -1 -1
0 1;
#X obj 13 124 tgl 45 0 c c.r empty 17 7 0 10 -262144 -1 -1 0 1;
#X obj 62 124 tgl 45 0 csharp csharp.r empty 17 7 0 10 -262144 -1 -1
0 1;
#X obj 111 124 tgl 45 0 d d.r empty 17 7 0 10 -262144 -1 -1 0 1;
#X obj 160 124 tgl 45 0 dsharp dsharp.r empty 17 7 0 10 -262144 -1
-1 0 1;
#X obj 209 124 tgl 45 0 e e.r empty 17 7 0 10 -262144 -1 -1 0 1;
#X obj 258 124 tgl 45 0 f f.r empty 17 7 0 10 -262144 -1 -1 0 1;
#X obj 13 171 tgl 45 0 fsharp fsharp.r empty 17 7 0 10 -262144 -1 -1
0 1;
#X obj 62 171 tgl 45 0 g g.r empty 17 7 0 10 -262144 -1 -1 0 1;
#X obj 111 171 tgl 45 0 gsharp gsharp.r empty 17 7 0 10 -262144 -1
-1 0 1;
#X obj 160 171 tgl 45 0 a a.r empty 17 7 0 10 -262144 -1 -1 0 1;
#X obj 258 171 tgl 45 0 b b.r empty 17 7 0 10 -262144 -1 -1 0 1;
#X obj 209 171 tgl 45 0 asharp asharp.r empty 17 7 0 10 -262144 -1
-1 0 1;
#X obj 13 221 tgl 45 0 c-1 c-1.r empty 17 7 0 10 -262144 -1 -1 0 1
;
#X obj 62 221 tgl 45 0 csharp-1 csharp-1.r empty 17 7 0 10 -262144
-1 -1 0 1;
#X obj 111 221 tgl 45 0 d-1 d-1.r empty 17 7 0 10 -262144 -1 -1 0 1
;
#X obj 160 221 tgl 45 0 dsharp-1 dsharp-1.r empty 17 7 0 10 -262144
-1 -1 0 1;
#X obj 209 221 tgl 45 0 e-1 e-1.r empty 17 7 0 10 -262144 -1 -1 0 1
;
#X obj 258 221 tgl 45 0 f-1 f-1.r empty 17 7 0 10 -262144 -1 -1 0 1
;
#X obj 13 268 tgl 45 0 fsharp-1 fsharp-1.r empty 17 7 0 10 -262144
-1 -1 0 1;
#X obj 62 268 tgl 45 0 g-1 g-1.r empty 17 7 0 10 -262144 -1 -1 0 1
;
#X obj 111 268 tgl 45 0 gsharp-1 gsharp-1.r empty 17 7 0 10 -262144
-1 -1 0 1;
#X obj 160 268 tgl 45 0 a-1 a-1.r empty 17 7 0 10 -262144 -1 -1 0 1
;
#X obj 258 268 tgl 45 0 b-1 b-1.r empty 17 7 0 10 -262144 -1 -1 0 1
;
#X obj 209 268 tgl 45 0 asharp-1 asharp-1.r empty 17 7 0 10 -262144
-1 -1 0 1;
#X obj 321 35 cnv 15 175 290 empty empty empty 20 12 0 14 -191407 -66577
0;
#N canvas 247 85 870 466 audio 0;
#N canvas 753 140 487 323 beats 0;
#X obj -88 -53 r bpm;
#X obj 104 112 s pos;
#X obj -87 -12 s notetime;
#X floatatom -75 45 5 0 0 0 - - -;
#X obj 11 75 mod 16;
#X obj 11 135 mod 4;
#X obj 11 159 s beat;
#X obj 88 239 s bar;
#X obj 104 92 s step;
#X obj 88 136 mod 4;
#X obj 88 156 sel 0;
#X obj 88 177 f 0;
#X obj 118 177 + 1;
#X obj 88 219 f;
#X obj 88 198 t b f;
#X obj -88 -33 expr 60000/$f1;
#X obj 224 155 osc~;
#X msg 224 46 880;
#X msg 281 45 1010;
#X obj 224 183 *~;
#X obj 262 155 line;
#X msg 262 125 1 5;
#X obj 224 65 t f b b;
#X obj 281 64 t f b b;
#X obj 291 103 del 50;
#X msg 291 125 0 5;
#X obj 224 226 s~ metro-audio;
#X obj 225 16 sel 0 1 2 3;
#X obj 225 -45 r beat;
#X obj 225 -5 spigot;
#X obj 272 -46 r metro-on;
#X obj 225 205 *~ 0.06;
#X symbolatom 103 -82 10 0 0 0 - - -;
#X obj 11 -99 r play-pause;
#X obj 11 -78 sel Play Stop;
#X msg 11 -56 0;
#X msg 48 -56 1;
#X obj 11 6 metro 500;
#X obj 109 -23 r notetime;
#X obj 11 36 f 0;
#X obj 36 36 + 1;
#X connect 0 0 15 0;
#X connect 4 0 5 0;
#X connect 4 0 1 0;
#X connect 4 0 8 0;
#X connect 4 0 9 0;
#X connect 5 0 6 0;
#X connect 9 0 10 0;
#X connect 10 0 11 0;
#X connect 11 0 12 0;
#X connect 11 0 14 0;
#X connect 12 0 11 1;
#X connect 13 0 7 0;
#X connect 14 0 13 0;
#X connect 14 1 13 1;
#X connect 15 0 2 0;
#X connect 15 0 3 0;
#X connect 16 0 19 0;
#X connect 17 0 22 0;
#X connect 18 0 23 0;
#X connect 19 0 31 0;
#X connect 20 0 19 1;
#X connect 21 0 20 0;
#X connect 22 0 16 0;
#X connect 22 1 21 0;
#X connect 22 2 24 0;
#X connect 23 0 16 0;
#X connect 23 1 21 0;
#X connect 23 2 24 0;
#X connect 24 0 25 0;
#X connect 25 0 20 0;
#X connect 27 0 18 0;
#X connect 27 1 17 0;
#X connect 27 2 17 0;
#X connect 27 3 17 0;
#X connect 28 0 29 0;
#X connect 29 0 27 0;
#X connect 30 0 29 1;
#X connect 31 0 26 0;
#X connect 33 0 32 0;
#X connect 33 0 34 0;
#X connect 34 0 35 0;
#X connect 34 1 36 0;
#X connect 35 0 37 0;
#X connect 35 0 39 1;
#X connect 35 0 11 1;
#X connect 36 0 37 0;
#X connect 37 0 39 0;
#X connect 38 0 37 1;
#X connect 39 0 40 0;
#X connect 39 0 4 0;
#X connect 40 0 39 1;
#X restore 33 -173 pd beats;
#X obj 144 226 dac~;
#N canvas 215 82 509 346 drums-page 0;
#X obj -338 4 r step;
#X msg -94 71 clear;
#X obj -338 212 outlet~;
#X obj -338 192 *~ 0.4;
#X obj -94 52 b;
#X obj -94 6 r wordbutton-Reset;
#X obj -84 27 r wordbutton-Drums-reset;
#X msg -155 -20 dump;
#X obj -155 -40 r save_everything;
#N canvas 0 0 796 488 taptap-cymbal 0;
#X obj 368 236 c_taptap 16;
#N canvas 0 22 454 304 (subpatch) 0;
#X array Sample4 213831 float 0;
#X coords 0 1 213830 -1 50 50 1;
#X restore 389 298 graph;
#X obj 368 354 tabplay~ Sample4;
#X obj 368 261 b;
#X obj 461 187 b;
#X obj 461 164 r cymbal.b;
#X obj 301 288 s cymbal.r;
#X obj 368 142 inlet;
#X obj 431 142 inlet;
#X obj 367 377 outlet~;
#X connect 0 0 3 0;
#X connect 2 0 9 0;
#X connect 3 0 2 0;
#X connect 3 0 6 0;
#X connect 4 0 0 1;
#X connect 5 0 4 0;
#X connect 7 0 0 0;
#X connect 8 0 0 1;
#X restore -187 151 pd taptap-cymbal;
#N canvas 0 0 467 407 taptap-kick 0;
#X obj 69 225 c_taptap 16;
#N canvas 0 22 458 308 (subpatch) 0;
#X array Sample3 24346 float 0;
#X coords 0 1 24345 -1 50 50 1;
#X restore 89 288 graph;
#X obj 69 344 tabplay~ Sample3;
#X obj 69 248 b;
#X obj 145 190 b;
#X obj 145 167 r kick.b;
#X obj 8 275 s kick.r;
#X obj 69 141 inlet;
#X obj 132 142 inlet;
#X obj 69 369 outlet~;
#X connect 0 0 3 0;
#X connect 2 0 9 0;
#X connect 3 0 2 0;
#X connect 3 0 6 0;
#X connect 4 0 0 1;
#X connect 5 0 4 0;
#X connect 7 0 0 0;
#X connect 8 0 0 1;
#X restore -236 130 pd taptap-kick;
#N canvas 0 0 467 512 taptap-snare 0;
#X obj -113 224 c_taptap 16;
#N canvas 0 22 458 308 (subpatch) 0;
#X array Sample2 31010 float 0;
#X coords 0 1 31009 -1 50 50 1;
#X restore -94 289 graph;
#X obj -113 343 tabplay~ Sample2;
#X obj -174 273 s snare.r;
#X obj -34 193 b;
#X obj -34 170 r snare.b;
#X obj -113 246 b;
#X obj -113 131 inlet;
#X obj -50 130 inlet;
#X obj -114 370 outlet~;
#X connect 0 0 6 0;
#X connect 2 0 9 0;
#X connect 4 0 0 1;
#X connect 5 0 4 0;
#X connect 6 0 3 0;
#X connect 6 0 2 0;
#X connect 7 0 0 0;
#X connect 8 0 0 1;
#X restore -301 109 pd taptap-snare;
#N canvas 0 0 450 300 taptap-hihat 0;
#X obj -227 133 c_taptap 16;
#N canvas 0 22 454 304 (subpatch) 0;
#X array Sample1 60378 float 0;
#X coords 0 1 60377 -1 50 50 1;
#X restore -206 199 graph;
#X obj -227 253 tabplay~ Sample1;
#X obj -146 78 r hihat.b;
#X obj -308 199 s hihat.r;
#X obj -227 158 b;
#X obj -146 101 b;
#X obj -227 15 inlet;
#X obj -164 15 inlet;
#X obj -226 279 outlet~;
#X connect 0 0 5 0;
#X connect 2 0 9 0;
#X connect 3 0 6 0;
#X connect 5 0 2 0;
#X connect 5 0 4 0;
#X connect 6 0 0 1;
#X connect 7 0 0 0;
#X connect 8 0 0 1;
#X restore -338 88 pd taptap-hihat;
#X connect 0 0 9 0;
#X connect 0 0 10 0;
#X connect 0 0 11 0;
#X connect 0 0 12 0;
#X connect 1 0 9 1;
#X connect 1 0 10 1;
#X connect 1 0 11 1;
#X connect 1 0 12 1;
#X connect 3 0 2 0;
#X connect 4 0 1 0;
#X connect 5 0 4 0;
#X connect 6 0 4 0;
#X connect 7 0 9 1;
#X connect 7 0 10 1;
#X connect 7 0 11 1;
#X connect 7 0 12 1;
#X connect 8 0 7 0;
#X connect 9 0 3 0;
#X connect 10 0 3 0;
#X connect 11 0 3 0;
#X connect 12 0 3 0;
#X restore 32 -77 pd drums-page;
#N canvas 0 0 614 545 synth-page 0;
#N canvas 221 178 991 509 Synth_Pads________________ 0;
#X obj 205 302 *~;
#N canvas 0 22 1366 696 eald~ 0;
#X msg 394 133 bang;
#X text 471 25 "ALD" enveloppe;
#X obj 504 49 inlet;
#X obj 555 48 inlet;
#X obj 605 48 inlet;
#X obj 408 52 inlet;
#X obj 379 432 outlet~;
#X text 633 133 ENVELOPE SECTION;
#X obj 379 346 vline~;
#X msg 352 245 1;
#X obj 352 265 pack f f;
#X obj 352 286 unpack f f;
#X msg 456 246 0;
#X obj 456 267 pack f f f;
#X obj 456 288 unpack f f f;
#X obj 456 225 delay 5;
#X text 102 283 Attack : sends a 1 to get to in A msec;
#X text 529 224 wait the end of the attack;
#X text 538 254 Length+Decay : 0 to get to in D msec \, after L msec
;
#X connect 0 0 9 0;
#X connect 0 0 15 0;
#X connect 2 0 10 1;
#X connect 2 0 15 1;
#X connect 3 0 13 2;
#X connect 4 0 13 1;
#X connect 5 0 0 0;
#X connect 8 0 6 0;
#X connect 9 0 10 0;
#X connect 10 0 11 0;
#X connect 11 0 8 0;
#X connect 11 1 8 1;
#X connect 12 0 13 0;
#X connect 13 0 14 0;
#X connect 14 0 8 0;
#X connect 14 1 8 1;
#X connect 14 2 8 2;
#X connect 15 0 12 0;
#X restore 192 258 pd eald~;
#X obj 224 390 outlet~;
#X obj 71 67 inlet;
#X obj 117 69 inlet;
#X obj 222 143 inlet;
#X obj 261 144 inlet;
#X obj 302 145 inlet;
#N canvas 0 22 471 390 pads 0;
#X obj 129 6 inlet;
#N canvas 0 22 450 300 4phasebloc 0;
#X obj 62 115 phasor~ 300;
#X obj 61 83 mtof;
#X obj 137 156 *~ 0.1;
#X obj 148 114 phasor~ 300;
#X obj 147 82 mtof;
#X obj 235 114 phasor~ 300;
#X obj 234 82 mtof;
#X obj 321 113 phasor~ 300;
#X obj 320 81 mtof;
#X obj 113 50 inlet;
#X obj 164 48 inlet;
#X obj 216 48 inlet;
#X obj 267 46 inlet;
#X obj 137 189 outlet~;
#X connect 0 0 2 0;
#X connect 1 0 0 0;
#X connect 2 0 13 0;
#X connect 3 0 2 0;
#X connect 4 0 3 0;
#X connect 5 0 2 0;
#X connect 6 0 5 0;
#X connect 7 0 2 0;
#X connect 8 0 7 0;
#X connect 9 0 1 0;
#X connect 10 0 4 0;
#X connect 11 0 6 0;
#X connect 12 0 8 0;
#X restore 118 210 pd 4phasebloc;
#N canvas 0 22 450 300 4phasebloc 0;
#X obj 62 115 phasor~ 300;
#X obj 61 83 mtof;
#X obj 137 156 *~ 0.1;
#X obj 148 114 phasor~ 300;
#X obj 147 82 mtof;
#X obj 235 114 phasor~ 300;
#X obj 234 82 mtof;
#X obj 321 113 phasor~ 300;
#X obj 320 81 mtof;
#X obj 113 50 inlet;
#X obj 164 48 inlet;
#X obj 216 48 inlet;
#X obj 267 46 inlet;
#X obj 137 189 outlet~;
#X connect 0 0 2 0;
#X connect 1 0 0 0;
#X connect 2 0 13 0;
#X connect 3 0 2 0;
#X connect 4 0 3 0;
#X connect 5 0 2 0;
#X connect 6 0 5 0;
#X connect 7 0 2 0;
#X connect 8 0 7 0;
#X connect 9 0 1 0;
#X connect 10 0 4 0;
#X connect 11 0 6 0;
#X connect 12 0 8 0;
#X restore 221 210 pd 4phasebloc;
#X obj 44 69 random 100;
#X obj 44 111 line;
#X obj 44 7 loadbang;
#X msg 44 27 1;
#X obj 44 48 metro 1000;
#X msg 44 89 \$1 1000;
#X obj 50 163 -;
#X msg 45 140 100;
#X obj 26 188 * 10;
#X obj 27 211 + 500;
#X obj 118 249 bp~ 500 3;
#X obj 67 187 * 10;
#X obj 214 248 bp~ 600 4;
#X obj 68 210 + 700;
#X obj 25 250 / 100;
#X obj 67 249 / 100;
#X obj 25 273 + 0.1;
#X obj 52 304 *~;
#X obj 71 272 + 0.1;
#X obj 82 304 *~;
#X obj 325 251 env~;
#X obj 325 228 osc~ 0.04;
#X obj 117 272 *~ 0.7;
#X obj 22 362 outlet~;
#X obj 87 362 outlet~;
#X obj 33 334 *~ 0.4;
#X obj 87 332 *~ 0.4;
#X obj 135 144 route 1 2 3 4 5 6 7 8 9 10 11;
#X obj 173 290 delwrite~ \$0-fff 100;
#X obj 174 313 delread~ \$0-fff 100;
#X connect 0 0 30 0;
#X connect 1 0 13 0;
#X connect 2 0 15 0;
#X connect 3 0 8 0;
#X connect 4 0 9 1;
#X connect 4 0 10 0;
#X connect 4 0 11 0;
#X connect 4 0 17 0;
#X connect 5 0 6 0;
#X connect 6 0 7 0;
#X connect 7 0 3 0;
#X connect 8 0 4 0;
#X connect 9 0 14 0;
#X connect 9 0 18 0;
#X connect 10 0 9 0;
#X connect 11 0 12 0;
#X connect 12 0 13 1;
#X connect 13 0 25 0;
#X connect 14 0 16 0;
#X connect 15 0 20 0;
#X connect 15 0 22 0;
#X connect 16 0 15 1;
#X connect 17 0 19 0;
#X connect 18 0 21 0;
#X connect 19 0 20 1;
#X connect 20 0 28 0;
#X connect 21 0 22 1;
#X connect 22 0 29 0;
#X connect 23 0 32 0;
#X connect 24 0 23 0;
#X connect 25 0 28 0;
#X connect 25 0 31 0;
#X connect 28 0 26 0;
#X connect 29 0 27 0;
#X connect 30 0 1 0;
#X connect 30 1 1 1;
#X connect 30 2 1 2;
#X connect 30 3 1 3;
#X connect 30 4 2 0;
#X connect 30 5 2 1;
#X connect 30 6 2 2;
#X connect 30 7 2 3;
#X connect 30 8 24 0;
#X connect 32 0 29 0;
#X restore 84 248 pd pads;
#X obj 83 223 pack f f;
#X obj 82 168 pack f f;
#X obj 82 192 poly 4 1;
#X text 19 243 synthèse;
#X text 252 257 Enveloppe;
#X obj 205 335 *~ 0.7;
#X obj 180 216 b;
#X connect 0 0 14 0;
#X connect 1 0 0 1;
#X connect 3 0 10 0;
#X connect 4 0 10 1;
#X connect 5 0 1 1;
#X connect 6 0 1 2;
#X connect 7 0 1 3;
#X connect 8 0 0 0;
#X connect 8 1 0 0;
#X connect 9 0 8 0;
#X connect 10 0 11 0;
#X connect 11 0 9 0;
#X connect 11 0 15 0;
#X connect 11 1 9 1;
#X connect 14 0 2 0;
#X connect 15 0 1 0;
#X restore 46 438 pd Synth_Pads________________;
#X obj 91 413 r vel;
#X obj 131 416 r A;
#X obj 217 416 r D;
#N canvas 0 22 697 471 stampblips 0;
#N canvas 0 22 528 439 blip 0;
#X obj 153 236 osc~;
#X obj 190 236 vline~;
#X obj 189 262 *~;
#X obj 172 285 *~;
#X obj 153 26 inlet;
#X obj 172 331 outlet~;
#X msg 190 202 1 2 0 \, 0 \$1 3;
#X obj 190 108 log;
#X obj 190 85 pow 4;
#X obj 190 151 * 1e+006;
#X obj 190 130 pow -3;
#X obj 190 174 * 2;
#X obj 259 25 inlet;
#X obj 265 87 pow -1;
#X obj 265 112 * 1000;
#X obj 153 56 t f f f;
#X obj 265 136 log;
#X obj 265 159 min 3;
#X obj 173 307 *~;
#X connect 0 0 3 0;
#X connect 1 0 2 0;
#X connect 1 0 2 1;
#X connect 2 0 3 1;
#X connect 3 0 18 0;
#X connect 4 0 15 0;
#X connect 6 0 1 0;
#X connect 7 0 10 0;
#X connect 8 0 7 0;
#X connect 9 0 11 0;
#X connect 10 0 9 0;
#X connect 11 0 6 0;
#X connect 12 0 11 1;
#X connect 13 0 14 0;
#X connect 14 0 16 0;
#X connect 15 0 0 0;
#X connect 15 1 8 0;
#X connect 15 2 13 0;
#X connect 16 0 17 0;
#X connect 17 0 18 1;
#X connect 18 0 5 0;
#X restore 129 158 pd blip;
#N canvas 0 22 528 439 blip 0;
#X obj 153 236 osc~;
#X obj 190 236 vline~;
#X obj 189 262 *~;
#X obj 172 285 *~;
#X obj 153 26 inlet;
#X obj 172 331 outlet~;
#X msg 190 202 1 2 0 \, 0 \$1 3;
#X obj 190 108 log;
#X obj 190 85 pow 4;
#X obj 190 151 * 1e+006;
#X obj 190 130 pow -3;
#X obj 190 174 * 2;
#X obj 259 25 inlet;
#X obj 265 87 pow -1;
#X obj 265 112 * 1000;
#X obj 153 56 t f f f;
#X obj 265 136 log;
#X obj 265 159 min 3;
#X obj 173 307 *~;
#X connect 0 0 3 0;
#X connect 1 0 2 0;
#X connect 1 0 2 1;
#X connect 2 0 3 1;
#X connect 3 0 18 0;
#X connect 4 0 15 0;
#X connect 6 0 1 0;
#X connect 7 0 10 0;
#X connect 8 0 7 0;
#X connect 9 0 11 0;
#X connect 10 0 9 0;
#X connect 11 0 6 0;
#X connect 12 0 11 1;
#X connect 13 0 14 0;
#X connect 14 0 16 0;
#X connect 15 0 0 0;
#X connect 15 1 8 0;
#X connect 15 2 13 0;
#X connect 16 0 17 0;
#X connect 17 0 18 1;
#X connect 18 0 5 0;
#X restore 188 158 pd blip;
#N canvas 0 22 528 439 blip 0;
#X obj 153 236 osc~;
#X obj 190 236 vline~;
#X obj 189 262 *~;
#X obj 172 285 *~;
#X obj 153 26 inlet;
#X obj 172 331 outlet~;
#X msg 190 202 1 2 0 \, 0 \$1 3;
#X obj 190 108 log;
#X obj 190 85 pow 4;
#X obj 190 151 * 1e+006;
#X obj 190 130 pow -3;
#X obj 190 174 * 2;
#X obj 259 25 inlet;
#X obj 265 87 pow -1;
#X obj 265 112 * 1000;
#X obj 153 56 t f f f;
#X obj 265 136 log;
#X obj 265 159 min 3;
#X obj 173 307 *~;
#X connect 0 0 3 0;
#X connect 1 0 2 0;
#X connect 1 0 2 1;
#X connect 2 0 3 1;
#X connect 3 0 18 0;
#X connect 4 0 15 0;
#X connect 6 0 1 0;
#X connect 7 0 10 0;
#X connect 8 0 7 0;
#X connect 9 0 11 0;
#X connect 10 0 9 0;
#X connect 11 0 6 0;
#X connect 12 0 11 1;
#X connect 13 0 14 0;
#X connect 14 0 16 0;
#X connect 15 0 0 0;
#X connect 15 1 8 0;
#X connect 15 2 13 0;
#X connect 16 0 17 0;
#X connect 17 0 18 1;
#X connect 18 0 5 0;
#X restore 72 159 pd blip;
#N canvas 0 22 528 439 blip 0;
#X obj 153 236 osc~;
#X obj 190 236 vline~;
#X obj 189 262 *~;
#X obj 172 285 *~;
#X obj 153 26 inlet;
#X obj 172 331 outlet~;
#X msg 190 202 1 2 0 \, 0 \$1 3;
#X obj 190 108 log;
#X obj 190 85 pow 4;
#X obj 190 151 * 1e+006;
#X obj 190 130 pow -3;
#X obj 190 174 * 2;
#X obj 259 25 inlet;
#X obj 265 87 pow -1;
#X obj 265 112 * 1000;
#X obj 153 56 t f f f;
#X obj 265 136 log;
#X obj 265 159 min 3;
#X obj 173 307 *~;
#X connect 0 0 3 0;
#X connect 1 0 2 0;
#X connect 1 0 2 1;
#X connect 2 0 3 1;
#X connect 3 0 18 0;
#X connect 4 0 15 0;
#X connect 6 0 1 0;
#X connect 7 0 10 0;
#X connect 8 0 7 0;
#X connect 9 0 11 0;
#X connect 10 0 9 0;
#X connect 11 0 6 0;
#X connect 12 0 11 1;
#X connect 13 0 14 0;
#X connect 14 0 16 0;
#X connect 15 0 0 0;
#X connect 15 1 8 0;
#X connect 15 2 13 0;
#X connect 16 0 17 0;
#X connect 17 0 18 1;
#X connect 18 0 5 0;
#X restore 13 159 pd blip;
#X obj 143 276 outlet~;
#X text 279 248 Self scaling time/amplitude blips;
#X text 279 266 without redundancy \, ajf2006;
#X obj 196 -3 inlet freqlist;
#X obj 185 34 mtof;
#X obj 172 59 poly 4 1;
#X obj 171 88 pack f f f;
#X obj 174 114 route 1 2 3 4;
#X obj 387 82 r decay;
#X obj 344 111 f;
#X obj 352 37 inlet decay;
#X obj 389 135 bng 15 250 50 0 empty empty empty 17 7 0 10 -262144
-1 -1;
#X obj 143 251 *~ 0.15;
#X obj 299 16 inlet vel;
#X connect 0 0 16 0;
#X connect 1 0 16 0;
#X connect 2 0 16 0;
#X connect 3 0 16 0;
#X connect 7 0 8 0;
#X connect 8 0 9 0;
#X connect 9 0 10 0;
#X connect 9 1 10 1;
#X connect 9 2 10 2;
#X connect 10 0 11 0;
#X connect 11 0 3 0;
#X connect 11 1 2 0;
#X connect 11 2 0 0;
#X connect 11 3 1 0;
#X connect 12 0 13 0;
#X connect 13 0 1 1;
#X connect 13 0 0 1;
#X connect 13 0 2 1;
#X connect 13 0 3 1;
#X connect 14 0 13 0;
#X connect 15 0 13 0;
#X connect 16 0 4 0;
#X connect 17 0 9 1;
#X restore 237 438 pd stampblips;
#X obj 274 409 r vel;
#X obj 46 274 pack f f;
#X obj 46 254 f;
#X obj 46 205 t b f;
#X text 102 277 7- routage selon le synthé choisi;
#X text 331 440 8- les synthés;
#X obj 47 488 outlet~;
#N canvas 75 149 975 317 fmsynth 0;
#X msg 467 95 \; ratio 7 \; index 9;
#X msg 543 41 \; ratio 2 \; index 3;
#X msg 560 93 \; ratio 7 \; index 1000;
#X msg 584 143 \; ratio 1.5 \; index 4;
#X msg 621 41 \; ratio 0.5 \; index 20;
#X msg 640 92 \; ratio 0.1 \; index 8;
#X msg 669 142 \; ratio 1 \; index 30;
#X msg 695 40 \; ratio 1.7 \; index 40;
#X msg 493 142 \; ratio 2.03 \; index 15;
#N canvas 0 22 647 498 synth______________________ 0;
#X obj 53 12 inlet;
#X obj 118 12 inlet;
#X obj 293 392 outlet~;
#X obj 51 126 pack f f f;
#X obj 66 219 unpack f f;
#X obj 140 219 unpack f f;
#X obj 213 219 unpack f f;
#X obj 286 220 unpack f f;
#X obj 108 164 route 1 2 3 4;
#X obj 52 97 poly 4 1;
#N canvas 0 22 540 466 voice 0;
#X obj 36 114 mtof;
#X obj 223 205 osc~;
#X obj 254 148 *;
#X obj 171 275 osc~;
#X obj 200 230 *~;
#X obj 172 253 +~;
#X obj 154 175 line~;
#X obj 161 203 *~;
#X obj 246 99 t b f;
#X obj -47 28 inlet;
#X obj 166 40 r index;
#X obj 245 39 r ratio;
#X obj 39 91 t f b;
#X obj 163 98 t b f;
#X obj 169 143 pack f 0;
#X obj 98 146 pack 1 f;
#X obj 71 39 r notelength;
#X obj 35 272 line~;
#X obj 53 244 pack 0 f;
#X msg 3 244 1 0;
#X obj 14 215 t b b;
#X obj 48 319 *~;
#X obj 83 87 * 4;
#X obj 112 85 * 2;
#X obj 161 447 outlet~;
#X connect 0 0 2 0;
#X connect 0 0 20 0;
#X connect 0 0 5 0;
#X connect 1 0 4 1;
#X connect 2 0 1 0;
#X connect 2 0 7 1;
#X connect 3 0 21 1;
#X connect 4 0 5 1;
#X connect 5 0 3 0;
#X connect 6 0 7 0;
#X connect 7 0 4 0;
#X connect 8 0 2 0;
#X connect 8 1 2 1;
#X connect 9 0 12 0;
#X connect 10 0 13 0;
#X connect 11 0 8 0;
#X connect 12 0 0 0;
#X connect 13 0 15 0;
#X connect 13 1 14 0;
#X connect 14 0 6 0;
#X connect 15 0 6 0;
#X connect 16 0 23 0;
#X connect 16 0 22 0;
#X connect 17 0 21 0;
#X connect 18 0 17 0;
#X connect 19 0 17 0;
#X connect 20 0 18 0;
#X connect 20 1 19 0;
#X connect 21 0 24 0;
#X connect 22 0 18 1;
#X connect 23 0 15 1;
#X restore 68 251 pd voice;
#X obj 228 310 *~ 0.09;
#N canvas 0 22 540 466 voice 0;
#X obj 36 114 mtof;
#X obj 223 205 osc~;
#X obj 254 148 *;
#X obj 171 275 osc~;
#X obj 200 230 *~;
#X obj 172 253 +~;
#X obj 154 175 line~;
#X obj 161 203 *~;
#X obj 246 99 t b f;
#X obj -47 28 inlet;
#X obj 166 40 r index;
#X obj 245 39 r ratio;
#X obj 39 91 t f b;
#X obj 163 98 t b f;
#X obj 169 143 pack f 0;
#X obj 98 146 pack 1 f;
#X obj 71 39 r notelength;
#X obj 35 272 line~;
#X obj 53 244 pack 0 f;
#X msg 3 244 1 0;
#X obj 14 215 t b b;
#X obj 48 319 *~;
#X obj 83 87 * 4;
#X obj 112 85 * 2;
#X obj 161 447 outlet~;
#X connect 0 0 2 0;
#X connect 0 0 20 0;
#X connect 0 0 5 0;
#X connect 1 0 4 1;
#X connect 2 0 1 0;
#X connect 2 0 7 1;
#X connect 3 0 21 1;
#X connect 4 0 5 1;
#X connect 5 0 3 0;
#X connect 6 0 7 0;
#X connect 7 0 4 0;
#X connect 8 0 2 0;
#X connect 8 1 2 1;
#X connect 9 0 12 0;
#X connect 10 0 13 0;
#X connect 11 0 8 0;
#X connect 12 0 0 0;
#X connect 13 0 15 0;
#X connect 13 1 14 0;
#X connect 14 0 6 0;
#X connect 15 0 6 0;
#X connect 16 0 23 0;
#X connect 16 0 22 0;
#X connect 17 0 21 0;
#X connect 18 0 17 0;
#X connect 19 0 17 0;
#X connect 20 0 18 0;
#X connect 20 1 19 0;
#X connect 21 0 24 0;
#X connect 22 0 18 1;
#X connect 23 0 15 1;
#X restore 143 251 pd voice;
#N canvas 0 22 540 466 voice 0;
#X obj 36 114 mtof;
#X obj 223 205 osc~;
#X obj 254 148 *;
#X obj 171 275 osc~;
#X obj 200 230 *~;
#X obj 172 253 +~;
#X obj 154 175 line~;
#X obj 161 203 *~;
#X obj 246 99 t b f;
#X obj -47 28 inlet;
#X obj 166 40 r index;
#X obj 245 39 r ratio;
#X obj 39 91 t f b;
#X obj 163 98 t b f;
#X obj 169 143 pack f 0;
#X obj 98 146 pack 1 f;
#X obj 71 39 r notelength;
#X obj 35 272 line~;
#X obj 53 244 pack 0 f;
#X msg 3 244 1 0;
#X obj 14 215 t b b;
#X obj 48 319 *~;
#X obj 83 87 * 4;
#X obj 112 85 * 2;
#X obj 161 447 outlet~;
#X connect 0 0 2 0;
#X connect 0 0 20 0;
#X connect 0 0 5 0;
#X connect 1 0 4 1;
#X connect 2 0 1 0;
#X connect 2 0 7 1;
#X connect 3 0 21 1;
#X connect 4 0 5 1;
#X connect 5 0 3 0;
#X connect 6 0 7 0;
#X connect 7 0 4 0;
#X connect 8 0 2 0;
#X connect 8 1 2 1;
#X connect 9 0 12 0;
#X connect 10 0 13 0;
#X connect 11 0 8 0;
#X connect 12 0 0 0;
#X connect 13 0 15 0;
#X connect 13 1 14 0;
#X connect 14 0 6 0;
#X connect 15 0 6 0;
#X connect 16 0 23 0;
#X connect 16 0 22 0;
#X connect 17 0 21 0;
#X connect 18 0 17 0;
#X connect 19 0 17 0;
#X connect 20 0 18 0;
#X connect 20 1 19 0;
#X connect 21 0 24 0;
#X connect 22 0 18 1;
#X connect 23 0 15 1;
#X restore 212 250 pd voice;
#N canvas 0 22 540 466 voice 0;
#X obj 36 114 mtof;
#X obj 223 205 osc~;
#X obj 254 148 *;
#X obj 171 275 osc~;
#X obj 200 230 *~;
#X obj 172 253 +~;
#X obj 154 175 line~;
#X obj 161 203 *~;
#X obj 246 99 t b f;
#X obj -47 28 inlet;
#X obj 166 40 r index;
#X obj 245 39 r ratio;
#X obj 39 91 t f b;
#X obj 163 98 t b f;
#X obj 169 143 pack f 0;
#X obj 98 146 pack 1 f;
#X obj 71 39 r notelength;
#X obj 35 272 line~;
#X obj 53 244 pack 0 f;
#X msg 3 244 1 0;
#X obj 14 215 t b b;
#X obj 48 319 *~;
#X obj 83 87 * 4;
#X obj 112 85 * 2;
#X obj 161 447 outlet~;
#X connect 0 0 2 0;
#X connect 0 0 20 0;
#X connect 0 0 5 0;
#X connect 1 0 4 1;
#X connect 2 0 1 0;
#X connect 2 0 7 1;
#X connect 3 0 21 1;
#X connect 4 0 5 1;
#X connect 5 0 3 0;
#X connect 6 0 7 0;
#X connect 7 0 4 0;
#X connect 8 0 2 0;
#X connect 8 1 2 1;
#X connect 9 0 12 0;
#X connect 10 0 13 0;
#X connect 11 0 8 0;
#X connect 12 0 0 0;
#X connect 13 0 15 0;
#X connect 13 1 14 0;
#X connect 14 0 6 0;
#X connect 15 0 6 0;
#X connect 16 0 23 0;
#X connect 16 0 22 0;
#X connect 17 0 21 0;
#X connect 18 0 17 0;
#X connect 19 0 17 0;
#X connect 20 0 18 0;
#X connect 20 1 19 0;
#X connect 21 0 24 0;
#X connect 22 0 18 1;
#X connect 23 0 15 1;
#X restore 285 247 pd voice;
#X connect 0 0 9 0;
#X connect 1 0 9 1;
#X connect 3 0 8 0;
#X connect 4 0 10 0;
#X connect 5 0 12 0;
#X connect 6 0 13 0;
#X connect 7 0 14 0;
#X connect 8 0 4 0;
#X connect 8 1 5 0;
#X connect 8 2 6 0;
#X connect 8 3 7 0;
#X connect 9 0 3 0;
#X connect 9 1 3 1;
#X connect 9 2 3 2;
#X connect 10 0 11 0;
#X connect 11 0 2 0;
#X connect 12 0 11 0;
#X connect 13 0 11 0;
#X connect 14 0 11 0;
#X restore 51 16 pd synth______________________;
#X msg 445 42 \; ratio 1 \; index 10;
#X obj 39 -53 inlet;
#X obj 82 -43 inlet;
#X obj 58 142 outlet~;
#X obj 515 -94 inlet;
#X obj 482 -22 sel 2 3 4 5 6 7 8 9 10 11 12 13 14;
#X obj 175 80 r notetime;
#X obj 187 102 s notelength;
#X connect 9 0 13 0;
#X connect 11 0 9 0;
#X connect 12 0 9 1;
#X connect 14 0 15 0;
#X connect 15 0 10 0;
#X connect 15 1 0 0;
#X connect 15 2 8 0;
#X connect 15 3 1 0;
#X connect 15 4 2 0;
#X connect 15 5 3 0;
#X connect 15 6 4 0;
#X connect 15 7 5 0;
#X connect 15 8 6 0;
#X connect 15 9 7 0;
#X connect 16 0 17 0;
#X restore 422 439 pd fmsynth;
#X obj 445 412 r vel;
#X obj 46 320 route 0 1 2 3 4 5 6 7 8 9 10 11;
#X obj 164 64 sel P1 P2 P3 P4 P5 P6 P7 P8 P9 P10 P11;
#X obj 164 17 r synthpreset;
#X msg 164 42 symbol \$1;
#X msg 164 92 0;
#X msg 184 113 1;
#X msg 204 134 2;
#X msg 225 155 3;
#X msg 245 93 4;
#X msg 265 114 5;
#X msg 285 135 6;
#X msg 306 156 7;
#X msg 328 92 8;
#X msg 348 113 9;
#X msg 368 134 10;
#X msg 389 155 11;
#X obj 163 237 t f;
#X obj 174 416 r notetime;
#X obj -50 142 t f;
#N canvas 0 0 1277 612 mode_piano 0;
#X obj 6 51 b;
#X obj 35 51 b;
#X obj 64 52 b;
#X obj 93 52 b;
#X obj 121 53 b;
#X obj 150 53 b;
#X obj 179 53 b;
#X obj 206 53 b;
#X obj 235 53 b;
#X obj 264 54 b;
#X obj 293 54 b;
#X obj 321 55 b;
#X obj 5 9 spigot;
#X obj 35 -17 spigot;
#X obj 63 -37 spigot;
#X obj 93 -59 spigot;
#X obj 117 6 spigot;
#X obj 147 -18 spigot;
#X obj 175 -39 spigot;
#X obj 205 -60 spigot;
#X obj 235 13 spigot;
#X obj 265 -11 spigot;
#X obj 293 -32 spigot;
#X obj 323 -53 spigot;
#X msg 7 75 60;
#X msg 38 75 61;
#X msg 67 74 62;
#X msg 94 74 63;
#X msg 122 74 64;
#X msg 151 75 65;
#X msg 180 74 66;
#X msg 211 74 67;
#X msg 240 73 68;
#X msg 267 73 69;
#X msg 295 73 70;
#X msg 324 74 71;
#X obj 356 20 r playback1;
#X obj 5 -158 r c.b;
#X obj 35 -138 r csharp.b;
#X obj 63 -116 r d.b;
#X obj 93 -96 r dsharp.b;
#X obj 117 -158 r e.b;
#X obj 147 -137 r f.b;
#X obj 175 -116 r fsharp.b;
#X obj 205 -94 r g.b;
#X obj 235 -162 r gsharp.b;
#X obj 265 -135 r a.b;
#X obj 294 -112 r asharp.b;
#X obj 323 -91 r b.b;
#X obj 154 172 outlet;
#X text 218 175 on envoit directement les notes vers le synthé;
#X text 434 20 on reçoit le toggle validant le mode piano;
#X connect 0 0 24 0;
#X connect 1 0 25 0;
#X connect 2 0 26 0;
#X connect 3 0 27 0;
#X connect 4 0 28 0;
#X connect 5 0 29 0;
#X connect 6 0 30 0;
#X connect 7 0 31 0;
#X connect 8 0 32 0;
#X connect 9 0 33 0;
#X connect 10 0 34 0;
#X connect 11 0 35 0;
#X connect 12 0 0 0;
#X connect 13 0 1 0;
#X connect 14 0 2 0;
#X connect 15 0 3 0;
#X connect 16 0 4 0;
#X connect 17 0 5 0;
#X connect 18 0 6 0;
#X connect 19 0 7 0;
#X connect 20 0 8 0;
#X connect 21 0 9 0;
#X connect 22 0 10 0;
#X connect 23 0 11 0;
#X connect 24 0 49 0;
#X connect 25 0 49 0;
#X connect 26 0 49 0;
#X connect 27 0 49 0;
#X connect 28 0 49 0;
#X connect 29 0 49 0;
#X connect 30 0 49 0;
#X connect 31 0 49 0;
#X connect 32 0 49 0;
#X connect 33 0 49 0;
#X connect 34 0 49 0;
#X connect 35 0 49 0;
#X connect 36 0 23 1;
#X connect 36 0 22 1;
#X connect 36 0 21 1;
#X connect 36 0 20 1;
#X connect 36 0 19 1;
#X connect 36 0 18 1;
#X connect 36 0 17 1;
#X connect 36 0 16 1;
#X connect 36 0 15 1;
#X connect 36 0 14 1;
#X connect 36 0 13 1;
#X connect 36 0 12 1;
#X connect 37 0 12 0;
#X connect 38 0 13 0;
#X connect 39 0 14 0;
#X connect 40 0 15 0;
#X connect 41 0 16 0;
#X connect 42 0 17 0;
#X connect 43 0 18 0;
#X connect 44 0 19 0;
#X connect 45 0 20 0;
#X connect 46 0 21 0;
#X connect 47 0 22 0;
#X connect 48 0 23 0;
#X restore -50 116 pd mode_piano;
#X obj -50 205 s notes-piano1;
#N canvas 158 61 886 598 markov1 0;
#N canvas 0 0 1349 696 markov-mel 0;
#X obj 54 819 + 0;
#X msg 264 230 0 \, 0 \, 8 \, 8 \, 3 \, 3 \, 10 \, 10 \, 5 \, 5 \,
0 \, 0 \, 8 \, 8 \, 3 \, 3 \, 10 \, 10 \, 5 \, 5 \, 0 \, 0 \, 8 \,
8 \, 3 \, 3 \, 10 \, 10 \, 5 \, 5 \, 0 \, 0 \, 8 \, 8 \, 3 \, 3 \,
10 \, 10 \, 5 \, 5 \, 0 \, 0 \, 8 \, 8 \, 3 \, 3 \, 10 \, 10 \, 5 \,
5 \, 0 \, 0 \, 8 \, 8 \, 3 \, 3 \, 10 \, 10 \, 5 \, 5 \, 0 \, 0 \,
8 \, 8 \, 3 \, 3 \, 10 \, 10 \, 5 \, 5 \, 0 \, 0 \, 8 \, 8 \, 3 \,
3 \, 10 \, 10 \, 5 \, 5 \,;
#X obj 264 209 u_cocollect;
#X msg 361 144 reset;
#X obj 351 398 t b b;
#X obj 264 480 u_cocollect;
#X msg 264 502 11 0 0 0 0 0 0 0 0 0 0 0 0 \, 10 0 0 0 0 0 16 0 0 0
0 16 0 \, 9 0 0 0 0 0 0 0 0 0 0 0 0 \, 8 0 0 0 16 0 0 0 0 16 0 0 0
\, 7 0 0 0 0 0 0 0 0 0 0 0 0 \, 6 0 0 0 0 0 0 0 0 0 0 0 0 \, 5 15 0
0 0 0 16 0 0 0 0 0 0 \, 4 0 0 0 0 0 0 0 0 0 0 0 0 \, 3 0 0 0 16 0 0
0 0 0 0 16 0 \, 2 0 0 0 0 0 0 0 0 0 0 0 0 \, 1 0 0 0 0 0 0 0 0 0 0
0 0 \, 0 16 0 0 0 0 0 0 0 16 0 0 0 \,;
#X msg 351 419 dump;
#X msg 401 427 reset;
#X text 359 478 Histograms;
#X obj 124 488 outlet;
#X obj 264 444 m_markovanal 12;
#X obj 124 461 c_markov 12;
#X obj 220 45 inlet;
#X obj 220 131 route 0;
#X obj 220 71 spigot;
#X obj 290 82 sel 0;
#X obj 290 109 t b b;
#X obj 124 384 spigot;
#X obj 334 110 t b b;
#X obj 290 54 inlet train;
#X obj 444 367 inlet play;
#X obj 221 175 mod 60;
#X obj 221 153 t a;
#X obj 124 362 inlet bang;
#X obj 124 408 f;
#X obj 806 179 inlet load;
#X obj 817 262 outlet save;
#X connect 1 0 11 0;
#X connect 1 0 27 0;
#X connect 2 0 1 0;
#X connect 3 0 2 1;
#X connect 4 0 7 0;
#X connect 4 1 5 1;
#X connect 5 0 6 0;
#X connect 7 0 11 1;
#X connect 8 0 11 1;
#X connect 11 0 5 0;
#X connect 11 0 12 1;
#X connect 12 0 10 0;
#X connect 12 0 25 1;
#X connect 13 0 15 0;
#X connect 14 1 23 0;
#X connect 15 0 14 0;
#X connect 16 0 17 0;
#X connect 16 1 19 0;
#X connect 17 0 4 0;
#X connect 17 1 1 0;
#X connect 18 0 25 0;
#X connect 19 0 8 0;
#X connect 19 1 3 0;
#X connect 20 0 15 1;
#X connect 20 0 16 0;
#X connect 21 0 18 1;
#X connect 22 0 2 0;
#X connect 22 0 11 0;
#X connect 22 0 25 1;
#X connect 23 0 22 0;
#X connect 24 0 18 0;
#X connect 25 0 12 0;
#X connect 26 0 1 0;
#X restore 236 261 pd markov-mel;
#N canvas 17 0 1349 696 markov-rythm 0;
#X obj 180 955 + 0;
#X obj 491 323 u_cocollect;
#X msg 515 23 reset;
#X obj 485 529 t b b;
#X obj 443 618 u_cocollect;
#X msg 443 640 1 80 80 \, 0 175 80 \,;
#X msg 485 557 dump;
#X floatatom 210 611 5 0 0 0 - - -;
#X msg 527 577 reset;
#X text 538 616 Histograms;
#X text 100 -19 numbers from 0 to <max - 1>;
#X obj 240 812 outlet;
#X obj 367 -93 inlet;
#X obj 369 -58 spigot;
#X obj 435 -47 sel 0;
#X obj 435 -20 t b b;
#X obj 249 520 spigot;
#X obj 492 -19 t b b;
#X obj 432 -80 inlet train;
#X obj 625 420 inlet play;
#X obj 255 544 b;
#X obj 243 472 r pos;
#X obj 390 580 m_markovanal 2;
#X obj 251 612 c_markov 2;
#X obj 265 575 f;
#X msg 491 366 0 \, 0 \, 0 \, 0 \, 1 \, 1 \, 0 \, 0 \, 1 \, 1 \, 0
\, 1 \, 1 \, 0 \, 0 \, 1 \, 1 \, 0 \, 0 \, 1 \, 1 \, 0 \, 0 \, 0 \,
0 \, 0 \, 0 \, 0 \, 0 \, 0 \, 1 \, 1 \, 0 \, 0 \, 1 \, 1 \, 0 \, 1
\, 1 \, 0 \, 0 \, 1 \, 1 \, 0 \, 0 \, 1 \, 1 \, 0 \, 0 \, 0 \, 0 \,
0 \, 0 \, 0 \, 0 \, 0 \, 1 \, 1 \, 0 \, 0 \, 1 \, 1 \, 0 \, 1 \, 1
\, 0 \, 0 \, 1 \, 1 \, 0 \, 0 \, 1 \, 1 \, 0 \, 0 \, 0 \, 0 \, 0 \,
0 \, 0 \, 0 \, 0 \, 1 \, 1 \, 0 \, 0 \, 1 \, 1 \, 0 \, 1 \, 1 \, 0
\, 0 \, 1 \, 1 \, 0 \, 0 \, 1 \, 1 \, 0 \, 0 \, 0 \, 0 \, 0 \, 0 \,
0 \, 0 \, 0 \, 1 \, 1 \, 0 \, 0 \, 1 \, 1 \, 0 \, 1 \, 1 \, 0 \, 0
\, 1 \, 1 \, 0 \, 0 \, 1 \, 1 \, 0 \, 0 \, 0 \, 0 \, 0 \, 0 \, 0 \,
0 \, 0 \, 1 \, 1 \, 0 \, 0 \, 1 \, 1 \, 0 \, 1 \, 1 \, 0 \, 0 \, 1
\, 1 \, 0 \, 0 \, 1 \, 1 \, 0 \, 0 \, 0 \, 0 \, 0 \, 0 \, 0 \, 0 \,
0 \, 1 \, 1 \, 0 \, 0 \, 1 \, 1 \, 0 \, 1 \, 1 \, 0 \, 0 \, 1 \, 1
\, 0 \, 0 \, 1 \, 1 \, 0 \, 0 \, 0 \, 0 \, 0 \, 0 \, 0 \, 0 \, 0 \,
1 \, 1 \, 0 \, 0 \, 1 \, 1 \, 0 \, 1 \, 1 \, 0 \, 0 \, 1 \, 1 \, 0
\, 0 \, 1 \, 1 \, 0 \, 0 \, 0 \, 0 \, 0 \,;
#X obj 1042 263 inlet load;
#X obj 1040 426 outlet save;
#X connect 1 0 25 0;
#X connect 2 0 1 1;
#X connect 3 0 6 0;
#X connect 3 1 4 1;
#X connect 4 0 5 0;
#X connect 6 0 22 1;
#X connect 8 0 22 1;
#X connect 12 0 13 0;
#X connect 13 0 1 0;
#X connect 13 0 22 0;
#X connect 13 0 24 0;
#X connect 14 0 15 0;
#X connect 14 1 17 0;
#X connect 15 0 3 0;
#X connect 15 1 25 0;
#X connect 16 0 20 0;
#X connect 17 0 8 0;
#X connect 17 1 2 0;
#X connect 18 0 13 1;
#X connect 18 0 14 0;
#X connect 19 0 16 1;
#X connect 20 0 23 0;
#X connect 20 0 24 0;
#X connect 21 0 16 0;
#X connect 22 0 4 0;
#X connect 22 0 23 1;
#X connect 23 0 11 0;
#X connect 23 0 24 1;
#X connect 24 0 23 0;
#X connect 24 0 7 0;
#X connect 25 0 22 0;
#X connect 25 0 27 0;
#X connect 26 0 25 0;
#X restore 420 336 pd markov-rythm;
#X msg 532 178 1;
#X obj 270 349 + 48;
#X msg 420 219 0;
#X obj 420 180 r pos;
#X obj 420 199 b;
#X obj 420 357 sel 1;
#X obj 273 199 r train1;
#X obj 420 243 spigot;
#X obj 532 199 t f b b;
#X msg 571 226 0;
#X obj 551 274 delay;
#X msg 551 293 1;
#X obj 578 254 r notetime;
#X obj 292 226 r markovplay1;
#X obj 532 156 r b-step1;
#X obj 254 180 r note-step1;
#X obj 270 369 s note-markov1;
#X obj 236 396 s retro-markov1;
#X obj 399 100 r notes-piano1;
#X text 50 260 une chaine pour la mélodie;
#X text 540 327 une chaine pour le rythme;
#X connect 0 0 3 0;
#X connect 0 0 19 0;
#X connect 1 0 7 0;
#X connect 2 0 10 0;
#X connect 3 0 18 0;
#X connect 4 0 9 0;
#X connect 5 0 6 0;
#X connect 6 0 4 0;
#X connect 7 0 0 0;
#X connect 8 0 0 2;
#X connect 8 0 1 1;
#X connect 9 0 1 0;
#X connect 10 0 1 0;
#X connect 10 1 12 0;
#X connect 10 2 11 0;
#X connect 11 0 9 1;
#X connect 12 0 13 0;
#X connect 13 0 9 1;
#X connect 14 0 12 1;
#X connect 15 0 0 3;
#X connect 15 0 1 2;
#X connect 16 0 2 0;
#X connect 17 0 0 1;
#X connect 20 0 2 0;
#X connect 20 0 0 1;
#X restore -51 74 pd markov1;
#N canvas 260 0 836 680 messages-retro-eclairage 0;
#X obj -127 113 b;
#X obj -127 134 s c.r;
#X obj -113 158 b;
#X obj -113 179 s csharp.r;
#X obj -99 202 b;
#X obj -99 223 s d.r;
#X obj -85 249 b;
#X obj -85 270 s dsharp.r;
#X obj -69 293 b;
#X obj -56 339 b;
#X obj -69 314 s e.r;
#X obj -56 360 s f.r;
#X obj -42 382 b;
#X obj -42 403 s fsharp.r;
#X obj -28 426 b;
#X obj -28 447 s g.r;
#X obj -13 473 b;
#X obj -13 494 s gsharp.r;
#X obj 1 519 b;
#X obj 15 560 b;
#X obj 15 581 s asharp.r;
#X obj 1 540 s a.r;
#X obj 29 602 b;
#X obj 29 623 s b.r;
#X obj -127 43 sel 0 1 2 3 4 5 6 7 8 9 10 11;
#X obj -127 20 r retro-markov1;
#X obj 107 96 r tatap1-p0;
#X obj 107 141 r tatap1-p1;
#X obj 107 185 r tatap1-p2;
#X obj 107 232 r tatap1-p3;
#X obj 106 276 r tatap1-p4;
#X obj 106 322 r tatap1-p5;
#X obj 106 365 r tatap1-p6;
#X obj 106 409 r tatap1-p7;
#X obj 106 456 r tatap1-p8;
#X obj 106 502 r tatap1-p9;
#X obj 106 543 r tatap1-p10;
#X obj 106 585 r tatap1-p11;
#X text 214 31 on reçoit les notes de markov pour le rétro éclairage
lorsque le mode jeu est enclenché.;
#X connect 0 0 1 0;
#X connect 2 0 3 0;
#X connect 4 0 5 0;
#X connect 6 0 7 0;
#X connect 8 0 10 0;
#X connect 9 0 11 0;
#X connect 12 0 13 0;
#X connect 14 0 15 0;
#X connect 16 0 17 0;
#X connect 18 0 21 0;
#X connect 19 0 20 0;
#X connect 22 0 23 0;
#X connect 24 0 0 0;
#X connect 24 1 2 0;
#X connect 24 2 4 0;
#X connect 24 3 6 0;
#X connect 24 4 8 0;
#X connect 24 5 9 0;
#X connect 24 6 12 0;
#X connect 24 7 14 0;
#X connect 24 8 16 0;
#X connect 24 9 18 0;
#X connect 24 10 19 0;
#X connect 24 11 22 0;
#X connect 25 0 24 0;
#X connect 26 0 0 0;
#X connect 27 0 2 0;
#X connect 28 0 4 0;
#X connect 29 0 6 0;
#X connect 30 0 8 0;
#X connect 31 0 9 0;
#X connect 32 0 12 0;
#X connect 33 0 14 0;
#X connect 34 0 16 0;
#X connect 35 0 18 0;
#X connect 36 0 19 0;
#X connect 37 0 22 0;
#X restore -50 54 pd messages-retro-eclairage;
#N canvas 0 0 797 680 mode-loop 0;
#X obj 105 177 b;
#X obj 134 177 b;
#X obj 163 178 b;
#X obj 192 178 b;
#X obj 220 179 b;
#X obj 249 179 b;
#X obj 278 179 b;
#X msg 541 327 clear;
#X obj 305 179 b;
#X obj 334 179 b;
#X obj 363 180 b;
#X obj 392 180 b;
#X obj 420 181 b;
#X obj 541 270 r wordbutton-Reset;
#X obj 552 293 r wordbutton-Synth-reset;
#X obj 123 766 random 3;
#X obj 123 787 * 12;
#X obj 104 845 + 0;
#X obj 104 726 t f b b;
#X obj 567 359 r loop1;
#X obj 456 151 r write1;
#X obj 105 155 spigot;
#X obj 105 3 r c.b;
#X obj 135 24 r csharp.b;
#X obj 163 45 r d.b;
#X obj 193 65 r dsharp.b;
#X obj 218 3 r e.b;
#X obj 247 24 r f.b;
#X obj 275 45 r fsharp.b;
#X obj 305 67 r g.b;
#X obj 334 -1 r gsharp.b;
#X obj 365 25 r a.b;
#X obj 393 49 r asharp.b;
#X obj 423 70 r b.b;
#X obj 135 129 spigot;
#X obj 163 108 spigot;
#X obj 193 87 spigot;
#X obj 217 152 spigot;
#X obj 247 128 spigot;
#X obj 275 107 spigot;
#X obj 305 86 spigot;
#X obj 335 159 spigot;
#X obj 365 135 spigot;
#X obj 393 114 spigot;
#X obj 423 93 spigot;
#X obj 216 743 s b-step1;
#X obj 217 764 s note-step1;
#X obj 4 813 r note-markov1;
#X obj 105 203 c_taptap_arg step 60 sy1p0;
#X obj 105 225 s tatap1-p0;
#X obj 134 271 s tatap1-p1;
#X obj 163 318 s tatap1-p2;
#X obj 192 362 s tatap1-p3;
#X obj 221 407 s tatap1-p4;
#X obj 250 450 s tatap1-p5;
#X obj 277 490 s tatap1-p6;
#X obj 294 530 s tatap1-p7;
#X obj 323 576 s tatap1-p8;
#X obj 351 617 s tatap1-p9;
#X obj 380 658 s tatap1-p10;
#X obj 410 702 s tatap1-p11;
#X obj 104 867 outlet;
#X obj 134 248 c_taptap_arg step 61 sy1p1;
#X obj 163 298 c_taptap_arg step 62 sy1p2;
#X obj 192 342 c_taptap_arg step 63 sy1p3;
#X obj 221 385 c_taptap_arg step 64 sy1p4;
#X obj 251 427 c_taptap_arg step 65 sy1p5;
#X obj 278 470 c_taptap_arg step 66 sy1p6;
#X obj 294 510 c_taptap_arg step 67 sy1p7;
#X obj 323 556 c_taptap_arg step 68 sy1p8;
#X obj 351 596 c_taptap_arg step 69 sy1p9;
#X obj 380 638 c_taptap_arg step 70 sy1p10;
#X obj 410 683 c_taptap_arg step 71 sy1p11;
#X connect 0 0 48 0;
#X connect 1 0 62 0;
#X connect 2 0 63 0;
#X connect 3 0 64 0;
#X connect 4 0 65 0;
#X connect 5 0 66 0;
#X connect 6 0 67 0;
#X connect 7 0 48 0;
#X connect 7 0 62 0;
#X connect 7 0 63 0;
#X connect 7 0 64 0;
#X connect 7 0 65 0;
#X connect 7 0 66 0;
#X connect 7 0 67 0;
#X connect 7 0 68 0;
#X connect 7 0 69 0;
#X connect 7 0 70 0;
#X connect 7 0 71 0;
#X connect 7 0 72 0;
#X connect 8 0 68 0;
#X connect 9 0 69 0;
#X connect 10 0 70 0;
#X connect 11 0 71 0;
#X connect 12 0 72 0;
#X connect 13 0 7 0;
#X connect 14 0 7 0;
#X connect 15 0 16 0;
#X connect 16 0 17 1;
#X connect 17 0 61 0;
#X connect 18 0 17 0;
#X connect 18 0 46 0;
#X connect 18 1 15 0;
#X connect 18 2 45 0;
#X connect 19 0 48 2;
#X connect 19 0 62 2;
#X connect 19 0 63 2;
#X connect 19 0 64 2;
#X connect 19 0 65 2;
#X connect 19 0 66 2;
#X connect 19 0 67 2;
#X connect 19 0 68 2;
#X connect 19 0 69 2;
#X connect 19 0 70 2;
#X connect 19 0 71 2;
#X connect 19 0 72 2;
#X connect 20 0 44 1;
#X connect 20 0 43 1;
#X connect 20 0 42 1;
#X connect 20 0 41 1;
#X connect 20 0 40 1;
#X connect 20 0 39 1;
#X connect 20 0 38 1;
#X connect 20 0 37 1;
#X connect 20 0 36 1;
#X connect 20 0 35 1;
#X connect 20 0 34 1;
#X connect 20 0 21 1;
#X connect 21 0 0 0;
#X connect 22 0 21 0;
#X connect 23 0 34 0;
#X connect 24 0 35 0;
#X connect 25 0 36 0;
#X connect 26 0 37 0;
#X connect 27 0 38 0;
#X connect 28 0 39 0;
#X connect 29 0 40 0;
#X connect 30 0 41 0;
#X connect 31 0 42 0;
#X connect 32 0 43 0;
#X connect 33 0 44 0;
#X connect 34 0 1 0;
#X connect 35 0 2 0;
#X connect 36 0 3 0;
#X connect 37 0 4 0;
#X connect 38 0 5 0;
#X connect 39 0 6 0;
#X connect 40 0 8 0;
#X connect 41 0 9 0;
#X connect 42 0 10 0;
#X connect 43 0 11 0;
#X connect 44 0 12 0;
#X connect 47 0 17 0;
#X connect 48 0 18 0;
#X connect 48 0 49 0;
#X connect 62 0 18 0;
#X connect 62 0 50 0;
#X connect 63 0 18 0;
#X connect 63 0 51 0;
#X connect 64 0 18 0;
#X connect 64 0 52 0;
#X connect 65 0 18 0;
#X connect 65 0 53 0;
#X connect 66 0 18 0;
#X connect 66 0 54 0;
#X connect 67 0 18 0;
#X connect 67 0 55 0;
#X connect 68 0 18 0;
#X connect 68 0 56 0;
#X connect 69 0 18 0;
#X connect 69 0 57 0;
#X connect 70 0 18 0;
#X connect 70 0 58 0;
#X connect 71 0 18 0;
#X connect 71 0 59 0;
#X connect 72 0 18 0;
#X connect 72 0 60 0;
#X restore 46 115 pd mode-loop;
#X connect 0 0 11 0;
#X connect 1 0 0 1;
#X connect 2 0 0 2;
#X connect 3 0 0 4;
#X connect 4 0 11 0;
#X connect 5 0 4 1;
#X connect 6 0 14 0;
#X connect 7 0 6 0;
#X connect 8 0 7 0;
#X connect 8 1 6 1;
#X connect 12 0 11 0;
#X connect 13 0 12 1;
#X connect 14 0 0 0;
#X connect 14 1 4 0;
#X connect 14 2 12 0;
#X connect 14 3 12 0;
#X connect 14 4 12 0;
#X connect 14 5 12 0;
#X connect 14 6 12 0;
#X connect 14 7 12 0;
#X connect 14 8 12 0;
#X connect 14 9 12 0;
#X connect 14 10 12 0;
#X connect 14 11 12 0;
#X connect 15 0 18 0;
#X connect 15 1 19 0;
#X connect 15 2 20 0;
#X connect 15 3 21 0;
#X connect 15 4 22 0;
#X connect 15 5 23 0;
#X connect 15 6 24 0;
#X connect 15 7 25 0;
#X connect 15 8 26 0;
#X connect 15 9 27 0;
#X connect 15 10 28 0;
#X connect 15 11 29 0;
#X connect 16 0 17 0;
#X connect 17 0 15 0;
#X connect 18 0 30 0;
#X connect 19 0 30 0;
#X connect 20 0 30 0;
#X connect 21 0 30 0;
#X connect 22 0 30 0;
#X connect 23 0 30 0;
#X connect 24 0 30 0;
#X connect 25 0 30 0;
#X connect 26 0 30 0;
#X connect 27 0 30 0;
#X connect 28 0 30 0;
#X connect 29 0 30 0;
#X connect 30 0 7 1;
#X connect 30 0 12 2;
#X connect 31 0 0 3;
#X connect 32 0 8 0;
#X connect 32 0 34 0;
#X connect 33 0 32 0;
#X connect 37 0 8 0;
#X restore 130 -77 pd synth-page;
#N canvas 0 0 450 300 soundbanks 0;
#X obj 113 -158 r soundpack;
#X msg 113 -131 symbol \$1;
#X msg 111 -79 0;
#X msg 144 -79 1;
#X msg 176 -77 2;
#N canvas 617 0 625 648 soundbanks 0;
#X msg -160 153 read -resize 44857_stomachache_crashbrushtap.wav Sample4
;
#X obj -184 616 soundfiler;
#X obj -184 43 r init;
#X msg -118 243 read -resize 14519_blaster78_revkickbuzz1.wav Sample4
;
#X msg -140 186 read -resize 14518_blaster78_quietglitch1.wav Sample1
;
#X msg -133 205 read -resize 14510_blaster78_clapchord1.wav Sample2
;
#X msg -125 224 read -resize 14515_blaster78_kickclapchord1.wav Sample3
;
#X obj -134 19 inlet;
#X msg 18 459 read -resize 22738_FranciscoPadilla_35_Bass_Drum_BasketBall.wav
Sample1;
#X msg 27 491 read -resize 22740_FranciscoPadilla_37_Click_Finger.wav
Sample2;
#X msg 36 523 read -resize 22745_FranciscoPadilla_42_Closed_High_Hat.wav
Sample3;
#X msg 44 555 read -resize 22755_FranciscoPadilla_52_Chinese_Cymbal.wav
Sample4;
#X msg -38 360 read -resize 22772_FranciscoPadilla_69_Cabasa.wav Sample1
;
#X msg -32 379 read -resize 22773_FranciscoPadilla_70_Maracas.wav Sample2
;
#X msg -24 398 read -resize 22778_FranciscoPadilla_75_Claves.wav Sample3
;
#X obj -134 40 sel 0 1 2 3 4;
#X msg -88 274 read -resize 5983_user_56891b_drum52.wav Sample1;
#X msg -65 331 read -resize 5976_user_56891b_drum42.wav Sample4;
#X msg -73 312 read -resize 5986_user_56891b_drum65.wav Sample3;
#X msg -80 293 read -resize 5987_user_56891b_drum70.wav Sample2;
#X msg -15 417 read -resize 22784_FranciscoPadilla_81_Open_Triagle.wav
Sample4;
#X msg -184 83 read -resize 44855_stomachache_bd2.wav Sample1;
#X msg -177 102 read -resize 44859_stomachache_hihatbrushtight2.wav
Sample2;
#X msg -169 121 read -resize 44867_stomachache_snarebrushlighttap.wav
Sample3;
#X connect 0 0 1 0;
#X connect 2 0 21 0;
#X connect 2 0 22 0;
#X connect 2 0 23 0;
#X connect 2 0 0 0;
#X connect 3 0 1 0;
#X connect 4 0 1 0;
#X connect 5 0 1 0;
#X connect 6 0 1 0;
#X connect 7 0 15 0;
#X connect 8 0 1 0;
#X connect 9 0 1 0;
#X connect 10 0 1 0;
#X connect 11 0 1 0;
#X connect 12 0 1 0;
#X connect 13 0 1 0;
#X connect 14 0 1 0;
#X connect 15 0 21 0;
#X connect 15 0 22 0;
#X connect 15 0 23 0;
#X connect 15 0 0 0;
#X connect 15 1 4 0;
#X connect 15 1 5 0;
#X connect 15 1 6 0;
#X connect 15 1 3 0;
#X connect 15 2 16 0;
#X connect 15 2 19 0;
#X connect 15 2 18 0;
#X connect 15 2 17 0;
#X connect 15 3 12 0;
#X connect 15 3 13 0;
#X connect 15 3 14 0;
#X connect 15 3 20 0;
#X connect 15 4 8 0;
#X connect 15 4 9 0;
#X connect 15 4 10 0;
#X connect 15 4 11 0;
#X connect 16 0 1 0;
#X connect 17 0 1 0;
#X connect 18 0 1 0;
#X connect 19 0 1 0;
#X connect 20 0 1 0;
#X connect 21 0 1 0;
#X connect 22 0 1 0;
#X connect 23 0 1 0;
#X restore 144 -3 pd soundbanks;
#X msg 208 -77 3;
#X msg 241 -77 4;
#X obj 113 -105 sel SB1 SB2 SB3 SB4 SB5;
#X connect 0 0 1 0;
#X connect 1 0 8 0;
#X connect 2 0 5 0;
#X connect 3 0 5 0;
#X connect 4 0 5 0;
#X connect 6 0 5 0;
#X connect 7 0 5 0;
#X connect 8 0 2 0;
#X connect 8 1 3 0;
#X connect 8 2 4 0;
#X connect 8 3 6 0;
#X connect 8 4 7 0;
#X restore 33 -133 pd soundbanks;
#N canvas 683 1 667 369 synth-page2 0;
#X obj -349 289 outlet~;
#X msg -218 19 symbol \$1;
#X msg -218 69 0;
#X msg -197 90 1;
#X msg -175 111 2;
#X msg -154 132 3;
#X msg -132 70 4;
#X msg -111 91 5;
#X msg -89 112 6;
#X obj -218 224 t f;
#X obj -218 -6 r synth1preset;
#X obj -347 189 t f b;
#N canvas 0 0 1366 696 rj_chip_synth 0;
#X obj 121 154 r \$0-control;
#X obj 366 347 s \$0-GUI;
#X obj 21 454 outlet~;
#X obj 27 -126 inlet;
#X obj 64 -126 inlet;
#N canvas 612 69 473 495 \$0-Gui 0;
#X obj -22 5 r \$0-GUI;
#X obj -22 473 s \$0-control;
#X obj -22 23 g_synthcontrol;
#X obj -22 3 cnv 15 200 20 empty empty Rj_Chip 2 10 0 14 -86853 -262144
0;
#X connect 0 0 2 0;
#X connect 2 0 1 0;
#X restore 686 -56 pd \$0-Gui;
#X obj 383 -34 inlet;
#X obj 26 -22 poly 4 1;
#X obj 27 2 pack f f f;
#X obj 28 25 route 1 2 3 4;
#X obj 27 -47 makenote;
#X obj 80 -72 r notetime;
#N canvas 0 0 990 677 czz_presets 0;
#X obj 91 26 inlet;
#X obj 91 50 sel 0 1 2 3 4 5 6 7 8;
#X obj 83 653 outlet name;
#X obj 83 630 symbol;
#X obj 166 652 outlet parms;
#X obj 83 582 route name;
#X msg 57 187 name FB-String-Brass1 \, mod3d 0.165354 \, mod3c 0.181102
\, mod3b 0.173228 \, mod3a 0.275591 \, mod2d 0.141732 \, mod2c 0.393701
\, mod2b 0.220472 \, mod2a 0.472441 \, mod1d 0.299213 \, mod1c 0.125984
\, mod1b 0.19685 \, mod1a 0.133858 \, osc3d 0.314961 \, osc3c 0.220472
\, osc3b 0.527559 \, osc3a 0.409449 \, osc2d 0.559055 \, osc2c 0.645669
\, osc2b 0.543307 \, osc2a 0.377953 \, osc1d 0.377953 \, osc1c 0.307087
\, osc1b 0.614173 \, osc1a 0.866142 \, env3r 0.133858 \, env3s 0.15748
\, env3d 0.314961 \, env3a 0.259843 \, env2r 0.637795 \, env2s 0.401575
\, env2d 0.338583 \, env2a 0.299213 \, env1r 0.149606 \, env1s 0.110236
\, env1d 0.0551181 \, env1a 0.0551181 \,;
#X msg 57 172 name Gentle-Sync \, mod3d 0.165354 \, mod3c 0.181102
\, mod3b 0.173228 \, mod3a 0.275591 \, mod2d 0.141732 \, mod2c 0.393701
\, mod2b 0.220472 \, mod2a 0.472441 \, mod1d 0.574803 \, mod1c 0.669291
\, mod1b 0.511811 \, mod1a 0.133858 \, osc3d 0.314961 \, osc3c 0.220472
\, osc3b 0.527559 \, osc3a 0.409449 \, osc2d 0.559055 \, osc2c 0.645669
\, osc2b 0.543307 \, osc2a 0.377953 \, osc1d 0.503937 \, osc1c 0.905512
\, osc1b 0.0629921 \, osc1a 0.401575 \, env3r 0.133858 \, env3s 0.15748
\, env3d 0.314961 \, env3a 0.259843 \, env2r 0.0866142 \, env2s 0.0866142
\, env2d 0.251969 \, env2a 0.141732 \, env1r 0.149606 \, env1s 0.110236
\, env1d 0.952756 \, env1a 0 \,;
#X msg 59 205 name RoughSync-Bass \, mod3d 0.165354 \, mod3c 0.181102
\, mod3b 0.173228 \, mod3a 0.275591 \, mod2d 0.141732 \, mod2c 0.393701
\, mod2b 0.220472 \, mod2a 0.472441 \, mod1d 0.574803 \, mod1c 0.669291
\, mod1b 0.511811 \, mod1a 0.133858 \, osc3d 0.314961 \, osc3c 0.220472
\, osc3b 0.527559 \, osc3a 0.409449 \, osc2d 0.559055 \, osc2c 0.645669
\, osc2b 0.543307 \, osc2a 0.377953 \, osc1d 0.503937 \, osc1c 0.905512
\, osc1b 0.0629921 \, osc1a 0.401575 \, env3r 0.0472441 \, env3s 0.0629921
\, env3d 0.0551181 \, env3a 0.0015748 \, env2r 0.0866142 \, env2s 0.0866142
\, env2d 0.181102 \, env2a 0.0472441 \, env1r 0.149606 \, env1s 0.110236
\, env1d 0.11811 \, env1a 0 \,;
#X msg 59 220 name Thin-Short-Bass \, mod3d 0.559055 \, mod3c 0.181102
\, mod3b 0.173228 \, mod3a 0.275591 \, mod2d 0.141732 \, mod2c 0.393701
\, mod2b 0.220472 \, mod2a 0.472441 \, mod1d 0.574803 \, mod1c 0.669291
\, mod1b 0.0708661 \, mod1a 0.409449 \, osc3d 0.314961 \, osc3c 0.220472
\, osc3b 0.527559 \, osc3a 0.409449 \, osc2d 0.559055 \, osc2c 0.645669
\, osc2b 0.543307 \, osc2a 0.377953 \, osc1d 0.015748 \, osc1c 0 \,
osc1b 0 \, osc1a 0 \, env3r 0.0472441 \, env3s 0.0393701 \, env3d 0.0551181
\, env3a 0.0015748 \, env2r 0.0866142 \, env2s 0.0866142 \, env2d 0.0866142
\, env2a 0.0472441 \, env1r 0.149606 \, env1s 0.0629921 \, env1d 0.0787402
\, env1a 0 \,;
#X msg 57 236 name Full-Square-Lead \, mod3d 0.251969 \, mod3c 0.181102
\, mod3b 0.173228 \, mod3a 0.275591 \, mod2d 0.141732 \, mod2c 0.393701
\, mod2b 0.220472 \, mod2a 0.472441 \, mod1d 0 \, mod1c 0 \, mod1b
0 \, mod1a 1 \, osc3d 0.314961 \, osc3c 0.220472 \, osc3b 0.527559
\, osc3a 0.409449 \, osc2d 0.559055 \, osc2c 0.645669 \, osc2b 0.543307
\, osc2a 0.377953 \, osc1d 0.440945 \, osc1c 0 \, osc1b 0 \, osc1a
0 \, env3r 0.023622 \, env3s 0.527559 \, env3d 0.0551181 \, env3a 0.00944882
\, env2r 0.0393701 \, env2s 0.637795 \, env2d 0.0866142 \, env2a 0.0472441
\, env1r 0.0314961 \, env1s 0.708661 \, env1d 0.0787402 \, env1a 0.19685
\,;
#X msg 58 253 name Dull-Brass \, mod3d 0.251969 \, mod3c 0.181102 \,
mod3b 0.173228 \, mod3a 0.275591 \, mod2d 0.141732 \, mod2c 0.393701
\, mod2b 0.220472 \, mod2a 0.472441 \, mod1d 0 \, mod1c 0 \, mod1b
0 \, mod1a 0.188976 \, osc3d 0.251969 \, osc3c 0.220472 \, osc3b 0.527559
\, osc3a 0.409449 \, osc2d 0.559055 \, osc2c 0.645669 \, osc2b 0.543307
\, osc2a 0.377953 \, osc1d 0.952756 \, osc1c 0 \, osc1b 0 \, osc1a
0.440945 \, env3r 0.00787402 \, env3s 0.0866142 \, env3d 0.0944882
\, env3a 0.0330709 \, env2r 0.0393701 \, env2s 0.102362 \, env2d 0.23622
\, env2a 0.645669 \, env1r 0.0708661 \, env1s 0.0866142 \, env1d 0.0472441
\, env1a 0.0551181 \,;
#X msg 59 268 name Slow-Hollow \, mod3d 0.212598 \, mod3c 0.181102
\, mod3b 0.173228 \, mod3a 0.275591 \, mod2d 0.141732 \, mod2c 0.393701
\, mod2b 0.220472 \, mod2a 0.472441 \, mod1d 0.0314961 \, mod1c 0.0314961
\, mod1b 0.220472 \, mod1a 0.866142 \, osc3d 0.251969 \, osc3c 0.220472
\, osc3b 0.527559 \, osc3a 0.409449 \, osc2d 0.19685 \, osc2c 0.228346
\, osc2b 0.165354 \, osc2a 0.0944882 \, osc1d 0.440945 \, osc1c 0.0629921
\, osc1b 0.511811 \, osc1a 0.0866142 \, env3r 0.125984 \, env3s 0.244094
\, env3d 0.354331 \, env3a 0.655118 \, env2r 0.0787402 \, env2s 0.692913
\, env2d 0.291339 \, env2a 0.393701 \, env1r 0.133858 \, env1s 0.519685
\, env1d 0.448819 \, env1a 0.771654 \,;
#X msg 58 282 name Slow-Thin \, mod3d 0.212598 \, mod3c 0.181102 \,
mod3b 0.173228 \, mod3a 0.275591 \, mod2d 0.141732 \, mod2c 0.393701
\, mod2b 0.220472 \, mod2a 0.472441 \, mod1d 0 \, mod1c 0 \, mod1b
0.748031 \, mod1a 0.716535 \, osc3d 0.251969 \, osc3c 0.220472 \, osc3b
0.527559 \, osc3a 0.409449 \, osc2d 0.19685 \, osc2c 0.228346 \, osc2b
0.165354 \, osc2a 0.0944882 \, osc1d 0.0708661 \, osc1c 0.125984 \,
osc1b 0.346457 \, osc1a 0.0866142 \, env3r 0.125984 \, env3s 0.244094
\, env3d 0.354331 \, env3a 0.749606 \, env2r 0.0393701 \, env2s 0.440945
\, env2d 0.141732 \, env2a 0.0314961 \, env1r 0.133858 \, env1s 0.212598
\, env1d 0.125984 \, env1a 0.0629921 \,;
#X obj 483 146 loadbang;
#X msg 483 175 env1a color 128 \, env1a label TONE-ATTACK \, env1d
color 128 \, env1d label TONE-DECAY \, env1r color 128 \, env1r label
TONE-REL \, env1s color 128 \, env1s label TONE-SUS \, env2a color
128 \, env2a label WIDTH-ATTACK \, env2d color 128 \, env2d label WIDTH-DECAY
\, env2r color 128 \, env2r label WIDTH-REL \, env2s color 128 \, env2s
label WIDTH-SUS \, env3a color 128 \, env3a label AMP-ATTACK \, env3d
color 128 \, env3d label AMP-DECAY \, env3r color 128 \, env3r label
AMP-REL \, env3s color 128 \, env3s label AMP-SUS \, mod1a color 128
\, mod1a label FILTER-AMT \, mod1b color 128 \, mod1b label DETUNE
\, mod1c color 128 \, mod1c label SYNC-AMT \, mod1d color 2 \, mod2a
color 2 \, mod2b color 2 \, mod2c color 2 \, mod2d color 2 \, mod3a
color 2 \, mod3b color 2 \, mod3c color 2 \, mod3d color 128 \, mod3d
label VOLME \, osc1a color 128 \, osc1a label OSC1-PW \, osc1b color
128 \, osc1b label OSC2-PW \, osc1c color 128 \, osc1c label OSC1-PWM
osc1d color 128 \, osc1d label OSC2-PWM \, osc2a color 2 \, osc2b color
2 \, osc2c color 2 \, osc2d color 2 \, osc3a color 2 \, osc3b color
2 \, osc3c color 2 \, osc3d color 2 \,;
#X text 481 92 set up the interface to be human readable and show which
controls are actually used;
#X text 483 122 Requires modified [g-hsl];
#X msg 60 299 name BASSIC \, mod3d 0.212598 \, mod3c 0.181102 \, mod3b
0.173228 \, mod3a 0.275591 \, mod2d 0.141732 \, mod2c 0.393701 \, mod2b
0.220472 \, mod2a 0.472441 \, mod1d 0 \, mod1c 0 \, mod1b 0.0314961
\, mod1a 0.0629921 \, osc3d 0.251969 \, osc3c 0.220472 \, osc3b 0.527559
\, osc3a 0.409449 \, osc2d 0.19685 \, osc2c 0.228346 \, osc2b 0.165354
\, osc2a 0.0944882 \, osc1d 0.566929 \, osc1c 0.0708661 \, osc1b 0.92126
\, osc1a 0.0551181 \, env3r 0.00787402 \, env3s 0 \, env3d 0.133858
\, env3a 0.00023622 \, env2r 0.0393701 \, env2s 0.440945 \, env2d 0.661417
\, env2a 0.314961 \, env1r 0.133858 \, env1s 0.724409 \, env1d 0.015748
\, env1a 0.669291 \,;
#X connect 0 0 1 0;
#X connect 1 0 6 0;
#X connect 1 1 7 0;
#X connect 1 2 8 0;
#X connect 1 3 9 0;
#X connect 1 4 10 0;
#X connect 1 5 11 0;
#X connect 1 6 12 0;
#X connect 1 7 13 0;
#X connect 1 8 18 0;
#X connect 3 0 2 0;
#X connect 5 0 3 0;
#X connect 5 1 4 0;
#X connect 6 0 5 0;
#X connect 7 0 5 0;
#X connect 8 0 5 0;
#X connect 9 0 5 0;
#X connect 10 0 5 0;
#X connect 11 0 5 0;
#X connect 12 0 5 0;
#X connect 13 0 5 0;
#X connect 14 0 15 0;
#X connect 15 0 4 0;
#X connect 18 0 5 0;
#X restore 484 281 pd czz_presets;
#X obj 12 258 s_czz \$0-TAG;
#X obj 42 278 s_czz \$0-TAG1;
#X obj 62 297 s_czz \$0-TAG2;
#X obj 84 323 s_czz \$0-TAG3;
#X obj 24 393 *~ 0.8;
#X obj 18 424 tanh~;
#X connect 0 0 13 1;
#X connect 0 0 14 1;
#X connect 0 0 15 1;
#X connect 0 0 16 1;
#X connect 3 0 10 0;
#X connect 4 0 10 1;
#X connect 6 0 12 0;
#X connect 7 0 8 0;
#X connect 7 1 8 1;
#X connect 7 2 8 2;
#X connect 8 0 9 0;
#X connect 9 0 13 0;
#X connect 9 1 14 0;
#X connect 9 2 15 0;
#X connect 9 3 16 0;
#X connect 10 0 7 0;
#X connect 10 1 7 1;
#X connect 11 0 10 2;
#X connect 12 1 1 0;
#X connect 13 0 17 0;
#X connect 14 0 17 0;
#X connect 15 0 17 0;
#X connect 16 0 17 0;
#X connect 17 0 18 0;
#X connect 18 0 2 0;
#X restore -347 241 pd rj_chip_synth;
#X obj -218 41 sel P1 P2 P3 P4 P5 P6 P7 P8 P9 P10 P11 P12 P13 P14 P15
P16;
#X msg -68 131 7;
#X msg -46 73 8;
#X msg -24 94 9;
#X msg -3 115 10;
#X msg 19 135 11;
#X msg 40 70 12;
#X msg 62 90 13;
#X msg 83 111 14;
#X msg 105 132 15;
#X msg -320 216 100;
#N canvas 0 0 746 536 mode-piano 0;
#X obj 178 309 b;
#X obj 207 309 b;
#X obj 236 310 b;
#X obj 265 310 b;
#X obj 293 311 b;
#X obj 322 311 b;
#X obj 351 311 b;
#X obj 378 311 b;
#X obj 407 311 b;
#X obj 436 312 b;
#X obj 465 312 b;
#X obj 493 313 b;
#X obj 177 267 spigot;
#X obj 207 241 spigot;
#X obj 235 221 spigot;
#X obj 265 199 spigot;
#X obj 289 264 spigot;
#X obj 319 240 spigot;
#X obj 347 219 spigot;
#X obj 377 198 spigot;
#X obj 407 271 spigot;
#X obj 437 247 spigot;
#X obj 465 226 spigot;
#X obj 495 205 spigot;
#X obj 530 269 r playback2;
#X msg 179 333 60;
#X msg 210 333 61;
#X msg 239 332 62;
#X msg 266 332 63;
#X msg 294 332 64;
#X msg 323 333 65;
#X msg 352 332 66;
#X msg 383 332 67;
#X msg 412 331 68;
#X msg 439 331 69;
#X msg 467 331 70;
#X msg 496 332 71;
#X obj 407 32 r gsharp-1.b;
#X obj 437 59 r a-1.b;
#X obj 465 82 r asharp-1.b;
#X obj 495 116 r b-1.b;
#X obj 177 33 r c-1.b;
#X obj 207 53 r csharp-1.b;
#X obj 235 76 r d-1.b;
#X obj 265 98 r dsharp-1.b;
#X obj 289 36 r e-1.b;
#X obj 319 57 r f-1.b;
#X obj 347 78 r fsharp-1.b;
#X obj 377 100 r g-1.b;
#X obj 323 412 outlet;
#X connect 0 0 25 0;
#X connect 1 0 26 0;
#X connect 2 0 27 0;
#X connect 3 0 28 0;
#X connect 4 0 29 0;
#X connect 5 0 30 0;
#X connect 6 0 31 0;
#X connect 7 0 32 0;
#X connect 8 0 33 0;
#X connect 9 0 34 0;
#X connect 10 0 35 0;
#X connect 11 0 36 0;
#X connect 12 0 0 0;
#X connect 13 0 1 0;
#X connect 14 0 2 0;
#X connect 15 0 3 0;
#X connect 16 0 4 0;
#X connect 17 0 5 0;
#X connect 18 0 6 0;
#X connect 19 0 7 0;
#X connect 20 0 8 0;
#X connect 21 0 9 0;
#X connect 22 0 10 0;
#X connect 23 0 11 0;
#X connect 24 0 23 1;
#X connect 24 0 22 1;
#X connect 24 0 21 1;
#X connect 24 0 20 1;
#X connect 24 0 19 1;
#X connect 24 0 18 1;
#X connect 24 0 17 1;
#X connect 24 0 16 1;
#X connect 24 0 15 1;
#X connect 24 0 14 1;
#X connect 24 0 13 1;
#X connect 24 0 12 1;
#X connect 25 0 49 0;
#X connect 26 0 49 0;
#X connect 27 0 49 0;
#X connect 28 0 49 0;
#X connect 29 0 49 0;
#X connect 30 0 49 0;
#X connect 31 0 49 0;
#X connect 32 0 49 0;
#X connect 33 0 49 0;
#X connect 34 0 49 0;
#X connect 35 0 49 0;
#X connect 36 0 49 0;
#X connect 37 0 20 0;
#X connect 38 0 21 0;
#X connect 39 0 22 0;
#X connect 40 0 23 0;
#X connect 41 0 12 0;
#X connect 42 0 13 0;
#X connect 43 0 14 0;
#X connect 44 0 15 0;
#X connect 45 0 16 0;
#X connect 46 0 17 0;
#X connect 47 0 18 0;
#X connect 48 0 19 0;
#X restore -444 103 pd mode-piano;
#N canvas 0 0 1015 680 mode-loop 0;
#X obj 135 305 b;
#X obj 164 305 b;
#X obj 193 306 b;
#X obj 222 306 b;
#X obj 250 307 b;
#X obj 279 307 b;
#X obj 308 307 b;
#X msg 481 423 clear;
#X obj 335 307 b;
#X obj 364 307 b;
#X obj 393 308 b;
#X obj 422 308 b;
#X obj 450 309 b;
#X obj 481 366 r wordbutton-Reset;
#X obj 492 389 r wordbutton-Synth1-reset;
#X obj 154 891 random 3;
#X obj 154 912 * 12;
#X obj 135 934 + 0;
#X obj 134 854 t f b b;
#X obj 573 503 r loop2;
#X obj 134 263 spigot;
#X obj 164 237 spigot;
#X obj 192 217 spigot;
#X obj 222 195 spigot;
#X obj 246 260 spigot;
#X obj 276 236 spigot;
#X obj 304 215 spigot;
#X obj 334 194 spigot;
#X obj 364 267 spigot;
#X obj 394 243 spigot;
#X obj 422 222 spigot;
#X obj 452 201 spigot;
#X obj 366 71 r gsharp-1.b;
#X obj 394 98 r a-1.b;
#X obj 422 122 r asharp-1.b;
#X obj 452 176 r b-1.b;
#X obj 485 249 r write2;
#X obj 134 75 r c-1.b;
#X obj 164 94 r csharp-1.b;
#X obj 192 115 r d-1.b;
#X obj 222 137 r dsharp-1.b;
#X obj 246 75 r e-1.b;
#X obj 276 96 r f-1.b;
#X obj 304 117 r fsharp-1.b;
#X obj 334 139 r g-1.b;
#X obj 135 354 s tatap2-p0;
#X obj 164 395 s tatap2-p1;
#X obj 194 446 s tatap2-p2;
#X obj 222 489 s tatap2-p3;
#X obj 251 533 s tatap2-p4;
#X obj 280 574 s tatap2-p5;
#X obj 307 618 s tatap2-p6;
#X obj 323 659 s tatap2-p7;
#X obj 352 704 s tatap2-p8;
#X obj 381 744 s tatap2-p9;
#X obj 411 787 s tatap2-p10;
#X obj 439 833 s tatap2-p11;
#X obj 252 871 s b-step2;
#X obj 252 892 s note-step2;
#X obj 151 953 r note-makov2;
#X obj 135 995 outlet;
#X obj 135 331 c_taptap_arg step 60 sy2p1;
#X obj 163 375 c_taptap_arg step 61 sy2p2;
#X obj 193 426 c_taptap_arg step 62 sy2p3;
#X obj 222 470 c_taptap_arg step 63 sy2p4;
#X obj 251 513 c_taptap_arg step 64 sy2p5;
#X obj 281 554 c_taptap_arg step 65 sy2p6;
#X obj 308 598 c_taptap_arg step 66 sy2p7;
#X obj 324 638 c_taptap_arg step 67 sy2p8;
#X obj 353 684 c_taptap_arg step 68 sy2p9;
#X obj 381 724 c_taptap_arg step 69 sy2p10;
#X obj 410 766 c_taptap_arg step 70 sy2p11;
#X obj 439 811 c_taptap_arg step 71 sy2p12;
#X connect 0 0 61 0;
#X connect 1 0 62 0;
#X connect 2 0 63 0;
#X connect 3 0 64 0;
#X connect 4 0 65 0;
#X connect 5 0 66 0;
#X connect 6 0 67 0;
#X connect 7 0 61 0;
#X connect 7 0 62 0;
#X connect 7 0 63 0;
#X connect 7 0 64 0;
#X connect 7 0 65 0;
#X connect 7 0 66 0;
#X connect 7 0 67 0;
#X connect 7 0 68 0;
#X connect 7 0 69 0;
#X connect 7 0 70 0;
#X connect 7 0 71 0;
#X connect 7 0 72 0;
#X connect 8 0 68 0;
#X connect 9 0 69 0;
#X connect 10 0 70 0;
#X connect 11 0 71 0;
#X connect 12 0 72 0;
#X connect 13 0 7 0;
#X connect 14 0 7 0;
#X connect 15 0 16 0;
#X connect 16 0 17 1;
#X connect 17 0 60 0;
#X connect 18 0 17 0;
#X connect 18 0 58 0;
#X connect 18 1 15 0;
#X connect 18 2 57 0;
#X connect 19 0 61 2;
#X connect 19 0 62 2;
#X connect 19 0 63 2;
#X connect 19 0 64 2;
#X connect 19 0 65 2;
#X connect 19 0 66 2;
#X connect 19 0 67 2;
#X connect 19 0 68 2;
#X connect 19 0 69 2;
#X connect 19 0 70 2;
#X connect 19 0 71 2;
#X connect 19 0 72 2;
#X connect 20 0 0 0;
#X connect 21 0 1 0;
#X connect 22 0 2 0;
#X connect 23 0 3 0;
#X connect 24 0 4 0;
#X connect 25 0 5 0;
#X connect 26 0 6 0;
#X connect 27 0 8 0;
#X connect 28 0 9 0;
#X connect 29 0 10 0;
#X connect 30 0 11 0;
#X connect 31 0 12 0;
#X connect 32 0 28 0;
#X connect 33 0 29 0;
#X connect 34 0 30 0;
#X connect 35 0 31 0;
#X connect 36 0 31 1;
#X connect 36 0 30 1;
#X connect 36 0 29 1;
#X connect 36 0 28 1;
#X connect 36 0 27 1;
#X connect 36 0 26 1;
#X connect 36 0 25 1;
#X connect 36 0 24 1;
#X connect 36 0 23 1;
#X connect 36 0 22 1;
#X connect 36 0 21 1;
#X connect 36 0 20 1;
#X connect 37 0 20 0;
#X connect 38 0 21 0;
#X connect 39 0 22 0;
#X connect 40 0 23 0;
#X connect 41 0 24 0;
#X connect 42 0 25 0;
#X connect 43 0 26 0;
#X connect 44 0 27 0;
#X connect 59 0 60 0;
#X connect 61 0 18 0;
#X connect 61 0 45 0;
#X connect 62 0 18 0;
#X connect 62 0 46 0;
#X connect 63 0 18 0;
#X connect 63 0 47 0;
#X connect 64 0 18 0;
#X connect 64 0 48 0;
#X connect 65 0 18 0;
#X connect 65 0 49 0;
#X connect 66 0 18 0;
#X connect 66 0 50 0;
#X connect 67 0 18 0;
#X connect 67 0 51 0;
#X connect 68 0 18 0;
#X connect 68 0 52 0;
#X connect 69 0 18 0;
#X connect 69 0 53 0;
#X connect 70 0 18 0;
#X connect 70 0 54 0;
#X connect 71 0 18 0;
#X connect 71 0 55 0;
#X connect 72 0 18 0;
#X connect 72 0 56 0;
#X restore -347 103 pd mode-loop;
#N canvas 0 0 550 630 messages-retro-eclairage 0;
#X obj -224 41 b;
#X obj -210 88 b;
#X obj -196 134 b;
#X obj -182 178 b;
#X obj -168 222 b;
#X obj -153 265 b;
#X obj -139 309 b;
#X obj -125 351 b;
#X obj -110 393 b;
#X obj -96 438 b;
#X obj -82 484 b;
#X obj -68 535 b;
#X obj -224 62 s c-1.r;
#X obj -210 109 s csharp-1.r;
#X obj -196 155 s d-1.r;
#X obj -182 199 s dsharp-1.r;
#X obj -168 243 s e-1.r;
#X obj -153 286 s f-1.r;
#X obj -139 330 s fsharp-1.r;
#X obj -125 372 s g-1.r;
#X obj -110 414 s gsharp-1.r;
#X obj -96 459 s a-1.r;
#X obj -68 556 s b-1.r;
#X obj -82 505 s asharp-1.r;
#X obj -224 6 sel 0 1 2 3 4 5 6 7 8 9 10 11;
#X obj -224 -19 r retro-markov2;
#X obj 27 24 r tatap2-p0;
#X obj 27 71 r tatap2-p1;
#X obj 27 117 r tatap2-p2;
#X obj 27 161 r tatap2-p3;
#X obj 26 205 r tatap2-p4;
#X obj 26 248 r tatap2-p5;
#X obj 26 292 r tatap2-p6;
#X obj 26 334 r tatap2-p7;
#X obj 26 376 r tatap2-p8;
#X obj 26 421 r tatap2-p9;
#X obj 26 467 r tatap2-p10;
#X obj 26 518 r tatap2-p11;
#X connect 0 0 12 0;
#X connect 1 0 13 0;
#X connect 2 0 14 0;
#X connect 3 0 15 0;
#X connect 4 0 16 0;
#X connect 5 0 17 0;
#X connect 6 0 18 0;
#X connect 7 0 19 0;
#X connect 8 0 20 0;
#X connect 9 0 21 0;
#X connect 10 0 23 0;
#X connect 11 0 22 0;
#X connect 24 0 0 0;
#X connect 24 1 1 0;
#X connect 24 2 2 0;
#X connect 24 3 3 0;
#X connect 24 4 4 0;
#X connect 24 5 5 0;
#X connect 24 6 6 0;
#X connect 24 7 7 0;
#X connect 24 8 8 0;
#X connect 24 9 9 0;
#X connect 24 10 10 0;
#X connect 24 11 11 0;
#X connect 25 0 24 0;
#X connect 26 0 0 0;
#X connect 27 0 1 0;
#X connect 28 0 2 0;
#X connect 29 0 3 0;
#X connect 30 0 4 0;
#X connect 31 0 5 0;
#X connect 32 0 6 0;
#X connect 33 0 7 0;
#X connect 34 0 8 0;
#X connect 35 0 9 0;
#X connect 36 0 10 0;
#X connect 37 0 11 0;
#X restore -445 43 pd messages-retro-eclairage;
#X obj -444 137 t f;
#X obj -444 189 s notes-piano2;
#N canvas 0 0 576 375 markov2 0;
#N canvas 0 0 1349 696 markov-mel 0;
#X obj 180 955 + 0;
#X msg 491 366 0 \, 3 \, 9 \, 8 \, 4 \,;
#X obj 491 323 u_cocollect;
#X msg 515 23 reset;
#X obj 485 529 t b b;
#X obj 443 618 u_cocollect;
#X msg 443 640 11 0 0 0 0 0 0 0 0 0 0 0 0 \, 10 0 0 0 0 0 0 0 0 0 0
0 0 \, 9 0 0 0 0 0 0 0 0 2 0 0 0 \, 8 0 0 0 0 2 0 0 0 0 0 0 0 \, 7
0 0 0 0 0 0 0 0 0 0 0 0 \, 6 0 0 0 0 0 0 0 0 0 0 0 0 \, 5 0 0 0 0 0
0 0 0 0 0 0 0 \, 4 1 0 0 0 0 0 0 0 0 0 0 0 \, 3 0 0 0 0 0 0 0 0 0 2
0 0 \, 2 0 0 0 0 0 0 0 0 0 0 0 0 \, 1 0 0 0 0 0 0 0 0 0 0 0 0 \, 0
0 0 0 2 0 0 0 0 0 0 0 0 \,;
#X msg 485 557 dump;
#X msg 527 577 reset;
#X text 538 616 Histograms;
#X text 100 -19 numbers from 0 to <max - 1>;
#X obj 240 812 outlet;
#X obj 390 580 m_markovanal 12;
#X obj 251 612 c_markov 12;
#X obj 367 -93 inlet;
#X obj 365 2 route 0;
#X obj 369 -58 spigot;
#X obj 435 -47 sel 0;
#X obj 435 -20 t b b;
#X obj 249 520 spigot;
#X obj 492 -19 t b b;
#X obj 432 -80 inlet train;
#X obj 674 291 inlet play;
#X obj 374 24 t a;
#X obj 252 498 inlet bang;
#X obj 263 581 f;
#X obj 376 78 mod 60;
#X obj 171 587 nbx 5 14 -1e+037 1e+037 0 0 empty empty empty 0 -8 0
10 -262144 -1 -1 0 256;
#X obj 873 322 inlet load;
#X obj 883 418 outlet save;
#X msg 284 698;
#X connect 1 0 12 0;
#X connect 1 0 29 0;
#X connect 2 0 1 0;
#X connect 3 0 2 1;
#X connect 4 0 7 0;
#X connect 4 1 5 1;
#X connect 5 0 6 0;
#X connect 7 0 12 1;
#X connect 8 0 12 1;
#X connect 12 0 5 0;
#X connect 12 0 13 1;
#X connect 12 0 30 0;
#X connect 13 0 11 0;
#X connect 13 0 25 1;
#X connect 14 0 16 0;
#X connect 15 1 23 0;
#X connect 16 0 15 0;
#X connect 17 0 18 0;
#X connect 17 1 20 0;
#X connect 18 0 4 0;
#X connect 18 1 1 0;
#X connect 19 0 25 0;
#X connect 20 0 8 0;
#X connect 20 1 3 0;
#X connect 21 0 16 1;
#X connect 21 0 17 0;
#X connect 22 0 19 1;
#X connect 23 0 26 0;
#X connect 24 0 19 0;
#X connect 25 0 13 0;
#X connect 26 0 2 0;
#X connect 26 0 12 0;
#X connect 26 0 25 1;
#X connect 27 0 13 0;
#X connect 28 0 1 0;
#X restore 11 214 pd markov-mel;
#N canvas 0 0 1349 696 markov-rythm 0;
#X obj 180 955 + 0;
#X msg 491 366 0 \, 0 \, 1 \, 0 \, 0 \, 1 \, 0 \, 0 \, 1 \, 1 \, 0
\, 0 \, 1 \, 0 \, 0 \, 0 \, 0 \, 0 \, 0 \,;
#X obj 491 323 u_cocollect;
#X msg 515 23 reset;
#X obj 485 529 t b b;
#X obj 443 618 u_cocollect;
#X msg 443 640 1 8 2 \, 0 19 8 \,;
#X msg 485 557 dump;
#X floatatom 210 611 5 0 0 0 - - -;
#X msg 527 577 reset;
#X text 538 616 Histograms;
#X text 100 -19 numbers from 0 to <max - 1>;
#X obj 240 812 outlet;
#X obj 367 -93 inlet;
#X obj 369 -58 spigot;
#X obj 435 -47 sel 0;
#X obj 435 -20 t b b;
#X obj 249 520 spigot;
#X obj 492 -19 t b b;
#X obj 432 -80 inlet train;
#X obj 625 420 inlet play;
#X obj 255 544 b;
#X obj 243 472 r pos;
#X obj 390 580 m_markovanal 2;
#X obj 251 612 c_markov 2;
#X obj 285 570 f;
#X obj 886 316 inlet load;
#X obj 920 477 outlet save;
#X connect 1 0 23 0;
#X connect 1 0 27 0;
#X connect 2 0 1 0;
#X connect 3 0 2 1;
#X connect 4 0 7 0;
#X connect 4 1 5 1;
#X connect 5 0 6 0;
#X connect 7 0 23 1;
#X connect 8 0 24 0;
#X connect 9 0 23 1;
#X connect 13 0 14 0;
#X connect 14 0 2 0;
#X connect 14 0 23 0;
#X connect 14 0 25 1;
#X connect 15 0 16 0;
#X connect 15 1 18 0;
#X connect 16 0 4 0;
#X connect 16 1 1 0;
#X connect 17 0 21 0;
#X connect 18 0 9 0;
#X connect 18 1 3 0;
#X connect 19 0 14 1;
#X connect 19 0 15 0;
#X connect 20 0 17 1;
#X connect 21 0 25 0;
#X connect 22 0 17 0;
#X connect 23 0 5 0;
#X connect 23 0 24 1;
#X connect 24 0 12 0;
#X connect 24 0 25 1;
#X connect 25 0 24 0;
#X connect 26 0 1 0;
#X restore 126 215 pd markov-rythm;
#X msg 126 180 1;
#X obj 10 234 + 48;
#X msg 194 181 0;
#X obj 194 159 r pos;
#X obj 126 236 sel 1;
#X obj 29 274 random 3;
#X obj 29 295 * 12;
#X obj 10 313 + 0;
#X obj 10 254 t f b b;
#X obj 47 24 r train2;
#X obj 104 23 r markovplay2;
#X obj -97 234 s retro-markov2;
#X obj 126 159 r b-step2;
#X obj 29 108 r note-step2;
#X obj 7 334 s note-markov2;
#X obj 71 133 r notes-piano2;
#X obj 71 154 t f b;
#X connect 0 0 3 0;
#X connect 0 0 13 0;
#X connect 1 0 6 0;
#X connect 2 0 1 0;
#X connect 3 0 10 0;
#X connect 4 0 1 0;
#X connect 5 0 4 0;
#X connect 6 0 0 0;
#X connect 7 0 8 0;
#X connect 8 0 9 1;
#X connect 9 0 16 0;
#X connect 10 0 9 0;
#X connect 10 1 7 0;
#X connect 11 0 0 2;
#X connect 11 0 1 1;
#X connect 12 0 0 3;
#X connect 12 0 1 2;
#X connect 14 0 2 0;
#X connect 15 0 0 1;
#X connect 17 0 18 0;
#X connect 18 0 0 1;
#X connect 18 1 2 0;
#X restore -444 64 pd markov2;
#X connect 1 0 13 0;
#X connect 2 0 9 0;
#X connect 3 0 9 0;
#X connect 4 0 9 0;
#X connect 5 0 9 0;
#X connect 6 0 9 0;
#X connect 7 0 9 0;
#X connect 8 0 9 0;
#X connect 9 0 12 2;
#X connect 10 0 1 0;
#X connect 11 0 12 0;
#X connect 11 1 23 0;
#X connect 12 0 0 0;
#X connect 13 0 2 0;
#X connect 13 1 3 0;
#X connect 13 2 4 0;
#X connect 13 3 5 0;
#X connect 13 4 6 0;
#X connect 13 5 7 0;
#X connect 13 6 8 0;
#X connect 13 7 14 0;
#X connect 13 8 15 0;
#X connect 13 9 16 0;
#X connect 13 10 17 0;
#X connect 13 11 18 0;
#X connect 13 12 19 0;
#X connect 13 13 20 0;
#X connect 13 14 21 0;
#X connect 13 15 22 0;
#X connect 14 0 9 0;
#X connect 15 0 9 0;
#X connect 16 0 9 0;
#X connect 17 0 9 0;
#X connect 18 0 9 0;
#X connect 19 0 9 0;
#X connect 20 0 9 0;
#X connect 21 0 9 0;
#X connect 22 0 9 0;
#X connect 23 0 12 1;
#X connect 24 0 27 0;
#X connect 25 0 11 0;
#X connect 27 0 11 0;
#X connect 27 0 28 0;
#X restore 226 -77 pd synth-page2;
#X obj 56 77 r reverb1;
#N canvas 0 0 467 524 Quantiz 0;
#X obj 44 151 inlet~;
#X obj 48 360 outlet~;
#X obj 48 253 *~;
#X obj 48 317 /~;
#X obj 100 224 pow;
#X msg 107 196 2;
#X obj 119 163 t b f;
#X obj 51 282 expr~ int($v1);
#X obj 269 30 inlet;
#X obj 266 76 clip 0 16;
#X connect 0 0 2 0;
#X connect 2 0 7 0;
#X connect 3 0 1 0;
#X connect 4 0 2 1;
#X connect 4 0 3 1;
#X connect 5 0 4 0;
#X connect 6 0 5 0;
#X connect 6 1 4 1;
#X connect 7 0 3 0;
#X connect 8 0 9 0;
#X connect 9 0 6 0;
#X restore 32 46 pd Quantiz;
#X obj 58 20 r quantize1;
#N canvas 329 9 855 620 Quantiz 0;
#X obj 435 256 inlet~;
#X obj 387 534 outlet~;
#X msg 534 515 dry 0.2 \, bq 2 \, basedur 500 \, bpitch 83 \, feedback
0.99 \, dell 2 \, delr 3 \,;
#X msg 551 446 help;
#X obj 418 446 e_dubdel mydubdel;
#X msg 578 387 save;
#X obj 578 414 t a b;
#X obj 419 43 loadbang;
#X text 688 239 feedback - delay feedback;
#X text 612 274 bq - bandpass Q: resonance (default 2);
#X text 627 386 e_dubdel is saveable;
#X text 630 133 basedur - base duration for delays;
#X text 682 340 dry - amount of dry signal;
#X text 681 358 dry=0 means fully wet (default);
#X text 631 162 dell - delay divisor left.;
#X text 631 176 Actual delay: basedur/dell;
#X text 633 196 delr - delay divisor right.;
#X text 633 210 Actual delay: basedur/delr;
#X text 610 306 bandpass pitch in midi units (0-127);
#X obj 534 129 g_nbx basedur;
#X obj 534 164 g_nbx dell;
#X obj 534 199 g_nbx delr;
#X obj 534 234 g_nhsl feedback 0 1;
#X obj 534 269 g_nbx bq;
#X obj 534 304 g_nbx bpitch;
#X obj 534 343 g_nhsl dry 0 1;
#X obj 534 472 u_cocollect;
#X obj 454 533 outlet~;
#X obj 551 33 inlet;
#X msg 459 191 feedback \$1;
#X obj 619 113 r notetime;
#X obj 182 162 sel 0;
#N canvas 0 22 450 300 bypass~ 0;
#X obj 35 32 inlet~;
#X obj 251 35 inlet;
#X obj 35 279 outlet~;
#X obj 51 227 line~;
#X obj 35 252 *~;
#X msg 51 195 1 5;
#X msg 84 195 0 5;
#X text 84 32 audio input;
#X obj 252 278 outlet~;
#X obj 268 226 line~;
#X obj 252 251 *~;
#X msg 268 194 1 5;
#X msg 301 194 0 5;
#X text 290 36 toggle (0/1);
#X obj 251 58 sel 0;
#X obj 238 92 t b b;
#X obj 281 92 t b b;
#X text 90 279 outlet for bypass;
#X text 310 278 outlet for processing;
#X obj 172 92 loadbang;
#X connect 0 0 4 0;
#X connect 0 0 10 0;
#X connect 1 0 14 0;
#X connect 3 0 4 1;
#X connect 4 0 2 0;
#X connect 5 0 3 0;
#X connect 6 0 3 0;
#X connect 9 0 10 1;
#X connect 10 0 8 0;
#X connect 11 0 9 0;
#X connect 12 0 9 0;
#X connect 14 0 15 0;
#X connect 14 1 16 0;
#X connect 15 0 5 0;
#X connect 15 1 12 0;
#X connect 16 0 6 0;
#X connect 16 1 11 0;
#X connect 19 0 5 0;
#X connect 19 0 12 0;
#X restore 248 318 pd bypass~;
#X msg 159 190 0;
#X msg 192 189 1;
#X msg 419 70 dry 0.5 \, bq 2 \, basedur 500 \, bpitch 83 \, feedback
0.99 \, dell 0.51 \, delr 0.252 \,;
#X connect 0 0 32 0;
#X connect 3 0 4 2;
#X connect 4 0 1 0;
#X connect 4 1 27 0;
#X connect 4 2 26 0;
#X connect 5 0 6 0;
#X connect 6 0 4 2;
#X connect 6 1 26 1;
#X connect 7 0 35 0;
#X connect 19 0 20 0;
#X connect 20 0 21 0;
#X connect 21 0 22 0;
#X connect 22 0 23 0;
#X connect 23 0 24 0;
#X connect 24 0 25 0;
#X connect 25 0 4 2;
#X connect 26 0 2 0;
#X connect 28 0 29 0;
#X connect 28 0 31 0;
#X connect 29 0 4 2;
#X connect 30 0 19 1;
#X connect 31 0 33 0;
#X connect 31 1 34 0;
#X connect 32 0 1 0;
#X connect 32 0 27 0;
#X connect 32 1 4 0;
#X connect 32 1 4 1;
#X connect 33 0 32 1;
#X connect 34 0 32 1;
#X connect 35 0 19 0;
#X restore 129 47 pd Quantiz;
#X obj 227 110 ch-reverb;
#X obj 155 21 r quantize2;
#X obj 160 78 r reverb2;
#X obj 253 20 r quantize3;
#X obj 253 88 r reverb3;
#X obj 227 -10 *~;
#N canvas 0 0 450 300 line 0;
#X obj 369 73 / 100;
#X obj 369 94 t f b;
#X msg 396 115 5;
#X obj 361 37 inlet;
#X obj 369 134 line~;
#X obj 368 166 outlet~;
#X connect 0 0 1 0;
#X connect 1 0 4 0;
#X connect 1 1 2 0;
#X connect 2 0 4 1;
#X connect 3 0 0 0;
#X connect 4 0 5 0;
#X restore 241 -31 pd line;
#X obj 241 -53 r vol3;
#X obj 129 -12 *~;
#N canvas 0 0 450 300 line 0;
#X obj 369 73 / 100;
#X obj 369 94 t f b;
#X msg 396 115 5;
#X obj 361 37 inlet;
#X obj 369 134 line~;
#X obj 368 166 outlet~;
#X connect 0 0 1 0;
#X connect 1 0 4 0;
#X connect 1 1 2 0;
#X connect 2 0 4 1;
#X connect 3 0 0 0;
#X connect 4 0 5 0;
#X restore 143 -33 pd line;
#X obj 33 -14 *~;
#N canvas 0 0 450 300 line 0;
#X obj 369 73 / 100;
#X obj 369 94 t f b;
#X msg 396 115 5;
#X obj 361 37 inlet;
#X obj 369 134 line~;
#X obj 368 166 outlet~;
#X connect 0 0 1 0;
#X connect 1 0 4 0;
#X connect 1 1 2 0;
#X connect 2 0 4 1;
#X connect 3 0 0 0;
#X connect 4 0 5 0;
#X restore 47 -35 pd line;
#X obj 47 -57 r vol1;
#X obj 143 -55 r vol2;
#X obj 192 210 r~ metro-audio;
#N canvas 462 205 378 317 init-reset 0;
#X obj 126 -140 loadbang;
#X obj 126 -18 s \$0-loadbang;
#X obj 161 -117 r wordbutton-Reset;
#X msg 161 -89 0;
#X obj 161 -52 s null;
#X obj 204 -52 s nothing;
#X obj 264 -52 s nada;
#X obj 306 -52 s nichts;
#X obj 6 -187 declare -path rj;
#X obj 126 4 s init;
#X msg 9 -123 \; bpm 60 \; vel 127 \; A 10 \; D 80 \; decay 8 \; quantize1.r
16 \; quantize2.r 16 \; quantize3.r 16 \; vol1.r 100 \; vol2.r 100
\; vol3.r 100 \; pd dsp 1 \;;
#X connect 0 0 1 0;
#X connect 0 0 3 0;
#X connect 0 0 10 0;
#X connect 0 0 9 0;
#X connect 2 0 3 0;
#X connect 3 0 4 0;
#X connect 3 0 5 0;
#X connect 3 0 6 0;
#X connect 3 0 7 0;
#X restore 33 -195 pd init-reset;
#N canvas 7 194 450 300 objects_send_receives_names 0;
#X text 35 34 taplist 50 20 rien play-pause Play Stop;
#X text 508 295 "numberbox 80 30 numreceive numsend 0 10";
#X text 26 142 wordbutton 50 20 Reset;
#X text 28 157 wordbutton 50 20 Drums-reset;
#X text 28 171 wordbutton 50 20 Synth-reset;
#X text 32 188 wordbutton 50 20 Touch-reset;
#X text 35 51 taplist 50 20 soundpack.r soundpack SB1 SB2 SB3 SB4 SB5
;
#X text 35 69 taplist 50 20 synthpreset.r synthpreset P1 P2 P3 P4 P5
P6 P7 P8 P9 P10 P11;
#X text 34 95 taplist 50 20 synth1preset.r synth1preset P1 P2 P3 P4
P5 P6 P7 P8 P9 P10 P11 P12 P13 P14 P15 P16;
#X restore 32 -105 pd objects_send_receives_names;
#N canvas 436 123 745 372 TOGGLES-receive_send 0;
#X obj 40 142 note-onoff c;
#X obj 35 28 note-onoff hihat;
#X obj 36 50 note-onoff snare;
#X obj 36 74 note-onoff kick;
#X obj 37 96 note-onoff cymbal;
#X obj 40 161 note-onoff csharp;
#X obj 40 180 note-onoff d;
#X obj 40 199 note-onoff dsharp;
#X obj 40 218 note-onoff e;
#X obj 40 237 note-onoff f;
#X obj 40 256 note-onoff fsharp;
#X obj 40 275 note-onoff g;
#X obj 40 295 note-onoff gsharp;
#X obj 40 313 note-onoff a;
#X obj 40 333 note-onoff asharp;
#X obj 40 352 note-onoff b;
#X obj 158 141 note-onoff c-1;
#X obj 158 160 note-onoff csharp-1;
#X obj 158 179 note-onoff d-1;
#X obj 158 198 note-onoff dsharp-1;
#X obj 158 217 note-onoff e-1;
#X obj 158 236 note-onoff f-1;
#X obj 158 255 note-onoff fsharp-1;
#X obj 158 274 note-onoff g-1;
#X obj 158 294 note-onoff gsharp-1;
#X obj 158 312 note-onoff a-1;
#X obj 158 332 note-onoff asharp-1;
#X obj 158 351 note-onoff b-1;
#X text 222 11 ces abstractions ont pour objet de recevoir un message
des toggles de l'interface par exemple t1 \, elles vont alors envoyer
un message de type t1.b \, elles vont recevoir la durée de la note
(en fonction du bpm) et envoyer après un delais de cette durée un message
0 à t1.r pour éteindre le toggle en question.;
#X text 312 93 On a donc un retour visuel possible sur l'interface
et un message permettrant d'indiquer que tel case a été touchée.;
#X text 312 133 On récupérer les messages en \$1.b dans les pages dédiées
à chaque instrument.;
#X restore 33 -153 pd TOGGLES-receive_send;
#X obj 31 111 ch-reverb;
#X obj 129 111 ch-reverb;
#N canvas 0 0 855 620 Quantiz 0;
#X obj 435 256 inlet~;
#X obj 387 534 outlet~;
#X msg 534 515 dry 0.2 \, bq 2 \, basedur 500 \, bpitch 83 \, feedback
0.99 \, dell 2 \, delr 3 \,;
#X msg 551 446 help;
#X msg 578 387 save;
#X obj 578 414 t a b;
#X obj 419 43 loadbang;
#X text 688 239 feedback - delay feedback;
#X text 612 274 bq - bandpass Q: resonance (default 2);
#X text 627 386 e_dubdel is saveable;
#X text 630 133 basedur - base duration for delays;
#X text 682 340 dry - amount of dry signal;
#X text 681 358 dry=0 means fully wet (default);
#X text 631 162 dell - delay divisor left.;
#X text 631 176 Actual delay: basedur/dell;
#X text 633 196 delr - delay divisor right.;
#X text 633 210 Actual delay: basedur/delr;
#X text 610 306 bandpass pitch in midi units (0-127);
#X obj 534 129 g_nbx basedur;
#X obj 534 164 g_nbx dell;
#X obj 534 199 g_nbx delr;
#X obj 534 234 g_nhsl feedback 0 1;
#X obj 534 269 g_nbx bq;
#X obj 534 304 g_nbx bpitch;
#X obj 534 343 g_nhsl dry 0 1;
#X obj 534 472 u_cocollect;
#X obj 454 533 outlet~;
#X obj 551 33 inlet;
#X msg 459 191 feedback \$1;
#X msg 419 70 dry 0.5 \, bq 2 \, basedur 500 \, bpitch 83 \, feedback
0.99 \, dell 0.51 \, delr 0.252 \,;
#X obj 418 446 e_dubdel mydubdel;
#X connect 0 0 30 0;
#X connect 0 0 30 1;
#X connect 3 0 30 2;
#X connect 4 0 5 0;
#X connect 5 0 30 2;
#X connect 5 1 25 1;
#X connect 6 0 29 0;
#X connect 18 0 19 0;
#X connect 19 0 20 0;
#X connect 20 0 21 0;
#X connect 21 0 22 0;
#X connect 22 0 23 0;
#X connect 23 0 24 0;
#X connect 24 0 30 2;
#X connect 25 0 2 0;
#X connect 27 0 28 0;
#X connect 28 0 30 2;
#X connect 29 0 18 0;
#X connect 30 0 1 0;
#X connect 30 1 26 0;
#X connect 30 2 25 0;
#X restore 233 49 pd Quantiz;
#X connect 2 0 20 0;
#X connect 3 0 18 0;
#X connect 5 0 15 0;
#X connect 6 0 28 2;
#X connect 7 0 28 0;
#X connect 7 0 28 1;
#X connect 8 0 7 1;
#X connect 9 0 29 0;
#X connect 9 1 29 1;
#X connect 10 0 1 0;
#X connect 10 1 1 1;
#X connect 11 0 9 1;
#X connect 12 0 29 2;
#X connect 13 0 30 1;
#X connect 14 0 10 2;
#X connect 15 0 30 0;
#X connect 16 0 15 1;
#X connect 17 0 16 0;
#X connect 18 0 9 0;
#X connect 19 0 18 1;
#X connect 20 0 7 0;
#X connect 21 0 20 1;
#X connect 22 0 21 0;
#X connect 23 0 19 0;
#X connect 24 0 1 0;
#X connect 24 0 1 1;
#X connect 28 0 1 0;
#X connect 28 1 1 1;
#X connect 29 0 1 0;
#X connect 29 1 1 1;
#X connect 30 0 10 0;
#X connect 30 1 10 1;
#X restore 347 340 pd audio;
#X obj 439 52 vsl 20 65 8 16 0 0 quantize1 quantize1.r empty 0 -9 0
10 -262144 -1 -1 6400 1;
#X obj 464 52 vsl 20 65 0 95 0 0 reverb1 reverb1.r empty 0 -9 0 10
-262144 -1 -1 0 1;
#X obj 439 148 vsl 20 65 0 1 0 0 quantize2 quantize2.r empty 0 -9 0
10 -262144 -1 -1 6400 1;
#X obj 465 148 vsl 20 65 0 95 0 0 reverb2 reverb2.r empty 0 -9 0 10
-262144 -1 -1 0 1;
#X obj 439 248 vsl 20 65 0 1 0 0 quantize3 quantize3.r empty 0 -9 0
10 -262144 -1 -1 6400 1;
#X obj 465 248 vsl 20 65 0 95 0 0 reverb3 reverb3.r empty 0 -9 0 10
-262144 -1 -1 0 1;
#X obj 337 171 hsl 95 20 0 60 0 0 vol2 vol2.r vol-inst1 0 9 0 10 -262144
-1 -1 9400 1;
#X obj 338 74 hsl 95 20 0 12 0 0 vol1 vol1.r vol-drums 0 9 0 10 -262144
-1 -1 9400 1;
#X obj 337 268 hsl 95 20 0 10 0 0 vol3 vol3.r vol-inst2 0 9 0 10 -262144
-1 -1 9400 1;
#X obj 1 -3 cnv 15 495 35 empty empty empty 20 12 0 14 -191407 -66577
0;
#X obj 14 5 taplist 50 20 rien play-pause Play Stop;
#X obj 291 5 taplist 20 20 beat nothing 1 2 3 4;
#X obj 361 5 taplist 20 20 bar nothing 1 2 3 4;
#X obj 334 245 wordbutton 100 20 Synth1-reset;
#X obj 390 194 tgl 20 0 train1 train1.r empty 17 7 0 10 -262144 -1
-1 0 1;
#X obj 414 194 tgl 20 0 markovplay1 markovplay1.r empty 17 7 0 10 -262144
-1 -1 0 1;
#X obj 391 291 tgl 20 0 train2 train2.r empty 17 7 0 10 -262144 -1
-1 0 1;
#X obj 415 291 tgl 20 0 markovplay2 markovplay2.r empty 17 7 0 10 -262144
-1 -1 0 1;
#X obj 334 125 tgl 20 0 loop1 loop1.r empty 17 7 0 10 -262144 -1 -1
0 1;
#X obj 334 223 tgl 20 0 loop2 loop2.r empty 17 7 0 10 -262144 -1 -1
0 1;
#X obj 334 147 wordbutton 100 20 Synth-reset;
#X obj 335 50 wordbutton 100 20 Drums-reset;
#X obj 414 5 wordbutton 70 20 Reset;
#X obj 311 5 wordbutton 50 20 bar;
#X obj 241 5 wordbutton 50 20 beat;
#X obj 84 5 wordbutton 50 20 bpm;
#X obj 357 125 tgl 20 0 write1 write1.r empty 17 7 0 10 -262144 -1
-1 0 1;
#X obj 380 125 tgl 20 0 playback1 playback1.r empty 17 7 0 10 -262144
-1 -1 0 1;
#X obj 357 223 tgl 20 0 write2 write2.r empty 17 7 0 10 -262144 -1
-1 0 1;
#X obj 380 223 tgl 20 0 playback2 playback2.r empty 17 7 0 10 -262144
-1 -1 0 1;
#X obj 221 5 tgl 20 0 metro-on empty empty 17 7 0 10 -262144 -1 -1
0 1;
#X obj 336 98 taplist 50 20 soundpack.r soundpack SB1 SB2 SB3 SB4 SB5
;
#X obj 335 194 taplist 50 20 synthpreset.r synthpreset P1 P2 P3 P4
P5 P6 P7 P8 P9 P10 P11;
#X obj 335 291 taplist 50 20 synth1preset.r synth1preset P1 P2 P3 P4
P5 P6 P7 P8 P9;
#X obj 134 5 numberbox 58 20 bpm.r bpm 0 840 0;
