#N struct 1030template-marker float a float b;
#N canvas 225 80 416 258 10;
#N canvas 0 0 1185 680 programme 0;
#N canvas 0 0 450 300 random-band-pass 0;
#X obj 167 -122 inlet;
#X obj -22 -66 inlet~;
#X text 209 -122 stream of incoming data values (0 - 100);
#X text 27 -66 audio input;
#X text -34 422 one inlet~: audio data for processing;
#X text -34 454 one outlet~: processed audio;
#X obj -22 311 outlet~;
#X obj 167 -102 clip 0 100;
#X text 35 310 audio output;
#X obj 125 129 *~ -2;
#X obj 77 193 +~;
#X obj 77 167 *~ 3;
#X text 189 227 this filter design is "twiced";
#X text 189 240 which creates a steeper cutoff slope;
#X text 189 254 than just using a single filter;
#X text 236 -103 interpreted as MIDI note numbers;
#X obj 205 -6 mtof;
#X obj 125 165 vcf~;
#X obj 77 233 vcf~;
#X obj 77 275 vcf~;
#X obj 205 14 t f b;
#X msg 232 35 5;
#X obj 205 56 pack;
#X obj 207 128 line~;
#X text -32 359 apply a bandpass filter to an input signal;
#X text -16 374 (creating a resonance around a center frequency);
#X text -31 346 sfx-randombpass~.pd;
#X text -34 408 one user-specified values: on/off key assignment (\$1)
;
#X obj 205 -38 t f b f;
#X obj 276 38 random 750;
#X obj 276 59 / 100;
#X obj 276 81 + 0.5;
#X obj 276 127 t f f f;
#X text -13 389 with randomly changing Q/resonance factor;
#X text -34 436 one inlet: values interpreted as MIDI note numbers
;
#X obj 303 -6 s pitch-report;
#N canvas 0 22 450 300 bypass~ 0;
#X obj 35 32 inlet~;
#X obj 251 35 inlet;
#X obj 35 279 outlet~;
#X obj 51 227 line~;
#X obj 35 252 *~;
#X msg 51 195 1 5;
#X msg 84 195 0 5;
#X text 84 32 audio input;
#X obj 252 278 outlet~;
#X obj 268 226 line~;
#X obj 252 251 *~;
#X msg 268 194 1 5;
#X msg 301 194 0 5;
#X text 290 36 toggle (0/1);
#X obj 251 58 sel 0;
#X obj 238 92 t b b;
#X obj 281 92 t b b;
#X text 90 279 outlet for bypass;
#X text 310 278 outlet for processing;
#X obj 172 92 loadbang;
#X connect 0 0 4 0;
#X connect 0 0 10 0;
#X connect 1 0 14 0;
#X connect 3 0 4 1;
#X connect 4 0 2 0;
#X connect 5 0 3 0;
#X connect 6 0 3 0;
#X connect 9 0 10 1;
#X connect 10 0 8 0;
#X connect 11 0 9 0;
#X connect 12 0 9 0;
#X connect 14 0 15 0;
#X connect 14 1 16 0;
#X connect 15 0 5 0;
#X connect 15 1 12 0;
#X connect 16 0 6 0;
#X connect 16 1 11 0;
#X connect 19 0 5 0;
#X connect 19 0 12 0;
#X restore -25 129 pd bypass~;
#X obj 11 72 r BP;
#X connect 0 0 7 0;
#X connect 1 0 36 0;
#X connect 7 0 28 0;
#X connect 9 0 17 0;
#X connect 10 0 18 0;
#X connect 11 0 10 0;
#X connect 16 0 20 0;
#X connect 17 0 10 1;
#X connect 18 0 19 0;
#X connect 19 0 6 0;
#X connect 20 0 22 0;
#X connect 20 1 21 0;
#X connect 21 0 22 1;
#X connect 22 0 23 0;
#X connect 23 0 17 1;
#X connect 23 0 18 1;
#X connect 23 0 19 1;
#X connect 28 0 16 0;
#X connect 28 1 29 0;
#X connect 28 2 35 0;
#X connect 29 0 30 0;
#X connect 30 0 31 0;
#X connect 31 0 32 0;
#X connect 32 0 17 2;
#X connect 32 1 18 2;
#X connect 32 2 19 2;
#X connect 36 0 6 0;
#X connect 36 1 11 0;
#X connect 36 1 9 0;
#X connect 37 0 36 1;
#X restore 43 -54 pd random-band-pass;
#N canvas 0 0 450 300 ring-modulation 0;
#X obj 273 -106 inlet;
#X obj 56 44 inlet~;
#X text 105 44 audio input;
#X text 53 393 one inlet~: audio data for processing;
#X text 53 421 one outlet~: processed audio;
#X text 53 407 one inlet: values interpreted as MIDI pitches (0-100)
;
#X obj 56 321 outlet~;
#X obj 221 218 line~;
#X obj 221 199 pack;
#X msg 244 173 5;
#X obj 221 111 mtof;
#X obj 262 -54 clip 0 100;
#X text 113 320 audio output;
#X text 52 363 ring modulate an input signal;
#X text 53 349 milo-sfx-ringmod~.pd;
#X obj 205 260 *~;
#X obj 221 240 osc~;
#X obj 221 132 t f b;
#X obj 221 89 t f f;
#X text 52 378 one user-specified value: on/off key assignment;
#X obj 255 111 s pitch-report;
#N canvas 0 22 450 300 bypass~ 0;
#X obj 35 32 inlet~;
#X obj 251 35 inlet;
#X obj 35 279 outlet~;
#X obj 51 227 line~;
#X obj 35 252 *~;
#X msg 51 195 1 5;
#X msg 84 195 0 5;
#X text 84 32 audio input;
#X obj 252 278 outlet~;
#X obj 268 226 line~;
#X obj 252 251 *~;
#X msg 268 194 1 5;
#X msg 301 194 0 5;
#X text 290 36 toggle (0/1);
#X obj 251 58 sel 0;
#X obj 238 92 t b b;
#X obj 281 92 t b b;
#X text 90 279 outlet for bypass;
#X text 310 278 outlet for processing;
#X obj 172 92 loadbang;
#X connect 0 0 4 0;
#X connect 0 0 10 0;
#X connect 1 0 14 0;
#X connect 3 0 4 1;
#X connect 4 0 2 0;
#X connect 5 0 3 0;
#X connect 6 0 3 0;
#X connect 9 0 10 1;
#X connect 10 0 8 0;
#X connect 11 0 9 0;
#X connect 12 0 9 0;
#X connect 14 0 15 0;
#X connect 14 1 16 0;
#X connect 15 0 5 0;
#X connect 15 1 12 0;
#X connect 16 0 6 0;
#X connect 16 1 11 0;
#X connect 19 0 5 0;
#X connect 19 0 12 0;
#X restore 80 237 pd bypass~;
#X obj 107 148 r RMod;
#X connect 0 0 11 0;
#X connect 1 0 21 0;
#X connect 7 0 16 0;
#X connect 8 0 7 0;
#X connect 9 0 8 1;
#X connect 10 0 17 0;
#X connect 11 0 18 0;
#X connect 15 0 6 0;
#X connect 16 0 15 1;
#X connect 17 0 8 0;
#X connect 17 1 9 0;
#X connect 18 0 10 0;
#X connect 18 1 20 0;
#X connect 21 0 6 0;
#X connect 21 1 15 0;
#X connect 22 0 21 1;
#X restore 43 40 pd ring-modulation;
#N canvas 0 0 450 300 random-delay 0;
#X obj 266 42 inlet;
#X obj 56 44 inlet~;
#X text 308 42 stream of incoming data values (0 - 100);
#X text 105 44 audio input;
#X text 53 511 one inlet~: audio data for processing;
#X text 53 555 one outlet~: processed audio;
#X text 53 525 one inlet: values interpreted as MIDI pitches (0-100)
;
#X obj 266 328 *~;
#X obj 56 421 outlet~;
#X obj 266 215 line~;
#X obj 266 196 pack;
#X msg 299 152 5;
#X text 113 420 audio output;
#X obj 385 244 line~;
#X obj 385 222 pack;
#X msg 408 153 5;
#X obj 332 190 / 1000;
#X text 71 480 with randomly varying feedback;
#X text 75 541 and triggering new random feedback values;
#X text 52 463 apply a delay to an input signal;
#X obj 205 420 delwrite~ \$0-delay 1500;
#X obj 266 244 vd~ \$0-delay 100;
#X obj 266 103 trigger f b b b;
#X obj 266 152 * 15;
#X obj 332 152 random 500;
#X obj 332 171 + 400;
#X obj 266 62 clip 0 100;
#X text 54 495 one user-specified value: on/off key assignment (\$1)
;
#X text 53 449 sfx-randomdelay~.pd;
#N canvas 0 22 450 300 bypass~ 0;
#X obj 35 32 inlet~;
#X obj 251 35 inlet;
#X obj 35 279 outlet~;
#X obj 51 227 line~;
#X obj 35 252 *~;
#X msg 51 195 1 5;
#X msg 84 195 0 5;
#X text 84 32 audio input;
#X obj 252 278 outlet~;
#X obj 268 226 line~;
#X obj 252 251 *~;
#X msg 268 194 1 5;
#X msg 301 194 0 5;
#X text 290 36 toggle (0/1);
#X obj 251 58 sel 0;
#X obj 238 92 t b b;
#X obj 281 92 t b b;
#X text 90 279 outlet for bypass;
#X text 310 278 outlet for processing;
#X obj 172 92 loadbang;
#X connect 0 0 4 0;
#X connect 0 0 10 0;
#X connect 1 0 14 0;
#X connect 3 0 4 1;
#X connect 4 0 2 0;
#X connect 5 0 3 0;
#X connect 6 0 3 0;
#X connect 9 0 10 1;
#X connect 10 0 8 0;
#X connect 11 0 9 0;
#X connect 12 0 9 0;
#X connect 14 0 15 0;
#X connect 14 1 16 0;
#X connect 15 0 5 0;
#X connect 15 1 12 0;
#X connect 16 0 6 0;
#X connect 16 1 11 0;
#X connect 19 0 5 0;
#X connect 19 0 12 0;
#X restore 60 251 pd bypass~;
#X obj 165 12 nbx 3 13 0 100 0 0 \$0rdelyadizan \$0rdeodn empty 0 -8
0 9 -262144 -1 -1 31.6667 256;
#X obj 26 -107 r DEL;
#X connect 0 0 26 0;
#X connect 1 0 29 0;
#X connect 7 0 20 0;
#X connect 9 0 21 0;
#X connect 10 0 9 0;
#X connect 11 0 10 1;
#X connect 13 0 7 1;
#X connect 14 0 13 0;
#X connect 15 0 14 1;
#X connect 16 0 14 0;
#X connect 21 0 7 0;
#X connect 21 0 8 0;
#X connect 22 0 23 0;
#X connect 22 1 11 0;
#X connect 22 2 24 0;
#X connect 22 3 15 0;
#X connect 23 0 10 0;
#X connect 24 0 25 0;
#X connect 25 0 16 0;
#X connect 26 0 30 0;
#X connect 29 0 8 0;
#X connect 29 1 8 0;
#X connect 29 1 20 0;
#X connect 30 0 22 0;
#X connect 31 0 29 1;
#X restore 43 133 pd random-delay;
#N canvas 0 0 450 300 random-comb-filter 0;
#X obj 248 -77 inlet;
#X obj -23 50 inlet~;
#X text 290 -77 stream of incoming data values (0 - 100);
#X text 26 50 audio input;
#X text -26 517 one inlet~: audio data for processing;
#X text -26 561 one outlet~: processed audio;
#X text -26 531 one inlet: values interpreted as MIDI pitches (0-100)
;
#X obj 126 426 delwrite~ \$0-comb 100;
#X obj 215 358 *~;
#X obj -23 427 outlet~;
#X obj 215 274 vd~ \$0-comb 100;
#X obj 215 248 line~;
#X obj 215 229 pack;
#X msg 238 184 5;
#X obj 187 181 /;
#X msg 187 157 22050;
#X obj 187 204 * 0.022675;
#X obj 187 108 mtof;
#X obj 248 -57 clip 0 100;
#X text 34 426 audio output;
#X text -27 469 apply a comb filter to an input signal;
#X obj 333 274 line~;
#X obj 333 252 pack;
#X msg 356 183 5;
#X obj 280 182 random 200;
#X obj 280 220 / 1000;
#X obj 280 201 + 800;
#X text -8 486 with randomly varying feedback;
#X text -4 547 and triggering new random feedback values;
#X obj 187 88 t f f;
#X obj 187 129 trigger b f b b b;
#X text -25 501 one user-specified value: on/off key assignment (\$1)
;
#X text -26 455 sfx-randomcomb~.pd;
#X obj 222 108 s pitch-report;
#N canvas 0 22 450 300 bypass~ 0;
#X obj 35 32 inlet~;
#X obj 251 35 inlet;
#X obj 35 279 outlet~;
#X obj 51 227 line~;
#X obj 35 252 *~;
#X msg 51 195 1 5;
#X msg 84 195 0 5;
#X text 84 32 audio input;
#X obj 252 278 outlet~;
#X obj 268 226 line~;
#X obj 252 251 *~;
#X msg 268 194 1 5;
#X msg 301 194 0 5;
#X text 290 36 toggle (0/1);
#X obj 251 58 sel 0;
#X obj 238 92 t b b;
#X obj 281 92 t b b;
#X text 90 279 outlet for bypass;
#X text 310 278 outlet for processing;
#X obj 172 92 loadbang;
#X connect 0 0 4 0;
#X connect 0 0 10 0;
#X connect 1 0 14 0;
#X connect 3 0 4 1;
#X connect 4 0 2 0;
#X connect 5 0 3 0;
#X connect 6 0 3 0;
#X connect 9 0 10 1;
#X connect 10 0 8 0;
#X connect 11 0 9 0;
#X connect 12 0 9 0;
#X connect 14 0 15 0;
#X connect 14 1 16 0;
#X connect 15 0 5 0;
#X connect 15 1 12 0;
#X connect 16 0 6 0;
#X connect 16 1 11 0;
#X connect 19 0 5 0;
#X connect 19 0 12 0;
#X restore -1 254 pd bypass~;
#X obj 165 12 nbx 3 13 0 100 0 0 \$0rdelyadizan \$0rdeodn empty 0 -8
0 9 -262144 -1 -1 43.5333 256;
#X obj 14 118 r COMB;
#X connect 0 0 18 0;
#X connect 1 0 34 0;
#X connect 8 0 7 0;
#X connect 10 0 8 0;
#X connect 10 0 9 0;
#X connect 11 0 10 0;
#X connect 12 0 11 0;
#X connect 13 0 12 1;
#X connect 14 0 16 0;
#X connect 15 0 14 0;
#X connect 16 0 12 0;
#X connect 17 0 30 0;
#X connect 18 0 35 0;
#X connect 21 0 8 1;
#X connect 22 0 21 0;
#X connect 23 0 22 1;
#X connect 24 0 26 0;
#X connect 25 0 22 0;
#X connect 26 0 25 0;
#X connect 29 0 17 0;
#X connect 29 1 33 0;
#X connect 30 0 15 0;
#X connect 30 1 14 1;
#X connect 30 2 13 0;
#X connect 30 3 24 0;
#X connect 30 4 23 0;
#X connect 34 0 9 0;
#X connect 34 1 7 0;
#X connect 35 0 29 0;
#X connect 36 0 34 1;
#X restore 43 226 pd random-comb-filter;
#N canvas 0 0 450 300 reverb 0;
#X obj 276 -66 inlet;
#X obj 56 44 inlet~;
#X text 318 -66 stream of incoming data values (0 - 100);
#X text 105 44 audio input;
#X text 55 498 one inlet~: audio data for processing;
#X text 53 532 one outlet~: processed audio;
#X obj 56 421 outlet~;
#X obj 276 -46 clip 0 100;
#X text 113 420 audio output;
#X text 54 483 one user-specified value: on/off key assignment (\$1)
;
#X text 54 468 apply reverberation to input signal;
#N canvas 179 36 500 386 rev3-hacked~ 0;
#X obj 39 58 inlet;
#X obj 39 164 pack 0 50;
#X obj -27 290 outlet~;
#X obj 39 115 clip 0 100;
#X obj 131 224 s \$0-lop;
#N canvas 169 45 927 813 doit 0;
#X obj 218 386 *~;
#X obj 341 396 *~;
#X obj 267 389 *~;
#X obj 305 392 *~;
#X obj 28 175 lop~;
#X obj 27 204 -~;
#X obj 27 291 *~;
#X obj 16 319 +~;
#X obj 75 182 lop~;
#X obj 76 214 -~;
#X obj 77 294 *~;
#X obj 67 318 +~;
#X obj 124 187 lop~;
#X obj 124 214 -~;
#X obj 125 297 *~;
#X obj 116 322 +~;
#X obj 176 191 lop~;
#X obj 175 218 -~;
#X obj 175 301 *~;
#X obj 168 326 +~;
#X obj 15 372 *~;
#X obj 169 383 *~;
#X obj 67 376 *~;
#X obj 115 380 *~;
#X obj 207 160 r \$0-lop;
#X obj 183 246 r \$0-damp;
#X obj 183 271 line~;
#X obj 17 14 delread~ \$0-del1 10;
#X obj 117 56 delread~ \$0-del3 13.4567;
#X obj 68 35 delread~ \$0-del2 11.6356;
#X obj 171 77 delread~ \$0-del4 16.7345;
#X obj 524 407 *~;
#X obj 631 409 *~;
#X obj 560 408 *~;
#X obj 595 409 *~;
#X obj 377 399 *~;
#X obj 488 406 *~;
#X obj 414 402 *~;
#X obj 451 405 *~;
#X obj 654 354 line~;
#X obj 708 387 r \$0-fb;
#X obj 218 100 delread~ \$0-del5 20.1862;
#X obj 267 121 delread~ \$0-del6 25.7417;
#X obj 304 142 delread~ \$0-del7 31.4693;
#X obj 341 163 delread~ \$0-del8 38.2944;
#X obj 376 184 delread~ \$0-del9 46.6838;
#X obj 414 205 delread~ \$0-del10 55.4567;
#X obj 488 247 delread~ \$0-del12 76.8243;
#X obj 524 268 delread~ \$0-del13 88.5623;
#X obj 561 289 delread~ \$0-del14 101.278;
#X obj 595 310 delread~ \$0-del15 115.397;
#X obj 632 331 delread~ \$0-del16 130.502;
#X obj 25 346 inlet~;
#X obj 69 440 +~;
#X obj 105 440 -~;
#X obj 141 440 +~;
#X obj 177 440 -~;
#X obj 214 440 +~;
#X obj 250 440 -~;
#X obj 286 440 +~;
#X obj 322 440 -~;
#X obj 359 440 +~;
#X obj 395 440 -~;
#X obj 431 440 +~;
#X obj 467 440 -~;
#X obj 504 440 +~;
#X obj 540 440 -~;
#X obj 576 440 +~;
#X obj 612 440 -~;
#X obj 69 474 +~;
#X obj 177 474 -~;
#X obj 105 474 +~;
#X obj 141 474 -~;
#X obj 214 474 +~;
#X obj 322 474 -~;
#X obj 250 474 +~;
#X obj 286 474 -~;
#X obj 359 474 +~;
#X obj 467 474 -~;
#X obj 395 474 +~;
#X obj 431 474 -~;
#X obj 504 474 +~;
#X obj 612 474 -~;
#X obj 540 474 +~;
#X obj 576 474 -~;
#X obj 69 518 +~;
#X obj 105 518 +~;
#X obj 322 518 -~;
#X obj 286 518 -~;
#X obj 141 518 +~;
#X obj 177 518 +~;
#X obj 214 518 -~;
#X obj 250 518 -~;
#X obj 360 518 +~;
#X obj 396 518 +~;
#X obj 613 518 -~;
#X obj 577 518 -~;
#X obj 432 518 +~;
#X obj 468 518 +~;
#X obj 505 518 -~;
#X obj 541 518 -~;
#X obj 70 575 +~;
#X obj 106 575 +~;
#X obj 469 575 -~;
#X obj 433 575 -~;
#X obj 142 575 +~;
#X obj 178 575 +~;
#X obj 361 575 -~;
#X obj 397 575 -~;
#X obj 215 575 +~;
#X obj 251 575 +~;
#X obj 287 575 +~;
#X obj 323 575 +~;
#X obj 614 575 -~;
#X obj 578 575 -~;
#X obj 506 575 -~;
#X obj 542 575 -~;
#X obj 628 606 outlet~;
#X obj 451 226 delread~ \$0-del11 65.1755;
#X obj 614 629 delwrite~ \$0-del16 130.502;
#X obj 361 776 delwrite~ \$0-del9 46.6838;
#X obj 398 755 delwrite~ \$0-del10 55.4567;
#X obj 434 734 delwrite~ \$0-del11 65.1755;
#X obj 470 713 delwrite~ \$0-del12 76.8243;
#X obj 506 692 delwrite~ \$0-del13 88.5623;
#X obj 542 671 delwrite~ \$0-del14 101.278;
#X obj 579 650 delwrite~ \$0-del15 115.397;
#X obj 323 606 delwrite~ \$0-del8 38.2944;
#X obj 287 628 delwrite~ \$0-del7 31.4693;
#X obj 252 650 delwrite~ \$0-del6 25.7417;
#X obj 215 672 delwrite~ \$0-del5 20.1862;
#X obj 71 761 delwrite~ \$0-del1 10;
#X obj 106 737 delwrite~ \$0-del2 11.6356;
#X obj 141 715 delwrite~ \$0-del3 13.4567;
#X obj 179 693 delwrite~ \$0-del4 16.7345;
#X connect 0 0 57 0;
#X connect 0 0 58 0;
#X connect 1 0 59 1;
#X connect 1 0 60 1;
#X connect 2 0 57 1;
#X connect 2 0 58 1;
#X connect 3 0 59 0;
#X connect 3 0 60 0;
#X connect 4 0 5 0;
#X connect 5 0 6 0;
#X connect 6 0 7 1;
#X connect 7 0 20 0;
#X connect 8 0 9 0;
#X connect 9 0 10 0;
#X connect 10 0 11 1;
#X connect 11 0 22 0;
#X connect 12 0 13 0;
#X connect 13 0 14 0;
#X connect 14 0 15 1;
#X connect 15 0 23 0;
#X connect 16 0 17 0;
#X connect 17 0 18 0;
#X connect 18 0 19 1;
#X connect 19 0 21 0;
#X connect 20 0 53 0;
#X connect 20 0 54 0;
#X connect 21 0 55 1;
#X connect 21 0 56 1;
#X connect 22 0 54 1;
#X connect 22 0 53 1;
#X connect 23 0 55 0;
#X connect 23 0 56 0;
#X connect 24 0 16 1;
#X connect 24 0 12 1;
#X connect 24 0 8 1;
#X connect 24 0 4 1;
#X connect 25 0 26 0;
#X connect 26 0 18 1;
#X connect 26 0 14 1;
#X connect 26 0 10 1;
#X connect 26 0 6 1;
#X connect 27 0 4 0;
#X connect 27 0 5 1;
#X connect 27 0 7 0;
#X connect 28 0 15 0;
#X connect 28 0 12 0;
#X connect 28 0 13 1;
#X connect 29 0 8 0;
#X connect 29 0 9 1;
#X connect 29 0 11 0;
#X connect 30 0 19 0;
#X connect 30 0 17 1;
#X connect 30 0 16 0;
#X connect 31 0 65 0;
#X connect 31 0 66 0;
#X connect 32 0 67 1;
#X connect 32 0 68 1;
#X connect 33 0 65 1;
#X connect 33 0 66 1;
#X connect 34 0 67 0;
#X connect 34 0 68 0;
#X connect 35 0 61 0;
#X connect 35 0 62 0;
#X connect 36 0 63 1;
#X connect 36 0 64 1;
#X connect 37 0 61 1;
#X connect 37 0 62 1;
#X connect 38 0 63 0;
#X connect 38 0 64 0;
#X connect 39 0 2 1;
#X connect 39 0 0 1;
#X connect 39 0 3 1;
#X connect 39 0 1 1;
#X connect 39 0 21 1;
#X connect 39 0 23 1;
#X connect 39 0 22 1;
#X connect 39 0 20 1;
#X connect 39 0 35 1;
#X connect 39 0 38 1;
#X connect 39 0 36 1;
#X connect 39 0 31 1;
#X connect 39 0 33 1;
#X connect 39 0 34 1;
#X connect 39 0 32 1;
#X connect 39 0 37 1;
#X connect 40 0 39 0;
#X connect 41 0 0 0;
#X connect 42 0 2 0;
#X connect 43 0 3 0;
#X connect 44 0 1 0;
#X connect 45 0 35 0;
#X connect 46 0 37 0;
#X connect 47 0 36 0;
#X connect 48 0 31 0;
#X connect 49 0 33 0;
#X connect 50 0 34 0;
#X connect 51 0 32 0;
#X connect 52 0 20 0;
#X connect 53 0 69 0;
#X connect 53 0 72 0;
#X connect 54 0 71 0;
#X connect 54 0 70 0;
#X connect 55 0 69 1;
#X connect 55 0 72 1;
#X connect 56 0 71 1;
#X connect 56 0 70 1;
#X connect 57 0 73 0;
#X connect 57 0 76 0;
#X connect 58 0 75 0;
#X connect 58 0 74 0;
#X connect 59 0 73 1;
#X connect 59 0 76 1;
#X connect 60 0 75 1;
#X connect 60 0 74 1;
#X connect 61 0 77 0;
#X connect 61 0 80 0;
#X connect 62 0 79 0;
#X connect 62 0 78 0;
#X connect 63 0 77 1;
#X connect 63 0 80 1;
#X connect 64 0 79 1;
#X connect 64 0 78 1;
#X connect 65 0 81 0;
#X connect 65 0 84 0;
#X connect 66 0 83 0;
#X connect 66 0 82 0;
#X connect 67 0 81 1;
#X connect 67 0 84 1;
#X connect 68 0 83 1;
#X connect 68 0 82 1;
#X connect 69 0 85 0;
#X connect 69 0 91 0;
#X connect 70 0 90 0;
#X connect 70 0 87 0;
#X connect 71 0 86 0;
#X connect 71 0 92 0;
#X connect 72 0 89 0;
#X connect 72 0 88 0;
#X connect 73 0 85 1;
#X connect 73 0 91 1;
#X connect 74 0 90 1;
#X connect 74 0 87 1;
#X connect 75 0 86 1;
#X connect 75 0 92 1;
#X connect 76 0 89 1;
#X connect 76 0 88 1;
#X connect 77 0 93 0;
#X connect 77 0 99 0;
#X connect 78 0 98 0;
#X connect 78 0 95 0;
#X connect 79 0 94 0;
#X connect 79 0 100 0;
#X connect 80 0 97 0;
#X connect 80 0 96 0;
#X connect 81 0 93 1;
#X connect 81 0 99 1;
#X connect 82 0 98 1;
#X connect 82 0 95 1;
#X connect 83 0 94 1;
#X connect 83 0 100 1;
#X connect 84 0 97 1;
#X connect 84 0 96 1;
#X connect 85 0 101 0;
#X connect 85 0 107 0;
#X connect 86 0 102 0;
#X connect 86 0 108 0;
#X connect 87 0 112 0;
#X connect 87 0 113 0;
#X connect 88 0 111 0;
#X connect 88 0 114 0;
#X connect 89 0 105 0;
#X connect 89 0 104 0;
#X connect 90 0 106 0;
#X connect 90 0 103 0;
#X connect 91 0 109 0;
#X connect 91 0 115 0;
#X connect 92 0 110 0;
#X connect 92 0 116 0;
#X connect 93 0 107 1;
#X connect 93 0 101 1;
#X connect 94 0 108 1;
#X connect 94 0 102 1;
#X connect 95 0 113 1;
#X connect 95 0 112 1;
#X connect 96 0 114 1;
#X connect 96 0 111 1;
#X connect 97 0 104 1;
#X connect 97 0 105 1;
#X connect 98 0 103 1;
#X connect 98 0 106 1;
#X connect 99 0 115 1;
#X connect 99 0 109 1;
#X connect 100 0 116 1;
#X connect 100 0 110 1;
#X connect 101 0 131 0;
#X connect 102 0 132 0;
#X connect 103 0 123 0;
#X connect 104 0 122 0;
#X connect 105 0 133 0;
#X connect 106 0 134 0;
#X connect 107 0 120 0;
#X connect 108 0 121 0;
#X connect 109 0 130 0;
#X connect 110 0 129 0;
#X connect 111 0 128 0;
#X connect 112 0 127 0;
#X connect 113 0 119 0;
#X connect 114 0 126 0;
#X connect 115 0 117 0;
#X connect 115 0 124 0;
#X connect 116 0 125 0;
#X connect 118 0 38 0;
#X restore -27 198 pd doit;
#X obj -27 36 inlet~;
#X obj 39 194 s \$0-fb;
#X obj 198 224 s \$0-damp;
#X obj 39 140 / 400;
#X text 42 290 abused version of Miller Puckette's rev3~;
#X obj 131 144 loadbang;
#X msg 131 201 3000;
#X msg 198 200 0.2;
#X obj 131 165 t b b;
#X text 85 58 liveness \, 0-100 \, usually between 85 and 100;
#X text 24 36 audio input;
#X connect 0 0 3 0;
#X connect 1 0 7 0;
#X connect 3 0 9 0;
#X connect 5 0 2 0;
#X connect 6 0 5 0;
#X connect 9 0 1 0;
#X connect 11 0 14 0;
#X connect 12 0 4 0;
#X connect 13 0 8 0;
#X connect 14 0 12 0;
#X connect 14 1 13 0;
#X restore 201 339 pd rev3-hacked~ 100 90 3000 20;
#X text 55 512 one inlet: values interpreted as liveliness %;
#X text 55 454 sfx-reverb~.pd;
#N canvas 0 22 450 300 bypass~ 0;
#X obj 35 32 inlet~;
#X obj 251 35 inlet;
#X obj 35 279 outlet~;
#X obj 51 227 line~;
#X obj 35 252 *~;
#X msg 51 195 1 5;
#X msg 84 195 0 5;
#X text 84 32 audio input;
#X obj 252 278 outlet~;
#X obj 268 226 line~;
#X obj 252 251 *~;
#X msg 268 194 1 5;
#X msg 301 194 0 5;
#X text 290 36 toggle (0/1);
#X obj 251 58 sel 0;
#X obj 238 92 t b b;
#X obj 281 92 t b b;
#X text 90 279 outlet for bypass;
#X text 310 278 outlet for processing;
#X obj 172 92 loadbang;
#X connect 0 0 4 0;
#X connect 0 0 10 0;
#X connect 1 0 14 0;
#X connect 3 0 4 1;
#X connect 4 0 2 0;
#X connect 5 0 3 0;
#X connect 6 0 3 0;
#X connect 9 0 10 1;
#X connect 10 0 8 0;
#X connect 11 0 9 0;
#X connect 12 0 9 0;
#X connect 14 0 15 0;
#X connect 14 1 16 0;
#X connect 15 0 5 0;
#X connect 15 1 12 0;
#X connect 16 0 6 0;
#X connect 16 1 11 0;
#X connect 19 0 5 0;
#X connect 19 0 12 0;
#X restore 91 240 pd bypass~;
#X obj 228 252 / 4;
#X obj 231 284 + 75;
#X obj 165 12 nbx 3 13 0 100 0 0 \$0rdelyadizan \$0rdeodn empty 0 -8
0 9 -262144 -1 -1 0 256;
#X obj 107 109 r VERB;
#X connect 0 0 7 0;
#X connect 1 0 14 0;
#X connect 7 0 17 0;
#X connect 11 0 6 0;
#X connect 14 0 6 0;
#X connect 14 1 11 0;
#X connect 15 0 16 0;
#X connect 16 0 11 1;
#X connect 17 0 15 0;
#X connect 18 0 14 1;
#X restore 43 324 pd reverb;
#X obj 42 354 dac~;
#X obj 44 -223 noise~;
#X obj 113 -223 adc~;
#X obj 44 -176 *~;
#X obj 113 -174 *~;
#X obj 59 -256 r Noise;
#X obj 127 -256 r Mic;
#X obj 173 -222 s_osc-help;
#X obj 172 -174 *~;
#X obj 187 -256 r Osc;
#X obj 298 -257 r XY;
#X obj 298 -235 unpack;
#X obj 298 -186 s X;
#X obj 341 -186 s Y;
#X obj 338 -211 * 100;
#X obj 298 -211 * 100;
#X obj 154 -71 spigot;
#X obj 231 -71 spigot;
#X obj 321 -111 +;
#X obj 321 -71 spigot;
#X obj 321 -91 / 2;
#X obj 354 -92 r BP_x+y;
#X obj 187 -90 r BP_x;
#X obj 264 -91 r BP_y;
#X obj 154 -128 r X;
#X obj 231 -128 r Y;
#X obj 148 23 spigot;
#X obj 225 23 spigot;
#X obj 315 -17 +;
#X obj 315 23 spigot;
#X obj 315 3 / 2;
#X obj 148 -34 r X;
#X obj 225 -34 r Y;
#X obj 181 3 r RM_x;
#X obj 258 3 r RM_y;
#X obj 348 2 r RM_x+y;
#X obj 130 116 spigot;
#X obj 207 116 spigot;
#X obj 297 76 +;
#X obj 297 116 spigot;
#X obj 297 96 / 2;
#X obj 130 59 r X;
#X obj 207 59 r Y;
#X obj 163 97 r RD_x;
#X obj 240 96 r RD_y;
#X obj 330 95 r RD_x+y;
#X obj 166 209 spigot;
#X obj 243 209 spigot;
#X obj 333 169 +;
#X obj 333 209 spigot;
#X obj 333 189 / 2;
#X obj 166 152 r X;
#X obj 243 152 r Y;
#X obj 199 190 r CF_x;
#X obj 276 189 r CF_y;
#X obj 366 188 r CF_x+y;
#X obj 94 307 spigot;
#X obj 171 307 spigot;
#X obj 261 267 +;
#X obj 261 307 spigot;
#X obj 261 287 / 2;
#X obj 94 249 r X;
#X obj 171 250 r Y;
#X obj 127 287 r RE_x;
#X obj 204 287 r RE_y;
#X obj 294 286 r RE_x+y;
#X connect 0 0 1 0;
#X connect 1 0 2 0;
#X connect 2 0 3 0;
#X connect 3 0 4 0;
#X connect 4 0 5 0;
#X connect 4 0 5 1;
#X connect 6 0 8 0;
#X connect 7 0 9 0;
#X connect 7 1 9 0;
#X connect 8 0 0 0;
#X connect 9 0 0 0;
#X connect 10 0 8 1;
#X connect 11 0 9 1;
#X connect 12 0 13 0;
#X connect 13 0 0 0;
#X connect 14 0 13 1;
#X connect 15 0 16 0;
#X connect 16 0 20 0;
#X connect 16 1 19 0;
#X connect 19 0 18 0;
#X connect 20 0 17 0;
#X connect 21 0 0 1;
#X connect 22 0 0 1;
#X connect 23 0 25 0;
#X connect 24 0 0 1;
#X connect 25 0 24 0;
#X connect 26 0 24 1;
#X connect 27 0 21 1;
#X connect 28 0 22 1;
#X connect 29 0 21 0;
#X connect 29 0 23 0;
#X connect 30 0 22 0;
#X connect 30 0 23 1;
#X connect 31 0 1 1;
#X connect 32 0 1 1;
#X connect 33 0 35 0;
#X connect 34 0 1 1;
#X connect 35 0 34 0;
#X connect 36 0 31 0;
#X connect 36 0 33 0;
#X connect 37 0 32 0;
#X connect 37 0 33 1;
#X connect 38 0 31 1;
#X connect 39 0 32 1;
#X connect 40 0 34 1;
#X connect 41 0 2 1;
#X connect 42 0 2 1;
#X connect 43 0 45 0;
#X connect 44 0 2 1;
#X connect 45 0 44 0;
#X connect 46 0 41 0;
#X connect 46 0 43 0;
#X connect 47 0 42 0;
#X connect 47 0 43 1;
#X connect 48 0 41 1;
#X connect 49 0 42 1;
#X connect 50 0 44 1;
#X connect 51 0 3 1;
#X connect 52 0 3 1;
#X connect 53 0 55 0;
#X connect 54 0 3 1;
#X connect 55 0 54 0;
#X connect 56 0 51 0;
#X connect 56 0 53 0;
#X connect 57 0 52 0;
#X connect 57 0 53 1;
#X connect 58 0 51 1;
#X connect 59 0 52 1;
#X connect 60 0 54 1;
#X connect 61 0 4 1;
#X connect 62 0 4 1;
#X connect 63 0 65 0;
#X connect 64 0 4 1;
#X connect 65 0 64 0;
#X connect 66 0 61 0;
#X connect 66 0 63 0;
#X connect 67 0 62 0;
#X connect 67 0 63 1;
#X connect 68 0 61 1;
#X connect 69 0 62 1;
#X connect 70 0 64 1;
#X restore 167 75 pd programme;
#X obj 4 -96 touch 150 150 XY;
#X obj 3 -140 tgl 20 0 Mic empty empty 17 7 0 10 -262144 -1 -1 0 1
;
#X text 31 -138 Micro;
#X obj 68 -140 tgl 20 0 Noise empty empty 17 7 0 10 -262144 -1 -1 1
1;
#X text 96 -138 Bruit blanc;
#X obj 169 -139 tgl 20 0 Osc empty empty 17 7 0 10 -262144 -1 -1 0
1;
#X text 259 -84 pente du triangle (3);
#X text 259 -119 pwm profondeur (2);
#X obj 301 -139 numberbox 50 20 numr osc-type 0 3;
#X text 3 -114 PAD XY;
#X obj 172 -81 hsl 85 15 -1 1 0 0 tri-slope empty empty -2 -8 0 10
-262144 -1 -1 0 1;
#X obj 172 -115 hsl 85 15 0 50 0 0 pwmdepth empty empty -2 -8 0 10
-262144 -1 -1 0 1;
#X obj 172 -98 hsl 85 15 0 50 0 0 pwmfreq empty empty -2 -8 0 10 -262144
-1 -1 0 1;
#X obj 224 -40 tgl 15 0 BP_x empty empty 17 7 0 10 -262144 -1 -1 0
1;
#X text 243 -43 BP-X;
#X obj 279 -40 tgl 15 0 BP_y empty empty 17 7 0 10 -262144 -1 -1 0
1;
#X text 298 -43 BP-Y;
#X obj 332 -39 tgl 15 0 BP_x+y empty empty 17 7 0 10 -262144 -1 -1
0 1;
#X text 351 -42 BP-X+Y;
#X obj 224 -20 tgl 15 0 RM_x empty empty 17 7 0 10 -262144 -1 -1 0
1;
#X obj 279 -20 tgl 15 0 RM_y empty empty 17 7 0 10 -262144 -1 -1 0
1;
#X obj 332 -19 tgl 15 0 RM_x+y empty empty 17 7 0 10 -262144 -1 -1
0 1;
#X text 165 -56 ASSIGNATIONS;
#X text 243 -23 RM-X;
#X text 298 -23 RM-Y;
#X text 351 -22 RM-X+Y;
#X obj 224 0 tgl 15 0 RD_x empty empty 17 7 0 10 -262144 -1 -1 0 1
;
#X obj 279 0 tgl 15 0 RD_y empty empty 17 7 0 10 -262144 -1 -1 1 1
;
#X obj 332 1 tgl 15 0 RD_x+y empty empty 17 7 0 10 -262144 -1 -1 0
1;
#X obj 224 20 tgl 15 0 CF_x empty empty 17 7 0 10 -262144 -1 -1 1 1
;
#X obj 279 20 tgl 15 0 CF_y empty empty 17 7 0 10 -262144 -1 -1 0 1
;
#X obj 332 21 tgl 15 0 CF_x+y empty empty 17 7 0 10 -262144 -1 -1 0
1;
#X text 243 -3 RD-X;
#X text 298 -3 RD-Y;
#X text 351 -2 RD-X+Y;
#X text 243 17 CF-X;
#X text 298 17 CF-Y;
#X text 351 18 CF-X+Y;
#X obj 224 39 tgl 15 0 RE_x empty empty 17 7 0 10 -262144 -1 -1 0 1
;
#X obj 279 39 tgl 15 0 RE_y empty empty 17 7 0 10 -262144 -1 -1 0 1
;
#X obj 332 40 tgl 15 0 RE_x+y empty empty 17 7 0 10 -262144 -1 -1 0
1;
#X text 243 36 RE-X;
#X text 298 36 RE-Y;
#X text 351 37 RE-X+Y;
#X text 2 54 BP=Passe-band \, RM=Ring-Modulation \, RD=Random-Delay
\, CF=Comb-Filter \, RE=Reverb;
#X obj 167 -39 tgl 15 0 BP empty empty 17 7 0 10 -262144 -1 -1 0 1
;
#X text 186 -42 BP-ON;
#X obj 167 -20 tgl 15 0 RMod empty empty 17 7 0 10 -262144 -1 -1 0
1;
#X text 186 -23 RM-ON;
#X obj 167 -1 tgl 15 0 DEL empty empty 17 7 0 10 -262144 -1 -1 1 1
;
#X text 186 -4 RD-ON;
#X obj 167 19 tgl 15 0 COMB empty empty 17 7 0 10 -262144 -1 -1 1 1
;
#X text 186 16 CF-ON;
#X obj 167 39 tgl 15 0 VERB empty empty 17 7 0 10 -262144 -1 -1 0 1
;
#X text 186 36 RE-ON;
#X text 197 -137 Oscilateur (0-3);
#X text 259 -102 pwm frequence (2);
