#N struct 1028template-marker float a float b;
#N canvas 0 65 451 329 10;
#X declare -path rj;
#N canvas 683 0 667 663 programme 0;
#X obj -55 86 declare -path rj;
#X msg -55 0 \; pd dsp 1;
#X obj -55 -25 loadbang;
#N canvas 683 0 667 663 auto_mode 0;
#X obj 57 76 line;
#X obj 134 76 line;
#X obj 57 57 pack f 1500;
#X obj 134 57 pack f 1500;
#X obj 57 -359 r auto-move-onoff;
#X obj 57 95 pack f f;
#X obj 281 77 line;
#X obj 358 77 line;
#X obj 281 57 pack f 1500;
#X obj 358 57 pack f 1500;
#X obj 281 97 pack f f;
#X obj 214 37 s move-id2;
#X obj 281 116 s touch2;
#X obj 120 -19 + 500;
#X obj 344 -22 + 500;
#X obj 120 -38 random 1000;
#X obj 344 -42 random 1000;
#X obj 57 19 random 300;
#X obj 134 18 random 300;
#X obj 281 18 random 300;
#X obj 358 18 random 300;
#X obj 57 38 / 300;
#X obj 281 38 / 300;
#X obj 57 -318 f 0;
#X obj 83 -318 + 1;
#X obj 57 -55 t b b;
#X obj 281 -59 t b b;
#X obj 57 -339 metro 300;
#X msg -12 18 0;
#X obj 509 78 line;
#X obj 586 78 line;
#X obj 509 58 pack f 1500;
#X obj 586 58 pack f 1500;
#X obj 509 97 pack f f;
#X obj 572 -17 + 500;
#X obj 572 -41 random 1000;
#X obj 509 17 random 300;
#X obj 586 18 random 300;
#X obj 509 38 / 300;
#X obj 510 -58 t b b;
#X obj 752 84 line;
#X obj 829 84 line;
#X obj 752 65 pack f 1500;
#X obj 829 64 pack f 1500;
#X obj 752 104 pack f f;
#X obj 815 -10 + 500;
#X obj 815 -30 random 1000;
#X obj 752 24 random 300;
#X obj 829 23 random 300;
#X obj 752 44 / 300;
#X obj 752 -47 t b b;
#X obj 975 85 line;
#X obj 1052 85 line;
#X obj 975 65 pack f 1500;
#X obj 1052 64 pack f 1500;
#X obj 975 104 pack f f;
#X obj 1038 -10 + 500;
#X obj 1038 -30 random 1000;
#X obj 975 22 random 300;
#X obj 1052 23 random 300;
#X obj 975 -47 t b b;
#X obj 57 -276 sel 0 1 2 3 4;
#X obj 440 37 s move-id3;
#X obj 509 116 s touch3;
#X obj 752 123 s touch4;
#X obj 975 123 s touch5;
#X msg 906 24 4;
#X msg 684 25 3;
#X msg 440 18 2;
#X msg 214 17 1;
#X obj 684 44 s move-id4;
#X obj 906 43 s move-id5;
#X obj 57 -296 mod 5;
#X obj 93 -80 r wordbutton-B;
#X obj 310 -82 r wordbutton-Cc;
#X obj 520 -82 r wordbutton-F;
#X obj 774 -71 r wordbutton-Ch;
#X obj 975 43 / 300;
#X obj 992 -71 r wordbutton-Ct;
#X obj 57 115 s touch6;
#X obj -12 37 s move-id6;
#X obj 500 -224 r wordbutton-Shake-all;
#X obj 134 37 / 400;
#X obj 358 38 / 400;
#X obj 586 38 / 400;
#X obj 829 43 / 400;
#X obj 1052 43 / 400;
#X text 228 -408 on génère 4 valeurs pour un déplacement : 1- l'identifiant
du point à bouger \, 2- la vitesse à laquelle il va se déplacer \,
3 et 4 les nouvelles positions en x et y.;
#X text 228 -369 Les valeurs de positions en x et y ainsi que la vitesse
déplacement sont générées par l'objet [random] qui accepte en argument
la limite haute des nombres aléatoire qu'il doit générer;
#X text 228 -321 [random 127] va générer des nombres entre 0 et 126
si on ajoute un objet [+ 30] derrière on va générer des nombres entre
30 et 156 Regarder l'aide de random pour avoir plus d'information sur
la façon dont les nombres aléatoires sont générés avec pure data \,
et aussi la notion de Seed.;
#X text 228 -263 on répète ces actions pour chaque oiseau.;
#X text 1126 -42 on génère un nombre entre 500 et 1999;
#X text 659 -223 la présence du receveur wordbuton-shake-all permet
de générer des valeurs pour tous les oiseaux. Ainsi si l'on secoue
le téléphone ils vont "s'envoler" dans toutes les directions.;
#X text 882 -138 il faut aussi remarquer la présence des receveurs
pour chaque son qui va permettre de générer des valeurs de déplacement
chaque source sonore individuellement.;
#X connect 0 0 5 0;
#X connect 1 0 5 1;
#X connect 2 0 0 0;
#X connect 3 0 1 0;
#X connect 4 0 27 0;
#X connect 5 0 79 0;
#X connect 6 0 10 0;
#X connect 7 0 10 1;
#X connect 8 0 6 0;
#X connect 9 0 7 0;
#X connect 10 0 12 0;
#X connect 13 0 2 1;
#X connect 13 0 3 1;
#X connect 14 0 8 1;
#X connect 14 0 9 1;
#X connect 15 0 13 0;
#X connect 16 0 14 0;
#X connect 17 0 21 0;
#X connect 18 0 82 0;
#X connect 19 0 22 0;
#X connect 20 0 83 0;
#X connect 21 0 2 0;
#X connect 22 0 8 0;
#X connect 23 0 24 0;
#X connect 23 0 72 0;
#X connect 24 0 23 1;
#X connect 25 0 17 0;
#X connect 25 0 18 0;
#X connect 25 1 28 0;
#X connect 25 1 15 0;
#X connect 26 0 20 0;
#X connect 26 0 19 0;
#X connect 26 1 69 0;
#X connect 26 1 16 0;
#X connect 27 0 23 0;
#X connect 28 0 80 0;
#X connect 29 0 33 0;
#X connect 30 0 33 1;
#X connect 31 0 29 0;
#X connect 32 0 30 0;
#X connect 33 0 63 0;
#X connect 34 0 31 1;
#X connect 34 0 32 1;
#X connect 35 0 34 0;
#X connect 36 0 38 0;
#X connect 37 0 84 0;
#X connect 38 0 31 0;
#X connect 39 0 36 0;
#X connect 39 0 37 0;
#X connect 39 1 68 0;
#X connect 39 1 35 0;
#X connect 40 0 44 0;
#X connect 41 0 44 1;
#X connect 42 0 40 0;
#X connect 43 0 41 0;
#X connect 44 0 64 0;
#X connect 45 0 42 1;
#X connect 45 0 43 1;
#X connect 46 0 45 0;
#X connect 47 0 49 0;
#X connect 48 0 85 0;
#X connect 49 0 42 0;
#X connect 50 0 47 0;
#X connect 50 0 48 0;
#X connect 50 1 67 0;
#X connect 50 1 46 0;
#X connect 51 0 55 0;
#X connect 52 0 55 1;
#X connect 53 0 51 0;
#X connect 54 0 52 0;
#X connect 55 0 65 0;
#X connect 56 0 53 1;
#X connect 56 0 54 1;
#X connect 57 0 56 0;
#X connect 58 0 77 0;
#X connect 59 0 86 0;
#X connect 60 0 58 0;
#X connect 60 0 59 0;
#X connect 60 1 66 0;
#X connect 60 1 57 0;
#X connect 61 0 25 0;
#X connect 61 1 26 0;
#X connect 61 2 39 0;
#X connect 61 3 50 0;
#X connect 61 4 60 0;
#X connect 66 0 71 0;
#X connect 67 0 70 0;
#X connect 68 0 62 0;
#X connect 69 0 11 0;
#X connect 72 0 61 0;
#X connect 73 0 25 0;
#X connect 74 0 26 0;
#X connect 75 0 39 0;
#X connect 76 0 50 0;
#X connect 77 0 53 0;
#X connect 78 0 60 0;
#X connect 81 0 25 0;
#X connect 81 0 26 0;
#X connect 81 0 39 0;
#X connect 81 0 50 0;
#X connect 81 0 60 0;
#X connect 82 0 3 0;
#X connect 83 0 9 0;
#X connect 84 0 32 0;
#X connect 85 0 43 0;
#X connect 86 0 54 0;
#X restore -438 366 pd auto_mode;
#X obj -55 64 s init;
#N canvas 65 43 1063 530 moving-image-stuff 0;
#X obj 5 281 f;
#X obj 5 343 pack f f f;
#X obj 5 242 t b a;
#X obj 33 280 unpack f f;
#X obj 74 232 r move-id;
#X obj 155 373 route 0 1 2 3 4;
#X obj 5 366 route 0 1 2 3 4;
#X obj 5 192 r touch1;
#X obj -154 17 r init;
#X text -100 15 on initialise la position de départ;
#X obj 439 375 route 0 1 2 3 4;
#X obj 302 373 route 0 1 2 3 4;
#X obj 595 377 route 0 1 2 3 4;
#X msg -153 48 0.1 0.1;
#X msg -129 74 0.2 0.2;
#X msg -106 97 0.3 0.3;
#X msg -83 120 0.4 0.4;
#X msg -59 142 0.5 0.5;
#X obj 33 309 route 0;
#X obj 83 309 route 0;
#X obj 154 284 f;
#X obj 154 346 pack f f f;
#X obj 154 245 t b a;
#X obj 182 283 unpack f f;
#X obj 182 312 route 0;
#X obj 232 312 route 0;
#X obj 154 195 r touch2;
#X obj 223 235 r move-id2;
#X obj 298 286 f;
#X obj 298 348 pack f f f;
#X obj 298 247 t b a;
#X obj 326 285 unpack f f;
#X obj 326 314 route 0;
#X obj 376 314 route 0;
#X obj 298 197 r touch3;
#X obj 367 237 r move-id3;
#X obj 439 281 f;
#X obj 439 343 pack f f f;
#X obj 439 242 t b a;
#X obj 467 280 unpack f f;
#X obj 467 309 route 0;
#X obj 517 309 route 0;
#X obj 439 192 r touch4;
#X obj 508 232 r move-id4;
#X obj 599 286 f;
#X obj 599 348 pack f f f;
#X obj 599 247 t b a;
#X obj 627 285 unpack f f;
#X obj 627 314 route 0;
#X obj 677 314 route 0;
#X obj 599 197 r touch5;
#X obj 668 237 r move-id5;
#X obj 744 385 route 0 1 2 3 4;
#X obj 748 294 f;
#X obj 748 356 pack f f f;
#X obj 748 255 t b a;
#X obj 776 293 unpack f f;
#X obj 776 322 route 0;
#X obj 826 322 route 0;
#X obj 748 205 r touch6;
#X obj 817 245 r move-id6;
#N canvas 0 0 799 594 moving-canvas 0;
#X obj 44 128 unpack;
#X obj 40 225 t f b;
#X obj 43 278 line;
#X obj 88 300 line;
#X obj 89 227 t f b;
#X obj 45 91 inlet;
#X obj 42 328 pack f f;
#X obj 184 125 unpack;
#X obj 180 222 t f b;
#X obj 183 275 line;
#X obj 228 297 line;
#X obj 229 224 t f b;
#X obj 185 88 inlet;
#X obj 182 325 pack f f;
#X obj 313 122 unpack;
#X obj 309 219 t f b;
#X obj 312 272 line;
#X obj 357 294 line;
#X obj 358 221 t f b;
#X obj 314 85 inlet;
#X obj 311 322 pack f f;
#X obj 453 119 unpack;
#X obj 449 216 t f b;
#X obj 452 269 line;
#X obj 497 291 line;
#X obj 498 218 t f b;
#X obj 454 82 inlet;
#X obj 451 319 pack f f;
#X obj 579 117 unpack;
#X obj 575 214 t f b;
#X obj 578 267 line;
#X obj 623 289 line;
#X obj 624 216 t f b;
#X obj 580 80 inlet;
#X obj 577 317 pack f f;
#X msg 42 350 \; bird1.r pos \$1 \$2;
#X msg 182 347 \; bird2.r pos \$1 \$2;
#X msg 311 344 \; bird3.r pos \$1 \$2;
#X msg 451 341 \; bird4.r pos \$1 \$2;
#X msg 577 339 \; bird5.r pos \$1 \$2;
#X msg 65 252 50;
#X msg 113 253 50;
#X msg 204 248 50;
#X msg 253 250 50;
#X msg 333 245 50;
#X msg 382 247 50;
#X msg 473 242 50;
#X msg 522 244 50;
#X msg 599 240 50;
#X msg 648 242 50;
#X obj 43 154 * 300;
#X obj 75 183 * 300;
#X obj 183 151 * 300;
#X obj 215 180 * 300;
#X obj 312 148 * 300;
#X obj 343 177 * 300;
#X obj 452 145 * 300;
#X obj 486 172 * 300;
#X obj 578 143 * 300;
#X obj 610 172 * 300;
#X text 39 408 on peut déplacer un objet de type gui en lui envoyant
un message (il faut donc renseigner le champ receive dans les propriétés
du message);
#X text 38 461 il faut envoyer un message de type :;
#X text 264 475 [receive_name pos \$1 \$2 (;
#X text 264 464 [ \; (;
#X text 40 507 le préfixe pos indique qu'il faut déplacer l'objet dont
le receive correspond aux coordonnées (\$1 \; \$2) \, il faut donc
utiliser pack pour actualiser les coordonnées;
#X connect 0 0 50 0;
#X connect 0 1 51 0;
#X connect 1 0 2 0;
#X connect 1 1 40 0;
#X connect 2 0 6 0;
#X connect 3 0 6 1;
#X connect 4 0 3 0;
#X connect 4 1 41 0;
#X connect 5 0 0 0;
#X connect 6 0 35 0;
#X connect 7 0 52 0;
#X connect 7 1 53 0;
#X connect 8 0 9 0;
#X connect 8 1 42 0;
#X connect 9 0 13 0;
#X connect 10 0 13 1;
#X connect 11 0 10 0;
#X connect 11 1 43 0;
#X connect 12 0 7 0;
#X connect 13 0 36 0;
#X connect 14 0 54 0;
#X connect 14 1 55 0;
#X connect 15 0 16 0;
#X connect 15 1 44 0;
#X connect 16 0 20 0;
#X connect 17 0 20 1;
#X connect 18 0 17 0;
#X connect 18 1 45 0;
#X connect 19 0 14 0;
#X connect 20 0 37 0;
#X connect 21 0 56 0;
#X connect 21 1 57 0;
#X connect 22 0 23 0;
#X connect 22 1 46 0;
#X connect 23 0 27 0;
#X connect 24 0 27 1;
#X connect 25 0 24 0;
#X connect 25 1 47 0;
#X connect 26 0 21 0;
#X connect 27 0 38 0;
#X connect 28 0 58 0;
#X connect 28 1 59 0;
#X connect 29 0 30 0;
#X connect 29 1 48 0;
#X connect 30 0 34 0;
#X connect 31 0 34 1;
#X connect 32 0 31 0;
#X connect 32 1 49 0;
#X connect 33 0 28 0;
#X connect 34 0 39 0;
#X connect 40 0 2 1;
#X connect 41 0 3 1;
#X connect 42 0 9 1;
#X connect 43 0 10 1;
#X connect 44 0 16 1;
#X connect 45 0 17 1;
#X connect 46 0 23 1;
#X connect 47 0 24 1;
#X connect 48 0 30 1;
#X connect 49 0 31 1;
#X connect 50 0 1 0;
#X connect 51 0 4 0;
#X connect 52 0 8 0;
#X connect 53 0 11 0;
#X connect 54 0 15 0;
#X connect 55 0 18 0;
#X connect 56 0 22 0;
#X connect 57 0 25 0;
#X connect 58 0 29 0;
#X connect 59 0 32 0;
#X restore -152 487 pd moving-canvas;
#X text -21 488 sous patch pour gérer les déplacements.;
#X text 143 77 ici on va récupérer les valeurs de déplacement [r touchX]
pour les router vers l'image que l'on veut on y acollant la variable
move_idX .;
#X text 141 119 Ainsi si move_id3 est égale à 3 on va déplacer le rond
bleu (on commence avec rouge=0) en suivant les instructions de touch3.
;
#X connect 0 0 1 0;
#X connect 1 0 6 0;
#X connect 2 0 0 0;
#X connect 2 1 3 0;
#X connect 3 0 18 0;
#X connect 3 1 19 0;
#X connect 4 0 0 1;
#X connect 5 0 61 0;
#X connect 5 1 61 1;
#X connect 5 2 61 2;
#X connect 5 3 61 3;
#X connect 5 4 61 4;
#X connect 6 0 61 0;
#X connect 6 1 61 1;
#X connect 6 2 61 2;
#X connect 6 3 61 3;
#X connect 6 4 61 4;
#X connect 7 0 2 0;
#X connect 8 0 13 0;
#X connect 8 0 14 0;
#X connect 8 0 15 0;
#X connect 8 0 16 0;
#X connect 8 0 17 0;
#X connect 10 0 61 0;
#X connect 10 1 61 1;
#X connect 10 2 61 2;
#X connect 10 3 61 3;
#X connect 10 4 61 4;
#X connect 11 0 61 0;
#X connect 11 1 61 1;
#X connect 11 2 61 2;
#X connect 11 3 61 3;
#X connect 11 4 61 4;
#X connect 12 0 61 0;
#X connect 12 1 61 1;
#X connect 12 2 61 2;
#X connect 12 3 61 3;
#X connect 12 4 61 4;
#X connect 13 0 61 0;
#X connect 14 0 61 1;
#X connect 15 0 61 2;
#X connect 16 0 61 3;
#X connect 17 0 61 4;
#X connect 18 1 1 1;
#X connect 19 1 1 2;
#X connect 20 0 21 0;
#X connect 21 0 5 0;
#X connect 22 0 20 0;
#X connect 22 1 23 0;
#X connect 23 0 24 0;
#X connect 23 1 25 0;
#X connect 24 1 21 1;
#X connect 25 1 21 2;
#X connect 26 0 22 0;
#X connect 27 0 20 1;
#X connect 28 0 29 0;
#X connect 29 0 11 0;
#X connect 30 0 28 0;
#X connect 30 1 31 0;
#X connect 31 0 32 0;
#X connect 31 1 33 0;
#X connect 32 1 29 1;
#X connect 33 1 29 2;
#X connect 34 0 30 0;
#X connect 35 0 28 1;
#X connect 36 0 37 0;
#X connect 37 0 10 0;
#X connect 38 0 36 0;
#X connect 38 1 39 0;
#X connect 39 0 40 0;
#X connect 39 1 41 0;
#X connect 40 1 37 1;
#X connect 41 1 37 2;
#X connect 42 0 38 0;
#X connect 43 0 36 1;
#X connect 44 0 45 0;
#X connect 45 0 12 0;
#X connect 46 0 44 0;
#X connect 46 1 47 0;
#X connect 47 0 48 0;
#X connect 47 1 49 0;
#X connect 48 1 45 1;
#X connect 49 1 45 2;
#X connect 50 0 46 0;
#X connect 51 0 44 1;
#X connect 52 0 61 0;
#X connect 52 1 61 1;
#X connect 52 2 61 2;
#X connect 52 3 61 3;
#X connect 52 4 61 4;
#X connect 53 0 54 0;
#X connect 54 0 52 0;
#X connect 55 0 53 0;
#X connect 55 1 56 0;
#X connect 56 0 57 0;
#X connect 56 1 58 0;
#X connect 57 1 54 1;
#X connect 58 1 54 2;
#X connect 59 0 55 0;
#X connect 60 0 53 1;
#X restore -440 449 pd moving-image-stuff;
#X text -436 269 1- on commence par définir les variables pour le controle
par touchscreen;
#N canvas 658 5 574 572 button-stuff 0;
#X obj -146 187 s move-id;
#X msg -146 157 0;
#X msg -118 157 1;
#X msg -89 157 2;
#X msg -60 157 3;
#X msg -32 157 4;
#X obj -141 523 s auto-move-onoff;
#X obj -146 62 r bird-sel;
#X obj -146 107 symbol \$1;
#X obj -146 85 t b a;
#X obj -141 444 symbol \$1;
#X obj -141 422 t b a;
#X obj -141 399 r automove;
#X obj -147 263 r bird1_onoff;
#X obj -57 263 r bird2_onoff;
#X obj 32 263 r bird3_onoff;
#X obj 127 261 r bird4_onoff;
#X obj 221 260 r bird5_onoff;
#X obj -141 469 sel On Off;
#X msg -141 494 1;
#X msg -113 494 0;
#X obj -147 315 s birdbang1;
#X obj -57 317 s birdbang2;
#X obj 32 319 s birdbang3;
#X obj 127 320 s birdbang4;
#X obj 221 321 s birdbang5;
#X text -143 360 le bouton auto pour la mise en route automatique des
mouvements;
#X obj -146 132 sel Bird Crickets Frogs Chirper Critters;
#X text -149 41 le mode de séléction du son a déplacer dans l'espace
;
#X text -148 220 les 5 toggles verticaux de l'interface (1 pour activer
le son 0 pour l'éteindre) - certains messages restent les mm que dans
le patch rjdj;
#X connect 1 0 0 0;
#X connect 2 0 0 0;
#X connect 3 0 0 0;
#X connect 4 0 0 0;
#X connect 5 0 0 0;
#X connect 7 0 9 0;
#X connect 8 0 27 0;
#X connect 9 0 8 0;
#X connect 9 1 8 1;
#X connect 10 0 18 0;
#X connect 11 0 10 0;
#X connect 11 1 10 1;
#X connect 12 0 11 0;
#X connect 13 0 21 0;
#X connect 14 0 22 0;
#X connect 15 0 23 0;
#X connect 16 0 24 0;
#X connect 17 0 25 0;
#X connect 18 0 19 0;
#X connect 18 1 20 0;
#X connect 19 0 6 0;
#X connect 20 0 6 0;
#X connect 27 0 1 0;
#X connect 27 1 2 0;
#X connect 27 2 3 0;
#X connect 27 3 4 0;
#X connect 27 4 5 0;
#X restore -436 295 pd button-stuff;
#N canvas 506 228 467 440 unpack-touch2xy 0;
#X obj -237 254 s xpos1;
#X obj -180 254 s ypos1;
#X obj -237 209 r touch1;
#X obj -237 231 unpack f f;
#X obj -123 230 unpack f f;
#X obj -123 208 r touch2;
#X obj -123 253 s xpos2;
#X obj -66 253 s ypos2;
#X obj -238 304 unpack f f;
#X obj -124 303 unpack f f;
#X obj -238 282 r touch3;
#X obj -238 327 s xpos3;
#X obj -181 327 s ypos3;
#X obj -124 281 r touch4;
#X obj -124 326 s xpos4;
#X obj -67 326 s ypos4;
#X obj -239 371 unpack f f;
#X obj -239 349 r touch5;
#X obj -239 394 s xpos5;
#X obj -182 394 s ypos5;
#X text -240 11 Attention on ne va pas avoir la reconnaissance de 5
doigts mais on implémente le code comme si ...;
#X text -239 39 c'est une question de simplicité \, car le mouvement
automatique va déplacer les 5 points en même temps. on utilise donc
la mm convention que celle utilisée pour un seul doigt et on la généralise
: cela nous permettra lors de la mise en mouvement aléatoire d'envoyer
une seule variable par exemple [s touch5] (au lieu de [s xpos5] et
[s ypos5]).;
#X obj -117 372 unpack f f;
#X obj -118 350 r touch6;
#X obj -117 395 s xpos6;
#X obj -60 395 s ypos6;
#X text -237 125 Le canal 1 va servir uniquement pour le déplacement
de l'utilisateur sur la surface tactile. Les 5 autres pour le mode
de déplacement automatique;
#X connect 2 0 3 0;
#X connect 3 0 0 0;
#X connect 3 1 1 0;
#X connect 4 0 6 0;
#X connect 4 1 7 0;
#X connect 5 0 4 0;
#X connect 8 0 11 0;
#X connect 8 1 12 0;
#X connect 9 0 14 0;
#X connect 9 1 15 0;
#X connect 10 0 8 0;
#X connect 13 0 9 0;
#X connect 16 0 18 0;
#X connect 16 1 19 0;
#X connect 17 0 16 0;
#X connect 22 0 24 0;
#X connect 22 1 25 0;
#X connect 23 0 22 0;
#X restore -437 320 pd unpack-touch2xy;
#X obj -45 43 bng 15 250 50 0 empty empty empty 17 7 0 10 -262144 -1
-1;
#X text -441 474 4- Le coeur du dsp \, la synthèse sonore et le traitement
du positionnement;
#X text -448 -5 L'idée est de construire un dispositif sonore interactif
permettant de gérer une forme de localisation des points dans l'espace
sonore. Mais aussi d'avoir des leviers d'interactivité et d'autogénération.
;
#X text -453 196 On peut finalement utiliser le mode Auto pour les
laisser vaquer à leurs occupations.;
#X text -449 -28 SPAT-insects_droid;
#X text -448 46 On va donc construire une application similaire à spat-bords.rj
mais avec quelques différences dues à l'adaptation de l'interface.
;
#X text -449 82 Les procédés de synthèses sonore sont cependant plus
lourds \, car on va avoir une richesse de timbres plus large;
#X text -449 107 On va donc avoir la possibilité d'avoir jusqu'à 5
sons (1 oiseau avec plusieurs chants \, des criquets \, des grenouilles
\, des espèces de grillons exotiques et des cigales) de couleurs différentes.
On va pouvoir les déplacer dans l'espace individuellement \, ensuite
on pourra les exciter individuellement pour qu'ils se déplacent seuls.
;
#X text -439 247 IMPLEMENTATION DES CONCEPTS D'INTERACTION POSSIBLES
;
#X text -440 342 2- le mode automatique de déplacement des points.
;
#X text -440 417 3- on affiche/déplace les images en fonction des boutons
qui ont été enclenchés.;
#X text -441 396 FAISONS-LE !;
#N canvas 0 0 1366 696 dsp-engine 0;
#X obj -332 315 pack f f;
#X obj -332 291 f;
#X obj -332 267 t b f;
#X obj -217 316 pack f f;
#X obj -217 292 f;
#X obj -217 269 t b f;
#X obj -266 196 r move-id;
#X obj -332 151 r ypos1;
#X obj -217 239 r xpos1;
#N canvas 521 121 826 396 five-on-off 0;
#X obj 23 46 inlet~;
#X obj 21 217 outlet~;
#X obj 55 155 line;
#X obj 55 90 t f b;
#X obj 55 132 pack f f;
#X msg 82 111 10;
#X obj 22 183 *~ 0.5;
#X obj 140 44 inlet~;
#X obj 138 215 outlet~;
#X obj 172 153 line;
#X obj 172 88 t f b;
#X obj 172 130 pack f f;
#X msg 199 109 10;
#X obj 139 181 *~ 0.5;
#X obj 271 35 inlet~;
#X obj 269 206 outlet~;
#X obj 303 144 line;
#X obj 303 79 t f b;
#X obj 303 121 pack f f;
#X msg 330 100 10;
#X obj 270 172 *~ 0.5;
#X obj 395 35 inlet~;
#X obj 393 206 outlet~;
#X obj 427 144 line;
#X obj 427 79 t f b;
#X obj 427 121 pack f f;
#X msg 454 100 10;
#X obj 394 172 *~ 0.5;
#X obj 516 37 inlet~;
#X obj 514 208 outlet~;
#X obj 548 146 line;
#X obj 548 81 t f b;
#X obj 548 123 pack f f;
#X msg 575 102 10;
#X obj 515 174 *~ 0.5;
#X text 27 285 5 interupteurs on/off : on reçoit l'information directement
de l'interface \, on utilise une line avec un temps de réponse très
court (10ms) pour éviter les bruits et autres clicks lorsque l'on active/desactive
chaque point.;
#X obj 56 71 r birdbang1;
#X obj 172 68 r birdbang2;
#X obj 303 59 r birdbang3;
#X obj 427 58 r birdbang4;
#X obj 548 61 r birdbang5;
#X connect 0 0 6 0;
#X connect 2 0 6 1;
#X connect 3 0 4 0;
#X connect 3 1 5 0;
#X connect 4 0 2 0;
#X connect 5 0 4 1;
#X connect 6 0 1 0;
#X connect 7 0 13 0;
#X connect 9 0 13 1;
#X connect 10 0 11 0;
#X connect 10 1 12 0;
#X connect 11 0 9 0;
#X connect 12 0 11 1;
#X connect 13 0 8 0;
#X connect 14 0 20 0;
#X connect 16 0 20 1;
#X connect 17 0 18 0;
#X connect 17 1 19 0;
#X connect 18 0 16 0;
#X connect 19 0 18 1;
#X connect 20 0 15 0;
#X connect 21 0 27 0;
#X connect 23 0 27 1;
#X connect 24 0 25 0;
#X connect 24 1 26 0;
#X connect 25 0 23 0;
#X connect 26 0 25 1;
#X connect 27 0 22 0;
#X connect 28 0 34 0;
#X connect 30 0 34 1;
#X connect 31 0 32 0;
#X connect 31 1 33 0;
#X connect 32 0 30 0;
#X connect 33 0 32 1;
#X connect 34 0 29 0;
#X connect 36 0 3 0;
#X connect 37 0 10 0;
#X connect 38 0 17 0;
#X connect 39 0 24 0;
#X connect 40 0 31 0;
#X restore -353 490 pd five-on-off;
#X obj -332 335 route 0 1 2 3 4;
#X obj -217 336 route 0 1 2 3 4;
#X obj -116 336 route 0 1 2 3 4;
#X obj -2 336 route 0 1 2 3 4;
#X text -318 16 ici on va récupérer les valeurs des points en x et
y pour chaque doigt. La valeur en y va permettre de controler le volume
(le centre sera le point de volume maximum) et x permettera de controler
le panning (la balance gauche droite);
#X obj -176 657 dac~;
#X floatatom -266 248 5 0 0 0 - - -;
#X obj -332 170 * 2;
#X obj -332 190 - 1;
#X obj -332 247 -;
#X obj -332 228 swap 1;
#X obj -332 209 abs;
#X obj -116 311 pack f f;
#X obj -116 287 f;
#X obj -116 263 t b f;
#X obj -1 312 pack f f;
#X obj -1 288 f;
#X obj -1 265 t b f;
#X floatatom -50 244 5 0 0 0 - - -;
#X obj -116 166 * 2;
#X obj -116 186 - 1;
#X obj -116 243 -;
#X obj -116 224 swap 1;
#X obj -116 205 abs;
#X obj -50 192 r move-id2;
#X obj -1 239 r xpos2;
#X obj -116 147 r ypos2;
#X obj 100 316 pack f f;
#X obj 100 292 f;
#X obj 100 268 t b f;
#X obj 215 317 pack f f;
#X obj 215 293 f;
#X obj 215 270 t b f;
#X obj 100 336 route 0 1 2 3 4;
#X obj 215 337 route 0 1 2 3 4;
#X obj 317 337 route 0 1 2 3 4;
#X obj 431 337 route 0 1 2 3 4;
#X floatatom 166 249 5 0 0 0 - - -;
#X obj 100 171 * 2;
#X obj 100 191 - 1;
#X obj 100 248 -;
#X obj 100 229 swap 1;
#X obj 100 210 abs;
#X obj 317 312 pack f f;
#X obj 317 288 f;
#X obj 317 264 t b f;
#X obj 432 313 pack f f;
#X obj 432 289 f;
#X obj 432 266 t b f;
#X floatatom 383 245 5 0 0 0 - - -;
#X obj 317 167 * 2;
#X obj 317 187 - 1;
#X obj 317 244 -;
#X obj 317 225 swap 1;
#X obj 317 206 abs;
#X obj 533 337 route 0 1 2 3 4;
#X obj 647 337 route 0 1 2 3 4;
#X obj 533 312 pack f f;
#X obj 533 288 f;
#X obj 533 264 t b f;
#X obj 648 313 pack f f;
#X obj 648 289 f;
#X obj 648 266 t b f;
#X floatatom 599 245 5 0 0 0 - - -;
#X obj 533 167 * 2;
#X obj 533 187 - 1;
#X obj 533 244 -;
#X obj 533 225 swap 1;
#X obj 533 206 abs;
#X obj 100 152 r ypos3;
#X obj 215 246 r xpos3;
#X obj 166 197 r move-id3;
#X obj 317 148 r ypos4;
#X obj 383 193 r move-id4;
#X obj 533 148 r ypos5;
#X obj 599 193 r move-id5;
#X obj 649 242 r xpos5;
#X obj 432 245 r xpos4;
#N canvas 0 0 1145 696 insectarium 0;
#X obj 34 551 outlet~;
#X obj 98 551 outlet~;
#X obj 235 551 outlet~;
#X obj 342 551 outlet~;
#X obj 430 551 outlet~;
#N canvas 0 22 632 558 rattler 0;
#X obj 121 158 sig~ 1;
#X obj 121 190 /~;
#X obj 174 167 +~ 1;
#X obj 175 141 *~;
#X obj 230 167 noise~;
#X obj 121 215 *~;
#X obj 121 309 *~;
#X obj 230 213 *~ 0.1;
#X obj 317 186 clip~ 0 1;
#X obj 121 343 *~ 0.2;
#X obj 316 163 *~ 3;
#X obj 317 211 *~ 1;
#X obj 175 112 *~ 6;
#X obj 317 140 osc~ 0.5;
#X obj 175 90 osc~ 10;
#X obj 230 189 bp~ 7000 13;
#X obj 121 241 bp~ 6000 16;
#X obj 121 415 outlet~;
#X obj 365 233 r switch-rattler;
#X obj 365 257 switch~;
#X connect 0 0 1 0;
#X connect 1 0 5 0;
#X connect 2 0 1 1;
#X connect 3 0 2 0;
#X connect 4 0 15 0;
#X connect 5 0 16 0;
#X connect 6 0 9 0;
#X connect 7 0 16 0;
#X connect 8 0 11 0;
#X connect 9 0 17 0;
#X connect 10 0 8 0;
#X connect 11 0 6 1;
#X connect 12 0 3 0;
#X connect 12 0 3 1;
#X connect 13 0 10 0;
#X connect 14 0 12 0;
#X connect 15 0 5 1;
#X connect 15 0 7 0;
#X connect 16 0 6 0;
#X connect 18 0 19 0;
#X restore 342 467 pd rattler;
#N canvas 0 22 519 425 critters2 0;
#X obj 93 226 *~;
#X obj 94 188 *~;
#X obj 94 152 *~;
#X obj 126 46 unpack 1 2 3 4;
#X obj 92 253 hip~ 20;
#X obj 95 107 cos~;
#X obj 158 106 cos~;
#X obj 233 105 cos~;
#X obj 303 105 cos~;
#X obj 303 75 phasor~;
#X obj 234 75 phasor~;
#X obj 158 76 phasor~;
#X obj 96 76 phasor~;
#X obj 126 -1 loadbang;
#X text 129 296 night critters \, ajf2005;
#X obj 108 270 osc~ 0.01;
#X obj 91 295 *~;
#X msg 126 23 2012 4 20 2;
#X obj 92 375 outlet~;
#X obj 257 212 r switch-critters2;
#X obj 272 236 switch~;
#X obj 91 317 *~ 0.007;
#X connect 0 0 4 0;
#X connect 1 0 0 0;
#X connect 2 0 1 0;
#X connect 3 0 12 0;
#X connect 3 1 11 0;
#X connect 3 2 10 0;
#X connect 3 3 9 0;
#X connect 4 0 16 0;
#X connect 5 0 2 0;
#X connect 6 0 2 1;
#X connect 7 0 1 1;
#X connect 8 0 0 1;
#X connect 9 0 8 0;
#X connect 10 0 7 0;
#X connect 11 0 6 0;
#X connect 12 0 5 0;
#X connect 13 0 17 0;
#X connect 15 0 16 1;
#X connect 16 0 21 0;
#X connect 17 0 3 0;
#X connect 19 0 20 0;
#X connect 21 0 18 0;
#X restore 440 486 pd critters2;
#N canvas 17 0 1349 696 frog 0;
#X obj 95 461 *~ 1;
#X obj 105 564 *~ 0.45;
#X obj 208 153 vline~;
#X obj 148 339 wrap~;
#X obj 148 390 *~;
#X obj 97 413 sig~ 1;
#X obj 96 440 /~;
#X obj 148 416 +~ 1;
#X obj 148 318 -~ 1;
#X obj 12 520 vcf~ 800 40;
#X obj 96 521 vcf~ 1 40;
#X obj 168 520 vcf~ 2600 20;
#X obj 201 445 *~ 120;
#X obj 157 446 *~ 60;
#X obj 254 445 *~ 340;
#X msg 208 132 1 \, 0 400;
#X msg 286 53 80;
#X msg 321 53 60;
#X msg 359 53 40;
#X obj 147 272 *~;
#X obj 96 590 hip~ 10;
#X obj 299 32 loadbang;
#X obj 208 62 metro 1000;
#X obj 208 110 sel 0;
#X obj 185 181 sig~ 1;
#X obj 184 204 -~;
#X obj 149 364 *~ 42;
#X obj 148 244 *~ 2.3;
#X obj 156 470 +~ 600;
#X obj 201 470 +~ 1500;
#X obj 254 470 +~ 2300;
#X obj 148 295 *~ 4;
#X obj 202 419 *~ 0.35;
#X obj 208 85 random 7;
#X obj 95 678 outlet~;
#X obj 272 577 r switch-frog;
#X obj 273 602 switch~;
#X obj 363 603 sel 1;
#X obj 95 615 *~ 0.2;
#X connect 0 0 9 0;
#X connect 0 0 10 0;
#X connect 0 0 11 0;
#X connect 1 0 20 0;
#X connect 2 0 25 1;
#X connect 3 0 26 0;
#X connect 4 0 7 0;
#X connect 5 0 6 0;
#X connect 6 0 0 0;
#X connect 7 0 6 1;
#X connect 8 0 3 0;
#X connect 9 0 1 0;
#X connect 10 0 20 0;
#X connect 11 0 1 0;
#X connect 12 0 29 0;
#X connect 13 0 28 0;
#X connect 14 0 30 0;
#X connect 15 0 2 0;
#X connect 16 0 9 2;
#X connect 17 0 10 2;
#X connect 18 0 11 2;
#X connect 19 0 31 0;
#X connect 19 0 32 0;
#X connect 20 0 38 0;
#X connect 21 0 18 0;
#X connect 21 0 17 0;
#X connect 21 0 16 0;
#X connect 21 0 22 0;
#X connect 22 0 33 0;
#X connect 23 0 15 0;
#X connect 24 0 25 0;
#X connect 25 0 27 0;
#X connect 26 0 4 0;
#X connect 26 0 4 1;
#X connect 27 0 19 0;
#X connect 27 0 19 1;
#X connect 28 0 9 1;
#X connect 29 0 10 1;
#X connect 30 0 11 1;
#X connect 31 0 8 0;
#X connect 32 0 12 0;
#X connect 32 0 13 0;
#X connect 32 0 14 0;
#X connect 33 0 23 0;
#X connect 35 0 36 0;
#X connect 35 0 37 0;
#X connect 37 0 15 0;
#X connect 38 0 34 0;
#X restore 236 464 pd frog;
#N canvas 594 8 543 730 frog2 0;
#X obj 95 461 *~ 1;
#X obj 105 564 *~ 0.45;
#X obj 208 153 vline~;
#X obj 148 339 wrap~;
#X obj 148 390 *~;
#X obj 97 413 sig~ 1;
#X obj 96 440 /~;
#X obj 148 416 +~ 1;
#X obj 148 318 -~ 1;
#X obj 149 364 *~ 122;
#X obj 12 520 vcf~ 800 40;
#X obj 96 521 vcf~ 1 40;
#X obj 168 520 vcf~ 2600 20;
#X obj 201 393 *~ -1;
#X obj 262 304 sig~ 1;
#X obj 261 327 -~;
#X obj 261 361 min~ 0.5;
#X obj 201 361 max~ 0.9;
#X obj 147 272 *~;
#X obj 148 220 *~ -1;
#X obj 208 188 min~ 0.5;
#X obj 147 189 max~ 0.5;
#X obj 96 590 hip~ 10;
#X obj 299 32 loadbang;
#X obj 208 110 sel 0;
#X obj 156 470 +~ 900;
#X obj 201 470 +~ 1800;
#X obj 254 470 +~ 2900;
#X obj 254 445 *~ 240;
#X obj 201 445 *~ 90;
#X obj 157 446 *~ 40;
#X obj 200 417 *~ 3;
#X obj 148 244 *~ 3;
#X msg 208 132 1 \, 0 200;
#X obj 148 295 *~ 2;
#X msg 359 53 30;
#X msg 321 53 40;
#X msg 286 53 50;
#X obj 208 62 metro 700;
#X obj 208 85 random 7;
#X obj 95 657 outlet~;
#X obj 292 597 r switch-frog2;
#X obj 294 623 switch~;
#X obj 96 611 *~ 0.4;
#X obj 373 613 sel 1;
#X connect 0 0 10 0;
#X connect 0 0 11 0;
#X connect 0 0 12 0;
#X connect 1 0 22 0;
#X connect 2 0 15 1;
#X connect 2 0 21 0;
#X connect 2 0 20 0;
#X connect 3 0 9 0;
#X connect 4 0 7 0;
#X connect 5 0 6 0;
#X connect 6 0 0 0;
#X connect 7 0 6 1;
#X connect 8 0 3 0;
#X connect 9 0 4 0;
#X connect 9 0 4 1;
#X connect 10 0 1 0;
#X connect 11 0 22 0;
#X connect 12 0 1 0;
#X connect 13 0 31 0;
#X connect 14 0 15 0;
#X connect 15 0 16 0;
#X connect 15 0 17 0;
#X connect 16 0 31 0;
#X connect 17 0 13 0;
#X connect 18 0 34 0;
#X connect 19 0 32 0;
#X connect 20 0 32 0;
#X connect 21 0 19 0;
#X connect 22 0 43 0;
#X connect 23 0 35 0;
#X connect 23 0 36 0;
#X connect 23 0 37 0;
#X connect 23 0 38 0;
#X connect 24 0 33 0;
#X connect 25 0 10 1;
#X connect 26 0 11 1;
#X connect 27 0 12 1;
#X connect 28 0 27 0;
#X connect 29 0 26 0;
#X connect 30 0 25 0;
#X connect 31 0 28 0;
#X connect 31 0 29 0;
#X connect 31 0 30 0;
#X connect 32 0 18 0;
#X connect 32 0 18 1;
#X connect 33 0 2 0;
#X connect 34 0 8 0;
#X connect 35 0 12 2;
#X connect 36 0 11 2;
#X connect 37 0 10 2;
#X connect 38 0 39 0;
#X connect 39 0 24 0;
#X connect 41 0 42 0;
#X connect 41 0 44 0;
#X connect 43 0 40 0;
#X connect 44 0 33 0;
#X restore 248 485 pd frog2;
#N canvas 0 22 537 503 cricket 0;
#X obj 141 245 cos~;
#X obj 156 165 cos~;
#X obj 141 222 +~;
#X obj 104 189 wrap~;
#X obj 156 193 *~ 0.2;
#X obj 140 272 *~;
#X obj 156 144 wrap~;
#X obj 119 306 *~;
#X obj 66 187 cos~;
#X obj 129 82 phasor~ 18;
#X obj 104 165 *~ 250;
#X obj 156 120 *~ 2.1;
#X obj 264 204 *~;
#X obj 212 129 noise~;
#X obj 212 151 lop~ 5;
#X obj 197 249 *~;
#X obj 198 225 +~ 0.6;
#X obj 211 182 *~ 12;
#X obj 264 156 phasor~ -2;
#X obj 261 16 noise~;
#X obj 262 38 lop~ 0.2;
#X obj 263 60 lop~ 0.2;
#X obj 263 107 clip~ 0 1;
#X obj 263 83 *~ 1e+009;
#X obj 119 336 *~;
#X obj 263 133 *~ -2;
#X obj 264 179 lop~ 8;
#X obj 119 443 outlet~;
#X obj 288 304 r switch-cricket;
#X obj 288 326 switch~;
#X obj 119 371 *~ 0.09;
#X connect 0 0 5 0;
#X connect 1 0 4 0;
#X connect 2 0 0 0;
#X connect 3 0 2 0;
#X connect 4 0 2 1;
#X connect 5 0 7 1;
#X connect 6 0 1 0;
#X connect 7 0 24 0;
#X connect 8 0 7 0;
#X connect 9 0 10 0;
#X connect 9 0 11 0;
#X connect 9 0 8 0;
#X connect 10 0 3 0;
#X connect 11 0 6 0;
#X connect 12 0 15 1;
#X connect 13 0 14 0;
#X connect 14 0 17 0;
#X connect 14 0 26 0;
#X connect 15 0 5 1;
#X connect 16 0 15 0;
#X connect 17 0 16 0;
#X connect 18 0 26 0;
#X connect 19 0 20 0;
#X connect 20 0 21 0;
#X connect 21 0 23 0;
#X connect 22 0 24 1;
#X connect 22 0 25 0;
#X connect 23 0 22 0;
#X connect 24 0 30 0;
#X connect 25 0 18 0;
#X connect 26 0 12 1;
#X connect 26 0 12 0;
#X connect 28 0 29 0;
#X connect 30 0 27 0;
#X restore 100 488 pd cricket;
#N canvas 0 22 748 590 critters 0;
#X obj 93 226 *~;
#X obj 94 188 *~;
#X obj 94 152 *~;
#X obj 126 46 unpack 1 2 3 4;
#X obj 92 253 hip~ 20;
#X obj 95 107 cos~;
#X obj 158 106 cos~;
#X obj 233 105 cos~;
#X obj 303 105 cos~;
#X obj 303 75 phasor~;
#X obj 234 75 phasor~;
#X obj 158 76 phasor~;
#X obj 96 76 phasor~;
#X obj 126 -1 loadbang;
#X text 129 296 night critters \, ajf2005;
#X msg 126 23 2134 4.279 20.4 15.5;
#X obj 108 270 osc~ 0.01;
#X obj 91 295 *~;
#X obj 91 317 *~ 0.007;
#X obj 90 415 outlet~;
#X obj 273 354 r switch-critters;
#X obj 286 378 switch~;
#X connect 0 0 4 0;
#X connect 1 0 0 0;
#X connect 2 0 1 0;
#X connect 3 0 12 0;
#X connect 3 1 11 0;
#X connect 3 2 10 0;
#X connect 3 3 9 0;
#X connect 4 0 17 0;
#X connect 5 0 2 0;
#X connect 6 0 2 1;
#X connect 7 0 1 1;
#X connect 8 0 0 1;
#X connect 9 0 8 0;
#X connect 10 0 7 0;
#X connect 11 0 6 0;
#X connect 12 0 5 0;
#X connect 13 0 15 0;
#X connect 15 0 3 0;
#X connect 16 0 17 1;
#X connect 17 0 18 0;
#X connect 18 0 19 0;
#X connect 20 0 21 0;
#X restore 431 464 pd critters;
#N canvas 0 22 682 607 circada1 0;
#X obj 17 7 noise~;
#X obj 17 75 hip~ 5000;
#X obj 17 96 hip~ 5000;
#X obj 17 117 lop~ 8000;
#X obj 17 138 lop~ 8000;
#X obj 99 216 *~;
#X obj 187 216 *~;
#X obj 99 317 *~;
#X obj 116 271 +~;
#X obj 99 337 bp~ 6000 7;
#X obj 99 358 hip~ 4000;
#X obj 99 240 *~;
#X obj 99 168 *~ -90;
#X obj 99 144 +~ 1;
#X obj 143 96 lop~ 2;
#X obj 143 72 lop~ 2;
#X obj 99 120 *~ 30;
#X obj 187 120 *~ 10;
#X obj 187 144 +~ 1;
#X obj 187 168 *~ -20;
#X obj 99 192 phasor~;
#X obj 187 192 phasor~;
#X obj 116 295 lop~ 70;
#X obj 307 103 metro 3000;
#X obj 308 78 loadbang;
#X obj 375 78 bng 15 250 50 0 empty empty empty 0 -6 0 8 -262144 -1
-1;
#X obj 308 151 sel 0 1;
#X obj 99 402 *~;
#X obj 157 379 lop~ 1;
#X msg 279 198 0;
#X msg 314 198 1;
#X obj 307 128 random 3;
#X obj 99 380 *~ 0.1;
#X obj 98 468 outlet~;
#X obj 297 437 switch~;
#X obj 297 416 r switch-circada;
#X connect 0 0 1 0;
#X connect 0 0 15 0;
#X connect 1 0 2 0;
#X connect 2 0 3 0;
#X connect 3 0 4 0;
#X connect 4 0 7 0;
#X connect 5 0 11 0;
#X connect 5 0 11 1;
#X connect 6 0 8 1;
#X connect 7 0 9 0;
#X connect 8 0 22 0;
#X connect 9 0 10 0;
#X connect 10 0 32 0;
#X connect 11 0 8 0;
#X connect 12 0 20 0;
#X connect 13 0 12 0;
#X connect 14 0 16 0;
#X connect 14 0 17 0;
#X connect 15 0 14 0;
#X connect 16 0 13 0;
#X connect 17 0 18 0;
#X connect 18 0 19 0;
#X connect 19 0 21 0;
#X connect 20 0 5 0;
#X connect 20 0 5 1;
#X connect 21 0 6 0;
#X connect 21 0 6 1;
#X connect 22 0 7 1;
#X connect 23 0 31 0;
#X connect 24 0 23 0;
#X connect 25 0 23 0;
#X connect 26 0 29 0;
#X connect 26 1 30 0;
#X connect 27 0 33 0;
#X connect 28 0 27 1;
#X connect 29 0 28 0;
#X connect 30 0 28 0;
#X connect 31 0 26 0;
#X connect 32 0 27 0;
#X connect 35 0 34 0;
#X restore 454 508 pd circada1;
#N canvas 0 22 590 525 flutter 0;
#X obj 121 158 sig~ 1;
#X obj 121 190 /~;
#X obj 174 167 +~ 1;
#X obj 175 141 *~;
#X obj 175 90 osc~ 20;
#X obj 230 167 noise~;
#X obj 121 215 *~;
#X obj 230 189 hip~ 8000;
#X obj 175 112 *~ 14;
#X obj 320 68 noise~;
#X obj 322 159 clip~ 0 1;
#X obj 322 135 *~ 1e+009;
#X obj 121 309 *~;
#X obj 121 241 bp~ 10000 15;
#X obj 230 213 *~ 0.1;
#X obj 304 226 clip~ 0 1;
#X obj 305 251 *~;
#X obj 303 181 osc~ 0.3;
#X obj 321 90 lop~ 0.2;
#X obj 322 112 lop~ 0.2;
#X obj 121 342 *~ 0.2;
#X obj 303 203 *~ 3;
#X obj 121 411 outlet~;
#X obj 334 314 r switch-flutter;
#X obj 341 346 switch~;
#X connect 0 0 1 0;
#X connect 1 0 6 0;
#X connect 2 0 1 1;
#X connect 3 0 2 0;
#X connect 4 0 8 0;
#X connect 5 0 7 0;
#X connect 6 0 13 0;
#X connect 7 0 6 1;
#X connect 7 0 14 0;
#X connect 8 0 3 0;
#X connect 8 0 3 1;
#X connect 9 0 18 0;
#X connect 10 0 16 1;
#X connect 11 0 10 0;
#X connect 12 0 20 0;
#X connect 13 0 12 0;
#X connect 14 0 13 0;
#X connect 15 0 16 0;
#X connect 16 0 12 1;
#X connect 17 0 21 0;
#X connect 18 0 19 0;
#X connect 19 0 11 0;
#X connect 20 0 22 0;
#X connect 21 0 15 0;
#X connect 23 0 24 0;
#X restore 353 487 pd flutter;
#N canvas 0 22 881 511 birds 0;
#N canvas 0 22 450 300 hm-bird 0;
#X obj 156 123 osc~;
#X obj 140 80 r~ \$0-amp1;
#X obj 140 147 *~;
#X obj 233 123 osc~;
#X obj 217 147 *~;
#X obj 217 80 r~ \$0-amp2;
#X obj 156 54 r~ \$0-frq1;
#X text 273 171 amp mod;
#X text 35 170 freq mod;
#X obj 123 223 osc~;
#X obj 123 248 *~;
#X obj 202 173 sig~ 1;
#X obj 202 203 -~;
#X obj 140 173 +~ 1;
#X obj 124 199 *~;
#X obj 125 33 r~ \$0-ifrq;
#X obj 123 273 outlet~;
#X text 64 7 Bird call - based on Hans Mikelson 2000;
#X obj 234 54 r~ \$0-frq2;
#X connect 0 0 2 1;
#X connect 1 0 2 0;
#X connect 2 0 13 0;
#X connect 3 0 4 1;
#X connect 4 0 12 1;
#X connect 5 0 4 0;
#X connect 6 0 0 0;
#X connect 9 0 10 0;
#X connect 10 0 16 0;
#X connect 11 0 12 0;
#X connect 12 0 10 1;
#X connect 13 0 14 1;
#X connect 14 0 9 0;
#X connect 15 0 14 0;
#X connect 18 0 3 0;
#X restore 123 143 pd hm-bird;
#X obj 105 188 *~ 0.1;
#X obj 12 211 s~ \$0-ifrq;
#X obj 212 208 s~ \$0-frq1;
#X obj 426 205 s~ \$0-amp1;
#X obj 532 202 s~ \$0-amp2;
#X obj 321 208 s~ \$0-frq2;
#X obj 13 189 sig~;
#X obj 213 183 *~ 3000;
#X obj 213 163 *~;
#X obj 236 120 * 900;
#X obj 224 100 * 900;
#X obj 320 181 *~ 3000;
#X obj 320 159 *~;
#X obj 343 116 * 900;
#X obj 331 96 * 900;
#X obj 425 156 *~;
#X obj 448 113 * 900;
#X obj 436 93 * 900;
#X obj 531 153 *~;
#X obj 554 110 * 900;
#X obj 542 90 * 900;
#X obj 128 99 * 900;
#X obj 116 79 * 900;
#X obj 106 167 *~;
#X obj 13 147 * 7000;
#X obj 116 16 r \$0-atk;
#X obj 128 36 r \$0-dcy;
#X obj 230 12 r \$0-fmod1;
#X obj 224 31 r \$0-atkf1;
#X obj 335 9 r \$0-fmod2;
#X obj 331 31 r \$0-atkf2;
#X obj 236 52 r \$0-dcyf1;
#X obj 343 52 r \$0-dcyf2;
#X obj 442 6 r \$0-amod1;
#X obj 436 26 r \$0-atka1;
#X obj 447 47 r \$0-dcya1;
#X obj 548 5 r \$0-amod2;
#X obj 542 27 r \$0-atka2;
#X obj 554 49 r \$0-dcya2;
#X obj 13 17 r \$0-ifrq;
#X obj 531 71 r \$0-trig;
#X obj 425 71 r \$0-trig;
#X obj 320 75 r \$0-trig;
#X obj 213 79 r \$0-trig;
#X obj 105 58 r \$0-trig;
#X obj 13 168 + 300;
#X obj 106 212 outlet~;
#X obj 105 122 c_ead;
#X obj 213 143 c_ead;
#X obj 320 139 c_ead;
#X obj 425 136 c_ead;
#X obj 531 133 c_ead;
#X obj 2 340 r switch-bird;
#X obj 2 366 switch~;
#X connect 0 0 24 1;
#X connect 1 0 47 0;
#X connect 7 0 2 0;
#X connect 8 0 3 0;
#X connect 9 0 8 0;
#X connect 10 0 49 2;
#X connect 11 0 49 1;
#X connect 12 0 6 0;
#X connect 13 0 12 0;
#X connect 14 0 50 2;
#X connect 15 0 50 1;
#X connect 16 0 4 0;
#X connect 17 0 51 2;
#X connect 18 0 51 1;
#X connect 19 0 5 0;
#X connect 20 0 52 2;
#X connect 21 0 52 1;
#X connect 22 0 48 2;
#X connect 23 0 48 1;
#X connect 24 0 1 0;
#X connect 25 0 46 0;
#X connect 26 0 23 0;
#X connect 27 0 22 0;
#X connect 28 0 9 1;
#X connect 29 0 11 0;
#X connect 30 0 13 1;
#X connect 31 0 15 0;
#X connect 32 0 10 0;
#X connect 33 0 14 0;
#X connect 34 0 16 1;
#X connect 35 0 18 0;
#X connect 36 0 17 0;
#X connect 37 0 19 1;
#X connect 38 0 21 0;
#X connect 39 0 20 0;
#X connect 40 0 25 0;
#X connect 41 0 52 0;
#X connect 42 0 51 0;
#X connect 43 0 50 0;
#X connect 44 0 49 0;
#X connect 45 0 48 0;
#X connect 46 0 7 0;
#X connect 48 0 24 0;
#X connect 49 0 9 0;
#X connect 50 0 13 0;
#X connect 51 0 16 0;
#X connect 52 0 19 0;
#X connect 53 0 54 0;
#X restore 35 511 pd birds;
#N canvas 460 88 575 163 presets-handling 0;
#X obj 130 32 bng 15 80 50 0 \$0-savetweet empty empty 0 -6 0 8 -262144
-1 -1;
#N canvas 0 22 672 317 tweet 0;
#X obj 154 84 inlet;
#X obj 154 108 unpack s f f f f f f f f f f f f f f f;
#X obj 29 252 s \$0-name;
#X obj 28 275 s \$0-ifrq;
#X obj 120 252 s \$0-atk;
#X obj 132 272 s \$0-dcy;
#X obj 234 248 s \$0-fmod1;
#X obj 228 267 s \$0-atkf1;
#X obj 240 288 s \$0-dcyf1;
#X obj 339 245 s \$0-fmod2;
#X obj 335 267 s \$0-atkf2;
#X obj 347 288 s \$0-dcyf2;
#X obj 446 242 s \$0-amod1;
#X obj 439 262 s \$0-atka1;
#X obj 451 283 s \$0-dcya1;
#X obj 553 240 s \$0-amod2;
#X obj 546 263 s \$0-atka2;
#X obj 558 285 s \$0-dcya2;
#X connect 0 0 1 0;
#X connect 1 0 2 0;
#X connect 1 1 3 0;
#X connect 1 2 4 0;
#X connect 1 3 5 0;
#X connect 1 4 6 0;
#X connect 1 5 7 0;
#X connect 1 6 8 0;
#X connect 1 7 9 0;
#X connect 1 8 10 0;
#X connect 1 9 11 0;
#X connect 1 10 12 0;
#X connect 1 11 13 0;
#X connect 1 12 14 0;
#X connect 1 13 15 0;
#X connect 1 14 16 0;
#X connect 1 15 17 0;
#X restore 3 88 pd tweet loader;
#N canvas 0 22 797 538 tweet 0;
#X obj 149 299 r \$0-atk;
#X obj 166 319 r \$0-dcy;
#X obj 182 238 r \$0-fmod1;
#X obj 199 257 r \$0-atkf1;
#X obj 232 173 r \$0-fmod2;
#X obj 248 195 r \$0-atkf2;
#X obj 215 278 r \$0-dcyf1;
#X obj 265 216 r \$0-dcyf2;
#X obj 281 111 r \$0-amod1;
#X obj 298 131 r \$0-atka1;
#X obj 314 152 r \$0-dcya1;
#X obj 331 29 r \$0-amod2;
#X obj 347 51 r \$0-atka2;
#X obj 364 73 r \$0-dcya2;
#X obj 133 339 r \$0-ifrq;
#X obj 117 385 pack s f f f f f f f f f f f f f f f;
#X obj 117 123 r \$0-savetweet;
#X msg 117 364 tweet;
#X obj 117 442 outlet;
#X msg 117 414 set \$1 \$2 \$3 \$4 \$5 \$6 \$7 \$8 \$9 \$10 \$11 \$12
\$13 \$14 \$15 \$16;
#X connect 0 0 15 2;
#X connect 1 0 15 3;
#X connect 2 0 15 4;
#X connect 3 0 15 5;
#X connect 4 0 15 7;
#X connect 5 0 15 8;
#X connect 6 0 15 6;
#X connect 7 0 15 9;
#X connect 8 0 15 10;
#X connect 9 0 15 11;
#X connect 10 0 15 12;
#X connect 11 0 15 13;
#X connect 12 0 15 14;
#X connect 13 0 15 15;
#X connect 14 0 15 1;
#X connect 15 0 19 0;
#X connect 16 0 17 0;
#X connect 17 0 15 0;
#X connect 19 0 18 0;
#X restore 130 53 pd tweet saver;
#N canvas 0 22 592 533 tweet 0;
#X msg 23 89 triple-tailed-tree-troubler 0.387755 0.0204082 0.204082
0.367347 0.571429 0.734694 0.918367 1 0.77551 0.571429 0.367347 0.22449
0.0204082 0.183673 0.44898;
#X obj 23 59 select 0 1 2 3 4 5 6 7;
#X obj 23 28 inlet;
#X obj 10 543 s \$0-tweetload;
#X msg 23 145 speckled-throated-spew 0.183673 0.591837 0.387755 0.0104082
0.530612 0.346939 0.244898 0.55102 0.122449 0.387755 1 0.612245 0.346939
0.816327 0.653061;
#X msg 23 200 lesser-spotted-grinchwarbler 0.55102 0.591837 0.387755
0.0716327 0.0204082 0.346939 0.0204082 0.55102 0.122449 0.632653 1
0.612245 0.346939 0.816327 0.653061;
#X msg 23 255 long-toed-mudhopper 0.163265 0.22449 0.183673 0.00306122
0.122449 1 0.0612245 1 0.77551 0.979592 0.204082 0.734694 1 0.142857
0.612245;
#X msg 23 310 yellow-yiffled-yaffle 0.0204082 0.367347 0.183673 0.0612245
0 1 0.285714 0.22449 0.489796 0.367347 0.387755 0.734694 0.204082 0.428571
0.142857;
#X msg 23 368 pointy-beaked-beetlefiend 0.428571 0.204082 0.489796
0.0204082 0.795918 0.591837 0.285714 0.22449 0.489796 0.204082 0.836735
0.734694 0.77551 0.428571 0.142857;
#X msg 22 423 african-boojuboolubala 0.306122 0.959184 0.0408163 1
0 0.591837 0.285714 0.22449 0.489796 0.204082 0.836735 0.734694 0.77551
0.428571 0.142857;
#X msg 21 479 common-muckoink 0.0204082 0.8 0.0816327 0.0204082 0.001
0.99 0.0204082 0.01 1 1 0.142857 0.734694 1 0.0612245 0.530612;
#X connect 0 0 3 0;
#X connect 1 0 0 0;
#X connect 1 1 4 0;
#X connect 1 2 5 0;
#X connect 1 3 6 0;
#X connect 1 4 7 0;
#X connect 1 5 8 0;
#X connect 1 6 9 0;
#X connect 1 7 10 0;
#X connect 2 0 1 0;
#X connect 4 0 3 0;
#X connect 5 0 3 0;
#X connect 6 0 3 0;
#X connect 7 0 3 0;
#X connect 8 0 3 0;
#X connect 9 0 3 0;
#X connect 10 0 3 0;
#X restore 4 41 pd tweet presets;
#X obj 3 64 r \$0-tweetload;
#X msg 130 74 tweet 0.163265 0.22449 0.183673 0.554082 0.653061 1 0.0612245
1 0.77551 0.979592 0.204082 0.734694 1 0.142857 0.612245;
#X obj 4 19 inlet;
#X connect 2 0 5 0;
#X connect 4 0 1 0;
#X connect 6 0 3 0;
#X restore -1 282 pd presets-handling;
#X obj -1 14 random 100;
#X msg -1 118 bang;
#X obj -1 -55 f 0;
#X obj 25 -55 + 1;
#X obj -1 -34 mod 200;
#X obj -1 -76 metro 15;
#X obj -1 138 s \$0-trig;
#X obj 147 191 r bird2_onoff;
#X obj -1 303 r bird1_onoff;
#X obj -1 -14 sel 29 37 47 67 89 113 157 197 199;
#X obj -1 95 moses 20;
#X floatatom 181 108 5 0 0 0 - - -;
#X obj -1 245 random 8;
#X obj 177 57 random 30;
#X obj 177 78 + 5;
#X obj 147 318 swap;
#X obj 147 341 pack f f;
#X obj 147 210 t f b;
#X obj 304 313 swap;
#X obj 304 336 pack f f;
#X obj 304 208 t f b;
#X obj 304 189 r bird3_onoff;
#X obj 325 229 random 7;
#X obj 445 315 swap;
#X obj 445 338 pack f f;
#X obj 445 210 t f b;
#X obj 466 232 random 7;
#X obj 445 191 r bird4_onoff;
#X obj 594 317 swap;
#X obj 594 340 pack f f;
#X obj 594 213 t f b;
#X obj 615 239 random 7;
#X obj 594 193 r bird5_onoff;
#X msg 394 91 bang;
#X obj 394 68 moses 20;
#X obj 430 531 *~ 0.25;
#X obj -1 -114 r init;
#X msg -1 -95 1;
#X obj 615 171 r wordbutton-Critters;
#X obj 466 170 r wordbutton-Chirper;
#X obj 325 170 r wordbutton-Frogs;
#X obj 167 169 r wordbutton-Crickets;
#X obj -1 166 r wordbutton-Bird;
#X obj -1 324 s switch-bird;
#X obj 147 382 s switch-cricket;
#X obj 168 402 s switch-cricketjap;
#X obj 304 380 s switch-frog;
#X obj 333 420 s switch-frogres;
#N canvas 0 22 742 638 frogreson 0;
#X obj 111 124 noise~;
#X obj 112 159 *~;
#X obj 161 75 *~;
#X obj 161 100 *~;
#X obj 162 123 *~;
#X obj 112 286 *~;
#X obj 203 139 +~ 450;
#X obj 111 312 *~;
#X obj 162 261 osc~ 12;
#X obj 222 194 loadbang;
#X obj 161 51 osc~ 0.4444;
#X msg 222 216 80;
#X obj 112 208 bp~ 510 220;
#X obj 111 182 bp~ 450 220;
#X obj 205 117 *~ 70;
#X obj 113 262 *~ 60;
#X obj 125 368 lop~ 1;
#X obj 369 158 bng 15 250 50 0 empty empty empty 0 -6 0 8 -262144 -1
-1;
#X obj 302 231 sel 0 1;
#X msg 300 253 0;
#X msg 335 253 1;
#X obj 110 391 *~;
#X obj 301 183 metro 1300;
#X obj 111 471 outlet~;
#X obj 217 393 r switch-frogres;
#X obj 216 416 switch~;
#X obj 154 240 vcf~ 500 1;
#X obj 110 336 *~ 0.9;
#X obj 301 208 random 4;
#X connect 0 0 1 0;
#X connect 1 0 13 0;
#X connect 2 0 3 0;
#X connect 2 0 3 1;
#X connect 2 0 5 1;
#X connect 2 0 14 0;
#X connect 3 0 4 0;
#X connect 3 0 4 1;
#X connect 4 0 1 1;
#X connect 5 0 7 0;
#X connect 6 0 26 1;
#X connect 7 0 27 0;
#X connect 8 0 7 1;
#X connect 9 0 11 0;
#X connect 9 0 22 0;
#X connect 10 0 2 0;
#X connect 10 0 2 1;
#X connect 11 0 26 2;
#X connect 12 0 26 0;
#X connect 13 0 12 0;
#X connect 14 0 6 0;
#X connect 15 0 5 0;
#X connect 16 0 21 1;
#X connect 17 0 22 0;
#X connect 18 0 19 0;
#X connect 18 1 20 0;
#X connect 19 0 16 0;
#X connect 20 0 16 0;
#X connect 21 0 23 0;
#X connect 22 0 28 0;
#X connect 24 0 25 0;
#X connect 26 0 15 0;
#X connect 27 0 21 0;
#X connect 28 0 18 0;
#X restore 253 508 pd frogreson;
#X obj 317 400 s switch-frog2;
#N canvas 0 22 538 497 chirper 0;
#X obj 222 357 *~;
#X obj 222 260 cos~;
#X obj 222 238 +~ 0.25;
#X obj 222 282 clip~ 0 1;
#X obj 237 324 osc~ 12342;
#X obj 251 304 osc~ 5134;
#X obj 239 171 wrap~;
#X obj 223 214 +~;
#X obj 160 133 clip~ 0 1;
#X obj 160 170 wrap~;
#X obj 239 134 clip~ 1 4;
#X obj 205 94 *~ 44;
#X obj 204 71 phasor~ 0.8;
#X obj 222 381 *~ 0.05;
#X obj 220 458 outlet~;
#X obj 381 370 r switch-chirper;
#X obj 381 392 switch~;
#X connect 0 0 13 0;
#X connect 1 0 3 0;
#X connect 2 0 1 0;
#X connect 3 0 0 0;
#X connect 4 0 0 1;
#X connect 5 0 0 1;
#X connect 6 0 7 1;
#X connect 7 0 2 0;
#X connect 8 0 9 0;
#X connect 9 0 7 0;
#X connect 10 0 6 0;
#X connect 11 0 8 0;
#X connect 11 0 10 0;
#X connect 12 0 11 0;
#X connect 13 0 14 0;
#X connect 15 0 16 0;
#X restore 358 508 pd chirper;
#X obj 445 384 s switch-rattler;
#X obj 459 404 s switch-flutter;
#X obj 474 424 s switch-chirper;
#X obj 594 387 s switch-critters;
#X obj 609 407 s switch-critters2;
#X obj 624 428 s switch-circada;
#X obj 594 362 route 0 1 2 3 4 5 6;
#X obj 445 358 route 0 1 2 3 4 5 6;
#X obj 304 356 route 0 1 2 3 4 5 6;
#N canvas 0 22 586 454 cricketjapanese 0;
#X obj 216 113 osc~ 3000;
#X obj 151 119 *~;
#X obj 152 42 osc~ 3.6;
#X obj 151 147 *~;
#X obj 152 69 +~ 1;
#X obj 152 93 *~ 0.5;
#X obj 151 173 *~;
#X obj 217 88 +~ 3000;
#X obj 216 63 *~ 300;
#X obj 151 203 *~;
#X obj 217 40 osc~ 120;
#X obj 296 25 noise~;
#X obj 298 116 clip~ 0 1;
#X obj 298 92 *~ 1e+009;
#X obj 298 69 lop~ 0.1;
#X obj 297 47 lop~ 0.1;
#X obj 151 231 *~;
#X obj 152 346 outlet~;
#X obj 292 225 r switch-cricketjap;
#X obj 294 248 switch~;
#X obj 152 265 *~ 0.06;
#X connect 0 0 9 1;
#X connect 1 0 3 0;
#X connect 1 0 3 1;
#X connect 2 0 4 0;
#X connect 3 0 6 0;
#X connect 3 0 6 1;
#X connect 4 0 5 0;
#X connect 5 0 1 0;
#X connect 5 0 1 1;
#X connect 6 0 9 0;
#X connect 7 0 0 0;
#X connect 8 0 7 0;
#X connect 9 0 16 0;
#X connect 10 0 8 0;
#X connect 11 0 15 0;
#X connect 12 0 16 1;
#X connect 13 0 12 0;
#X connect 14 0 13 0;
#X connect 15 0 14 0;
#X connect 16 0 20 0;
#X connect 18 0 19 0;
#X connect 20 0 17 0;
#X restore 115 509 pd cricketjapanese;
#X obj 342 532 *~ 0.09;
#X obj 35 531 *~ 0.35;
#X obj 99 531 *~ 0.6;
#X obj 168 233 random 4;
#X obj 147 361 route 0 1 2 3;
#X obj 235 531 *~ 0.75;
#X text 67 -113 un compteur très rapide qui va compter jsq à 199 et
qui va envoyer un bang à chaque fois qu'il rencontre un nombre premier
(façon de créer un générateur d'impulsions qui donne une impression
pseudo-aléatoire);
#X text 236 -51 à chaque bang on va générer un nombre aléatoire entre
0 et 99 en utilisant [random 100];
#X text 235 -24 [moses 20] permet du coup de génrer une probabilité
: si le nombre alétoire un inférieur à 20 il va sortir par la sortie
de gauche sinon par la sortie de droite. on aura donc 20% de chance
d'avoir un bang en sortie. Cette valeur est actualisée à la fin de
chaque cycle de compteur;
#X text 735 361 on utilise [switch~] pour activer/desactiver les calculs
dsp dans les patchs de synthèse ci-dessous.;
#X text 738 389 on envoit don un message qui sera reçu dans chaque
patch de synthèse;
#X text 531 508 <- à l'intérieur on trouve un objet [switch~];
#X connect 5 0 76 0;
#X connect 6 0 50 0;
#X connect 7 0 81 0;
#X connect 8 0 81 0;
#X connect 9 0 78 0;
#X connect 10 0 50 0;
#X connect 11 0 50 0;
#X connect 12 0 76 0;
#X connect 13 0 77 0;
#X connect 15 0 25 0;
#X connect 15 0 49 0;
#X connect 16 0 21 0;
#X connect 17 0 18 0;
#X connect 17 0 19 0;
#X connect 18 0 17 1;
#X connect 19 0 24 0;
#X connect 20 0 17 0;
#X connect 22 0 32 0;
#X connect 23 0 58 0;
#X connect 24 0 15 0;
#X connect 24 1 15 0;
#X connect 24 2 15 0;
#X connect 24 3 15 0;
#X connect 24 4 15 0;
#X connect 24 5 15 0;
#X connect 24 6 15 0;
#X connect 24 7 15 0;
#X connect 24 8 28 0;
#X connect 24 8 27 0;
#X connect 25 0 16 0;
#X connect 27 0 14 0;
#X connect 28 0 29 0;
#X connect 29 0 25 1;
#X connect 29 0 26 0;
#X connect 30 0 31 0;
#X connect 30 1 31 1;
#X connect 31 0 80 0;
#X connect 32 0 30 0;
#X connect 32 1 79 0;
#X connect 33 0 34 0;
#X connect 33 1 34 1;
#X connect 34 0 74 0;
#X connect 35 0 33 0;
#X connect 35 1 37 0;
#X connect 36 0 35 0;
#X connect 37 0 33 1;
#X connect 38 0 39 0;
#X connect 38 1 39 1;
#X connect 39 0 73 0;
#X connect 40 0 38 0;
#X connect 40 1 41 0;
#X connect 41 0 38 1;
#X connect 42 0 40 0;
#X connect 43 0 44 0;
#X connect 43 1 44 1;
#X connect 44 0 72 0;
#X connect 45 0 43 0;
#X connect 45 1 46 0;
#X connect 46 0 43 1;
#X connect 47 0 45 0;
#X connect 48 0 37 0;
#X connect 48 0 41 0;
#X connect 48 0 46 0;
#X connect 48 0 79 0;
#X connect 49 0 48 0;
#X connect 50 0 4 0;
#X connect 51 0 52 0;
#X connect 52 0 20 0;
#X connect 53 0 46 0;
#X connect 54 0 41 0;
#X connect 55 0 37 0;
#X connect 56 0 79 0;
#X connect 57 0 27 0;
#X connect 57 0 16 0;
#X connect 63 0 81 0;
#X connect 65 0 76 0;
#X connect 72 0 69 0;
#X connect 72 1 70 0;
#X connect 72 2 71 0;
#X connect 72 3 69 0;
#X connect 72 3 70 0;
#X connect 72 4 69 0;
#X connect 72 4 71 0;
#X connect 72 5 70 0;
#X connect 72 5 71 0;
#X connect 72 6 69 0;
#X connect 72 6 70 0;
#X connect 72 6 71 0;
#X connect 73 0 66 0;
#X connect 73 1 67 0;
#X connect 73 2 68 0;
#X connect 73 3 66 0;
#X connect 73 3 67 0;
#X connect 73 4 66 0;
#X connect 73 4 68 0;
#X connect 73 5 67 0;
#X connect 73 5 68 0;
#X connect 73 6 66 0;
#X connect 73 6 67 0;
#X connect 73 6 68 0;
#X connect 74 0 61 0;
#X connect 74 1 64 0;
#X connect 74 2 62 0;
#X connect 74 3 61 0;
#X connect 74 3 64 0;
#X connect 74 4 61 0;
#X connect 74 4 62 0;
#X connect 74 5 64 0;
#X connect 74 5 62 0;
#X connect 74 6 61 0;
#X connect 74 6 64 0;
#X connect 74 6 62 0;
#X connect 75 0 78 0;
#X connect 76 0 3 0;
#X connect 77 0 0 0;
#X connect 78 0 1 0;
#X connect 79 0 30 1;
#X connect 80 0 59 0;
#X connect 80 1 60 0;
#X connect 80 2 59 0;
#X connect 80 2 60 0;
#X connect 80 3 60 0;
#X connect 80 3 59 0;
#X connect 81 0 2 0;
#X restore -352 465 pd insectarium;
#X obj 776 337 route 0 1 2 3 4;
#X obj 890 337 route 0 1 2 3 4;
#X obj 776 312 pack f f;
#X obj 776 288 f;
#X obj 776 264 t b f;
#X obj 891 313 pack f f;
#X obj 891 289 f;
#X obj 891 266 t b f;
#X floatatom 842 245 5 0 0 0 - - -;
#X obj 776 167 * 2;
#X obj 776 187 - 1;
#X obj 776 244 -;
#X obj 776 225 swap 1;
#X obj 776 206 abs;
#X obj 776 148 r ypos6;
#X obj 888 237 r xpos6;
#X obj 842 193 r move-id6;
#X text -316 79 swap permet d'échanger 2 nombres : une variable entrant
à gauche va être échangé avec la valeur 1 ce qui permettra de calculer
le complément sans avoir à utiliser un système de trigger;
#N canvas 141 0 793 425 five-pan-------------------------------------------------
0;
#X obj 23 46 inlet~;
#X obj 21 217 outlet~;
#X obj 140 44 inlet~;
#X obj 138 215 outlet~;
#X obj 271 35 inlet~;
#X obj 269 206 outlet~;
#X obj 395 35 inlet~;
#X obj 393 206 outlet~;
#X obj 516 37 inlet~;
#X obj 514 208 outlet~;
#X obj 610 -107 inlet;
#X obj 652 -85 inlet;
#X obj 671 -58 inlet;
#X obj 700 -37 inlet;
#X obj 717 -12 inlet;
#X obj 22 183 e_pan;
#X obj 139 181 e_pan;
#X obj 269 172 e_pan;
#X obj 394 172 e_pan;
#X obj 515 174 e_pan;
#X obj 31 227 outlet~;
#X obj 148 225 outlet~;
#X obj 279 216 outlet~;
#X obj 403 216 outlet~;
#X obj 524 218 outlet~;
#X obj 51 154 line;
#X obj 51 89 t f b;
#X obj 51 131 pack f f;
#X msg 78 110 10;
#X obj 168 158 line;
#X obj 168 93 t f b;
#X obj 168 135 pack f f;
#X msg 195 114 10;
#X obj 297 149 line;
#X obj 297 84 t f b;
#X obj 297 126 pack f f;
#X msg 324 105 10;
#X obj 421 148 line;
#X obj 421 83 t f b;
#X obj 421 125 pack f f;
#X msg 448 104 10;
#X obj 536 148 line;
#X obj 536 83 t f b;
#X obj 536 125 pack f f;
#X msg 563 104 10;
#X connect 0 0 15 0;
#X connect 2 0 16 0;
#X connect 4 0 17 0;
#X connect 6 0 18 0;
#X connect 8 0 19 0;
#X connect 10 0 26 0;
#X connect 11 0 30 0;
#X connect 12 0 34 0;
#X connect 13 0 38 0;
#X connect 14 0 42 0;
#X connect 15 0 1 0;
#X connect 15 1 20 0;
#X connect 16 0 3 0;
#X connect 16 1 21 0;
#X connect 17 0 5 0;
#X connect 17 1 22 0;
#X connect 18 0 7 0;
#X connect 18 1 23 0;
#X connect 19 0 9 0;
#X connect 19 1 24 0;
#X connect 25 0 15 1;
#X connect 26 0 27 0;
#X connect 26 1 28 0;
#X connect 27 0 25 0;
#X connect 28 0 27 1;
#X connect 29 0 16 1;
#X connect 30 0 31 0;
#X connect 30 1 32 0;
#X connect 31 0 29 0;
#X connect 32 0 31 1;
#X connect 33 0 17 1;
#X connect 34 0 35 0;
#X connect 34 1 36 0;
#X connect 35 0 33 0;
#X connect 36 0 35 1;
#X connect 37 0 18 1;
#X connect 38 0 39 0;
#X connect 38 1 40 0;
#X connect 39 0 37 0;
#X connect 40 0 39 1;
#X connect 41 0 19 1;
#X connect 42 0 43 0;
#X connect 42 1 44 0;
#X connect 43 0 41 0;
#X connect 44 0 43 1;
#X restore -354 543 pd five-pan-------------------------------------------------
;
#N canvas 0 0 933 558 five-vol-------------------- 0;
#X obj 661 89 inlet;
#X obj 707 90 inlet;
#X obj 751 92 inlet;
#X obj 793 92 inlet;
#X obj 832 92 inlet;
#X obj 50 184 inlet~;
#X obj 48 355 outlet~;
#X obj 82 293 line;
#X obj 82 228 t f b;
#X obj 82 270 pack f f;
#X msg 109 249 10;
#X obj 49 321 *~ 0.5;
#X obj 167 182 inlet~;
#X obj 165 353 outlet~;
#X obj 199 291 line;
#X obj 199 226 t f b;
#X obj 199 268 pack f f;
#X msg 226 247 10;
#X obj 166 319 *~ 0.5;
#X obj 298 173 inlet~;
#X obj 296 344 outlet~;
#X obj 330 282 line;
#X obj 330 217 t f b;
#X obj 330 259 pack f f;
#X msg 357 238 10;
#X obj 297 310 *~ 0.5;
#X obj 422 173 inlet~;
#X obj 420 344 outlet~;
#X obj 454 282 line;
#X obj 454 217 t f b;
#X obj 454 259 pack f f;
#X msg 481 238 10;
#X obj 421 310 *~ 0.5;
#X obj 543 175 inlet~;
#X obj 541 346 outlet~;
#X obj 575 284 line;
#X obj 575 219 t f b;
#X obj 575 261 pack f f;
#X msg 602 240 10;
#X obj 542 312 *~ 0.5;
#X text 53 455 même principe que précédement sauf que cette fois ci
on a en entrée une valeur qui varie en fonction du déplacement des
points.;
#X connect 0 0 8 0;
#X connect 1 0 15 0;
#X connect 2 0 22 0;
#X connect 3 0 29 0;
#X connect 4 0 36 0;
#X connect 5 0 11 0;
#X connect 7 0 11 1;
#X connect 8 0 9 0;
#X connect 8 1 10 0;
#X connect 9 0 7 0;
#X connect 10 0 9 1;
#X connect 11 0 6 0;
#X connect 12 0 18 0;
#X connect 14 0 18 1;
#X connect 15 0 16 0;
#X connect 15 1 17 0;
#X connect 16 0 14 0;
#X connect 17 0 16 1;
#X connect 18 0 13 0;
#X connect 19 0 25 0;
#X connect 21 0 25 1;
#X connect 22 0 23 0;
#X connect 22 1 24 0;
#X connect 23 0 21 0;
#X connect 24 0 23 1;
#X connect 25 0 20 0;
#X connect 26 0 32 0;
#X connect 28 0 32 1;
#X connect 29 0 30 0;
#X connect 29 1 31 0;
#X connect 30 0 28 0;
#X connect 31 0 30 1;
#X connect 32 0 27 0;
#X connect 33 0 39 0;
#X connect 35 0 39 1;
#X connect 36 0 37 0;
#X connect 36 1 38 0;
#X connect 37 0 35 0;
#X connect 38 0 37 1;
#X connect 39 0 34 0;
#X restore -354 517 pd five-vol--------------------;
#X text -16 580 le gros du code se trouve dans ces 4 sous patchs;
#X connect 0 0 10 0;
#X connect 1 0 0 0;
#X connect 2 0 1 0;
#X connect 2 1 0 1;
#X connect 3 0 11 0;
#X connect 4 0 3 0;
#X connect 5 0 4 0;
#X connect 5 1 3 1;
#X connect 6 0 1 1;
#X connect 6 0 4 1;
#X connect 6 0 16 0;
#X connect 7 0 17 0;
#X connect 8 0 5 0;
#X connect 9 0 108 0;
#X connect 9 1 108 1;
#X connect 9 2 108 2;
#X connect 9 3 108 3;
#X connect 9 4 108 4;
#X connect 10 0 108 5;
#X connect 10 1 108 6;
#X connect 10 2 108 7;
#X connect 10 3 108 8;
#X connect 10 4 108 9;
#X connect 11 0 107 5;
#X connect 11 1 107 6;
#X connect 11 2 107 7;
#X connect 11 3 107 8;
#X connect 11 4 107 9;
#X connect 12 0 108 5;
#X connect 12 1 108 6;
#X connect 12 2 108 7;
#X connect 12 3 108 8;
#X connect 12 4 108 9;
#X connect 13 0 107 5;
#X connect 13 1 107 6;
#X connect 13 2 107 7;
#X connect 13 3 107 8;
#X connect 13 4 107 9;
#X connect 17 0 18 0;
#X connect 18 0 21 0;
#X connect 19 0 2 0;
#X connect 20 0 19 0;
#X connect 20 1 19 1;
#X connect 21 0 20 0;
#X connect 22 0 12 0;
#X connect 23 0 22 0;
#X connect 24 0 23 0;
#X connect 24 1 22 1;
#X connect 25 0 13 0;
#X connect 26 0 25 0;
#X connect 27 0 26 0;
#X connect 27 1 25 1;
#X connect 29 0 30 0;
#X connect 30 0 33 0;
#X connect 31 0 24 0;
#X connect 32 0 31 0;
#X connect 32 1 31 1;
#X connect 33 0 32 0;
#X connect 34 0 23 1;
#X connect 34 0 26 1;
#X connect 34 0 28 0;
#X connect 35 0 27 0;
#X connect 36 0 29 0;
#X connect 37 0 43 0;
#X connect 38 0 37 0;
#X connect 39 0 38 0;
#X connect 39 1 37 1;
#X connect 40 0 44 0;
#X connect 41 0 40 0;
#X connect 42 0 41 0;
#X connect 42 1 40 1;
#X connect 43 0 108 5;
#X connect 43 1 108 6;
#X connect 43 2 108 7;
#X connect 43 3 108 8;
#X connect 43 4 108 9;
#X connect 44 0 107 5;
#X connect 44 1 107 6;
#X connect 44 2 107 7;
#X connect 44 3 107 8;
#X connect 44 4 107 9;
#X connect 45 0 108 5;
#X connect 45 1 108 6;
#X connect 45 2 108 7;
#X connect 45 3 108 8;
#X connect 45 4 108 9;
#X connect 46 0 107 5;
#X connect 46 1 107 6;
#X connect 46 2 107 7;
#X connect 46 3 107 8;
#X connect 46 4 107 9;
#X connect 48 0 49 0;
#X connect 49 0 52 0;
#X connect 50 0 39 0;
#X connect 51 0 50 0;
#X connect 51 1 50 1;
#X connect 52 0 51 0;
#X connect 53 0 45 0;
#X connect 54 0 53 0;
#X connect 55 0 54 0;
#X connect 55 1 53 1;
#X connect 56 0 46 0;
#X connect 57 0 56 0;
#X connect 58 0 57 0;
#X connect 58 1 56 1;
#X connect 60 0 61 0;
#X connect 61 0 64 0;
#X connect 62 0 55 0;
#X connect 63 0 62 0;
#X connect 63 1 62 1;
#X connect 64 0 63 0;
#X connect 65 0 108 5;
#X connect 65 1 108 6;
#X connect 65 2 108 7;
#X connect 65 3 108 8;
#X connect 65 4 108 9;
#X connect 66 0 107 5;
#X connect 66 1 107 6;
#X connect 66 2 107 7;
#X connect 66 3 107 8;
#X connect 66 4 107 9;
#X connect 67 0 65 0;
#X connect 68 0 67 0;
#X connect 69 0 68 0;
#X connect 69 1 67 1;
#X connect 70 0 66 0;
#X connect 71 0 70 0;
#X connect 72 0 71 0;
#X connect 72 1 70 1;
#X connect 74 0 75 0;
#X connect 75 0 78 0;
#X connect 76 0 69 0;
#X connect 77 0 76 0;
#X connect 77 1 76 1;
#X connect 78 0 77 0;
#X connect 79 0 48 0;
#X connect 80 0 42 0;
#X connect 81 0 38 1;
#X connect 81 0 41 1;
#X connect 81 0 47 0;
#X connect 82 0 60 0;
#X connect 83 0 54 1;
#X connect 83 0 57 1;
#X connect 83 0 59 0;
#X connect 84 0 74 0;
#X connect 85 0 68 1;
#X connect 85 0 71 1;
#X connect 85 0 73 0;
#X connect 86 0 72 0;
#X connect 87 0 58 0;
#X connect 88 0 9 0;
#X connect 88 1 9 1;
#X connect 88 2 9 2;
#X connect 88 3 9 3;
#X connect 88 4 9 4;
#X connect 89 0 108 5;
#X connect 89 1 108 6;
#X connect 89 2 108 7;
#X connect 89 3 108 8;
#X connect 89 4 108 9;
#X connect 90 0 107 5;
#X connect 90 1 107 6;
#X connect 90 2 107 7;
#X connect 90 3 107 8;
#X connect 90 4 107 9;
#X connect 91 0 89 0;
#X connect 92 0 91 0;
#X connect 93 0 92 0;
#X connect 93 1 91 1;
#X connect 94 0 90 0;
#X connect 95 0 94 0;
#X connect 96 0 95 0;
#X connect 96 1 94 1;
#X connect 98 0 99 0;
#X connect 99 0 102 0;
#X connect 100 0 93 0;
#X connect 101 0 100 0;
#X connect 101 1 100 1;
#X connect 102 0 101 0;
#X connect 103 0 98 0;
#X connect 104 0 96 0;
#X connect 105 0 92 1;
#X connect 105 0 95 1;
#X connect 105 0 97 0;
#X connect 107 0 15 0;
#X connect 107 1 15 1;
#X connect 107 2 15 0;
#X connect 107 3 15 1;
#X connect 107 4 15 0;
#X connect 107 5 15 1;
#X connect 107 6 15 0;
#X connect 107 7 15 1;
#X connect 107 8 15 0;
#X connect 107 9 15 1;
#X connect 108 0 107 0;
#X connect 108 1 107 1;
#X connect 108 2 107 2;
#X connect 108 3 107 3;
#X connect 108 4 107 4;
#X restore -439 504 pd dsp-engine;
#X connect 2 0 1 0;
#X connect 2 0 4 0;
#X connect 9 0 4 0;
#X restore 264 332 pd programme;
#X obj 334 45 tgl 20 0 bird1_onoff bird1_onoff.r empty 17 7 0 10 -261234
-1 -1 0 1;
#X obj 334 66 tgl 20 0 bird2_onoff bird2_onoff.r empty 17 7 0 10 -262130
-1 -1 0 1;
#X obj 334 87 tgl 20 0 bird3_onoff bird3_onoff.r empty 17 7 0 10 -204786
-1 -1 0 1;
#X obj 334 108 tgl 20 0 bird4_onoff bird4_onoff.r empty 17 7 0 10 -203904
-1 -1 0 1;
#X obj 334 129 tgl 20 0 bird5_onoff bird5_onoff.r empty 17 7 0 10 -232576
-1 -1 0 1;
#X obj 334 172 taplist 100 20 automove.r automove On Off;
#X obj 248 70 cnv 15 25 25 cnv1 bird1.r empty 20 12 0 14 -258113 -66577
0;
#X obj 263 59 cnv 15 25 25 cnv2 bird2.r empty 20 12 0 14 -257985 -66577
0;
#X obj 198 96 cnv 15 25 25 cnv3 bird3.r empty 20 12 0 14 -4034 -66577
0;
#X obj 200 67 cnv 15 25 25 cnv4 bird4.r empty 20 12 0 14 -191407 -66577
0;
#X obj 102 171 cnv 15 25 25 cnv5 bird5.r empty 20 12 0 14 -159808 -66577
0;
#X obj 334 197 wordbutton 100 30 Shake-all;
#X obj 334 23 taplist 100 20 bird-sel.r bird-sel Bird Crickets Frogs
Chirper Critters;
#X obj 334 229 wordbutton 50 30 B;
#X obj 334 152 wordbutton 100 20 Auto-Move;
#X obj 334 3 wordbutton 100 20 Selection;
#X obj 354 45 wordbutton 80 20 Bird;
#X obj 354 66 wordbutton 80 20 Crickets;
#X obj 354 87 wordbutton 80 20 Frogs;
#X obj 354 108 wordbutton 80 20 Chirper;
#X obj 354 129 wordbutton 80 20 Critters;
#X obj 384 229 wordbutton 50 30 Cc;
#X obj 334 259 wordbutton 50 30 F;
#X obj 384 259 wordbutton 50 30 Ch;
#X obj 360 289 wordbutton 50 30 Ct;
#X obj 3 3 touch 320 320 touch1;
