#N canvas 0 0 450 300 10;
#X obj -7 165 f;
#X obj -7 191 sel 1;
#X obj -7 215 b;
#X obj -7 245 outlet;
#X obj 220 56 inlet;
#X obj 120 163 f;
#X obj 120 189 sel 1;
#X obj 120 213 b;
#X obj 120 243 outlet;
#X obj 254 164 f;
#X obj 254 190 sel 1;
#X obj 254 214 b;
#X obj 254 244 outlet;
#X obj 382 177 f;
#X obj 382 203 sel 1;
#X obj 382 227 b;
#X obj 382 257 outlet;
#X obj 8 141 r \$1;
#X obj 135 139 r \$2;
#X obj 269 140 r \$3;
#X obj 397 153 r \$4;
#X floatatom 60 168 5 0 0 0 - - -;
#X obj -1 102 bng 15 250 50 0 empty empty empty 17 7 0 10 -262144 -1
-1;
#X connect 0 0 1 0;
#X connect 1 0 2 0;
#X connect 2 0 3 0;
#X connect 4 0 0 0;
#X connect 4 0 5 0;
#X connect 4 0 9 0;
#X connect 4 0 13 0;
#X connect 5 0 6 0;
#X connect 6 0 7 0;
#X connect 7 0 8 0;
#X connect 9 0 10 0;
#X connect 10 0 11 0;
#X connect 11 0 12 0;
#X connect 13 0 14 0;
#X connect 14 0 15 0;
#X connect 15 0 16 0;
#X connect 17 0 0 1;
#X connect 17 0 21 0;
#X connect 18 0 5 1;
#X connect 19 0 9 1;
#X connect 20 0 13 1;
#X connect 22 0 0 0;
