#N struct 1037template-marker float a float b;
#N canvas 66 51 488 332 10;
#X declare -path z_nrci_abs;
#X obj 140 32 cnv 15 24 169 empty cursor empty 20 12 0 14 -258113 -66577
0;
#N canvas 683 26 613 295 audio 1;
#N canvas 504 88 862 680 synthetiser 1;
#X obj 198 101 line~;
#X obj 128 6 mtof;
#X obj 127 90 phasor~;
#X obj 126 185 cos~;
#X obj 126 209 +~ 1;
#X obj 126 261 *~;
#X obj 197 128 *~ 0.5;
#X obj 172 161 *~;
#X obj 171 210 cos~;
#X obj 126 234 *~;
#X obj 127 523 outlet~;
#X obj 127 117 -~ 0.5;
#X obj 198 76 pack 1 f;
#X obj 256 49 pack 0 f;
#X obj 256 24 delay;
#X obj 278 129 pack f 10;
#X obj 278 154 line~;
#X obj 172 186 *~;
#X obj 278 105 expr $f1*11+1;
#X obj 127 30 pack f f;
#X obj 127 67 line~;
#X obj 521 244 loadbang;
#X obj 521 318 s \$0-toshape;
#X obj 278 81 r \$0-fromshape;
#X obj 363 -1 * 700;
#X obj 363 25 + 5;
#X obj 363 -26 r \$0-fromdecay;
#X obj 638 370 s \$0-todecay;
#X obj 579 344 s \$0-toattack;
#X obj 313 -51 r \$0-fromattack;
#X obj 313 -27 * 300;
#X obj 313 -2 + 2;
#X msg 521 270 attack 0.1 \, decay 0.3 \, shape 0.5;
#X text 444 79 attack;
#X text 446 58 messages accepted:;
#X text 445 98 decay;
#X text 446 120 glide;
#X text 446 140 shape;
#X text 517 104 + value between 0 and 1;
#X text 446 169 or number as midi note;
#X obj 165 408 / 127;
#X obj 165 432 line~;
#X obj 165 384 t f b;
#X obj 126 471 *~;
#X obj 281 -97 r notetime;
#X obj 127 -97 t f b;
#X obj 194 -26 *;
#X obj 126 -123 unpack 0 0 0;
#X obj 125 -161 inlet;
#X obj 521 292 route shape attack decay;
#X obj 127 496 *~ 0.8;
#X obj 266 -76 f;
#X obj 194 -98 t f b;
#X floatatom 428 -109 5 0 0 0 - - -;
#X obj 15 66 unsig~ 5;
#X floatatom 17 106 5 0 0 0 - - -;
#X floatatom 195 10 5 0 0 0 - - -;
#X msg 205 408 25;
#X obj 143 -39 * 12;
#X obj 128 -18 +;
#X obj 143 -59 random 1;
#X connect 0 0 5 1;
#X connect 0 0 6 0;
#X connect 1 0 19 0;
#X connect 2 0 11 0;
#X connect 3 0 4 0;
#X connect 4 0 9 0;
#X connect 5 0 43 0;
#X connect 6 0 7 1;
#X connect 7 0 17 0;
#X connect 8 0 9 1;
#X connect 9 0 5 0;
#X connect 11 0 3 0;
#X connect 11 0 7 0;
#X connect 12 0 0 0;
#X connect 13 0 0 0;
#X connect 14 0 13 0;
#X connect 15 0 16 0;
#X connect 16 0 17 1;
#X connect 17 0 8 0;
#X connect 18 0 15 0;
#X connect 19 0 20 0;
#X connect 20 0 2 0;
#X connect 20 0 54 0;
#X connect 21 0 32 0;
#X connect 23 0 18 0;
#X connect 24 0 25 0;
#X connect 25 0 13 1;
#X connect 26 0 24 0;
#X connect 29 0 30 0;
#X connect 30 0 31 0;
#X connect 31 0 14 1;
#X connect 31 0 12 1;
#X connect 32 0 49 0;
#X connect 40 0 41 0;
#X connect 41 0 43 1;
#X connect 42 0 40 0;
#X connect 42 1 57 0;
#X connect 43 0 50 0;
#X connect 44 0 51 1;
#X connect 44 0 53 0;
#X connect 45 0 59 0;
#X connect 45 1 14 0;
#X connect 45 1 12 0;
#X connect 45 1 60 0;
#X connect 46 0 19 1;
#X connect 46 0 56 0;
#X connect 47 0 45 0;
#X connect 47 1 42 0;
#X connect 47 2 52 0;
#X connect 48 0 47 0;
#X connect 49 0 22 0;
#X connect 49 1 28 0;
#X connect 49 2 27 0;
#X connect 50 0 10 0;
#X connect 51 0 46 1;
#X connect 52 0 46 0;
#X connect 52 1 51 0;
#X connect 54 0 55 0;
#X connect 57 0 41 1;
#X connect 58 0 59 1;
#X connect 59 0 1 0;
#X connect 60 0 58 0;
#X restore 36 78 pd synthetiser;
#N canvas 465 415 484 300 beats 0;
#X obj -88 -33 expr 15000/$f1;
#X obj -88 -53 r bpm;
#X obj 11 32 metro 500;
#X symbolatom 103 -37 10 0 0 0 - - -;
#X obj 11 -54 r play-pause;
#X obj 11 -33 sel Play Stop;
#X obj 11 53 f 0;
#X obj 37 53 + 1;
#X obj 11 107 s pos;
#X msg 11 -11 0;
#X msg 48 -11 1;
#X obj -88 -12 s notetime;
#X floatatom -49 25 5 0 0 0 - - -;
#X obj 61 10 r notetime;
#X obj 11 75 mod 16;
#X obj 103 92 * 25;
#X obj 103 115 + 65;
#X msg 103 142 \; cursor pos \$1 32;
#X floatatom -34 115 5 0 0 0 - - -;
#X connect 0 0 11 0;
#X connect 0 0 12 0;
#X connect 1 0 0 0;
#X connect 2 0 6 0;
#X connect 4 0 3 0;
#X connect 4 0 5 0;
#X connect 5 0 9 0;
#X connect 5 1 10 0;
#X connect 6 0 7 0;
#X connect 6 0 14 0;
#X connect 7 0 6 1;
#X connect 9 0 2 0;
#X connect 9 0 6 1;
#X connect 10 0 2 0;
#X connect 13 0 2 1;
#X connect 14 0 8 0;
#X connect 14 0 15 0;
#X connect 14 0 18 0;
#X connect 15 0 16 0;
#X connect 16 0 17 0;
#X restore 36 9 pd beats;
#N canvas 683 0 667 680 synth-seq 0;
#X obj 75 -88 r pos;
#X obj 75 -59 sel 0 1 2 3 4 5 6 7 8 9 10 11 12 13 14 15;
#X obj 72 346 outlet;
#X obj 75 -14 onestep2 note-1 glide-1 half-1;
#X obj 85 8 onestep2 note-2 glide-2 half-2;
#X obj 96 29 onestep2 note-3 glide-3 half-3;
#X obj 106 51 onestep2 note-4 glide-4 half-4;
#X obj 116 72 onestep2 note-5 glide-5 half-5;
#X obj 126 94 onestep2 note-6 glide-6 half-6;
#X obj 137 115 onestep2 note-7 glide-7 half-7;
#X obj 147 137 onestep2 note-8 glide-8 half-8;
#X obj 158 158 onestep2 note-9 glide-9 half-9;
#X obj 168 180 onestep2 note-10 glide-10 half-10;
#X obj 179 201 onestep2 note-11 glide-11 half-11;
#X obj 189 223 onestep2 note-12 glide-12 half-12;
#X obj 199 244 onestep2 note-13 glide-13 half-13;
#X obj 209 266 onestep2 note-14 glide-14 half-14;
#X obj 220 287 onestep2 note-15 glide-15 half-15;
#X obj 230 309 onestep2 note-16 glide-16 half-16;
#X connect 0 0 1 0;
#X connect 1 0 3 0;
#X connect 1 1 4 0;
#X connect 1 2 5 0;
#X connect 1 3 6 0;
#X connect 1 4 7 0;
#X connect 1 5 8 0;
#X connect 1 6 9 0;
#X connect 1 7 10 0;
#X connect 1 8 11 0;
#X connect 1 9 12 0;
#X connect 1 10 13 0;
#X connect 1 11 14 0;
#X connect 1 12 15 0;
#X connect 1 13 16 0;
#X connect 1 14 17 0;
#X connect 1 15 18 0;
#X connect 3 0 2 0;
#X connect 4 0 2 0;
#X connect 5 0 2 0;
#X connect 6 0 2 0;
#X connect 7 0 2 0;
#X connect 8 0 2 0;
#X connect 9 0 2 0;
#X connect 10 0 2 0;
#X connect 11 0 2 0;
#X connect 12 0 2 0;
#X connect 13 0 2 0;
#X connect 14 0 2 0;
#X connect 15 0 2 0;
#X connect 16 0 2 0;
#X connect 17 0 2 0;
#X connect 18 0 2 0;
#X restore 36 55 pd synth-seq;
#X obj 166 78 r fxcontrol;
#X obj 166 100 unpack f f;
#X floatatom 241 117 5 0 0 0 - - -;
#X floatatom 276 117 5 0 0 0 - - -;
#X obj 37 241 dac~;
#N canvas 0 0 450 300 objects_send_receives 0;
#X text 67 118 taplist 50 20 rien play-pause Play Stop;
#X text 68 10 touch 250 100 fxcontrol;
#X text 82 218 onestep note1 octave1 glide1 accent1 half1;
#X text 508 295 "numberbox 80 30 numreceive numsend 0 10";
#X text 64 177 numberbox 60 20 numreceive bpm 0 250;
#X text 62 55 taplist 20 20 nothing note-1 Off C C# D Eb E F F# G G#
A Bb B;
#X text 64 82 taplist 20 20 null half-1 /1 /2 /3 /4;
#X restore 37 31 pd objects_send_receives;
#N canvas 0 0 1366 696 drum-seq 0;
#X obj 108 58 sel 0 1 2 3 4 5 6 7 8 9 10 11 12 13 14 15;
#X text 243 13 comment;
#X obj -129 180 d-onestep k-toggle-1 h-toggle-1 s-toggle-1 c-toggle-1
;
#X obj -145 627 outlet;
#X obj -100 627 outlet;
#X obj -57 627 outlet;
#X obj -13 628 outlet;
#X obj -114 202 d-onestep k-toggle-2 h-toggle-2 s-toggle-2 c-toggle-2
;
#X obj -100 228 d-onestep k-toggle-3 h-toggle-3 s-toggle-3 c-toggle-3
;
#X obj -85 250 d-onestep k-toggle-4 h-toggle-4 s-toggle-4 c-toggle-4
;
#X obj -68 273 d-onestep k-toggle-5 h-toggle-5 s-toggle-5 c-toggle-5
;
#X obj -53 295 d-onestep k-toggle-6 h-toggle-6 s-toggle-6 c-toggle-6
;
#X obj -39 321 d-onestep k-toggle-7 h-toggle-7 s-toggle-7 c-toggle-7
;
#X obj -24 343 d-onestep k-toggle-8 h-toggle-8 s-toggle-8 c-toggle-8
;
#X obj 108 24 r pos;
#X obj 240 175 d-onestep k-toggle-9 h-toggle-9 s-toggle-9 c-toggle-9
;
#X obj 255 197 d-onestep k-toggle-10 h-toggle-10 s-toggle-10 c-toggle-10
;
#X obj 269 223 d-onestep k-toggle-11 h-toggle-11 s-toggle-11 c-toggle-11
;
#X obj 284 245 d-onestep k-toggle-12 h-toggle-12 s-toggle-12 c-toggle-12
;
#X obj 301 267 d-onestep k-toggle-13 h-toggle-13 s-toggle-13 c-toggle-13
;
#X obj 316 290 d-onestep k-toggle-14 h-toggle-14 s-toggle-14 c-toggle-14
;
#X obj 330 315 d-onestep k-toggle-15 h-toggle-15 s-toggle-15 c-toggle-15
;
#X obj 345 338 d-onestep k-toggle-16 h-toggle-16 s-toggle-16 c-toggle-16
;
#X connect 0 0 2 0;
#X connect 0 1 7 0;
#X connect 0 2 8 0;
#X connect 0 3 9 0;
#X connect 0 4 10 0;
#X connect 0 5 11 0;
#X connect 0 6 12 0;
#X connect 0 7 13 0;
#X connect 0 8 15 0;
#X connect 0 9 16 0;
#X connect 0 10 17 0;
#X connect 0 11 18 0;
#X connect 0 12 19 0;
#X connect 0 13 20 0;
#X connect 0 14 21 0;
#X connect 0 15 22 0;
#X connect 2 0 3 0;
#X connect 2 1 4 0;
#X connect 2 2 5 0;
#X connect 2 3 6 0;
#X connect 7 0 3 0;
#X connect 7 1 4 0;
#X connect 7 2 5 0;
#X connect 7 3 6 0;
#X connect 8 0 3 0;
#X connect 8 1 4 0;
#X connect 8 2 5 0;
#X connect 8 3 6 0;
#X connect 9 0 3 0;
#X connect 9 1 4 0;
#X connect 9 2 5 0;
#X connect 9 3 6 0;
#X connect 10 0 3 0;
#X connect 10 1 4 0;
#X connect 10 2 5 0;
#X connect 10 3 6 0;
#X connect 11 0 3 0;
#X connect 11 1 4 0;
#X connect 11 2 5 0;
#X connect 11 3 6 0;
#X connect 12 0 3 0;
#X connect 12 1 4 0;
#X connect 12 2 5 0;
#X connect 12 3 6 0;
#X connect 13 0 3 0;
#X connect 13 1 4 0;
#X connect 13 2 5 0;
#X connect 13 3 6 0;
#X connect 14 0 0 0;
#X connect 15 0 3 0;
#X connect 15 1 4 0;
#X connect 15 2 5 0;
#X connect 15 3 6 0;
#X connect 16 0 3 0;
#X connect 16 1 4 0;
#X connect 16 2 5 0;
#X connect 16 3 6 0;
#X connect 17 0 3 0;
#X connect 17 1 4 0;
#X connect 17 2 5 0;
#X connect 17 3 6 0;
#X connect 18 0 3 0;
#X connect 18 1 4 0;
#X connect 18 2 5 0;
#X connect 18 3 6 0;
#X connect 19 0 3 0;
#X connect 19 1 4 0;
#X connect 19 2 5 0;
#X connect 19 3 6 0;
#X connect 20 0 3 0;
#X connect 20 1 4 0;
#X connect 20 2 5 0;
#X connect 20 3 6 0;
#X connect 21 0 3 0;
#X connect 21 1 4 0;
#X connect 21 2 5 0;
#X connect 21 3 6 0;
#X connect 22 0 3 0;
#X connect 22 1 4 0;
#X connect 22 2 5 0;
#X connect 22 3 6 0;
#X restore 58 123 pd drum-seq;
#N canvas 0 0 1366 684 drum-synths 0;
#N canvas 0 22 454 304 (subpatch) 0;
#X array Sample1 22151 float 0;
#X coords 0 1 22150 -1 50 50 1;
#X restore 78 -65 graph;
#N canvas 0 22 458 308 (subpatch) 0;
#X array Sample2 23823 float 0;
#X coords 0 1 23822 -1 50 50 1;
#X restore 184 -65 graph;
#N canvas 0 22 458 308 (subpatch) 0;
#X array Sample3 6687 float 0;
#X coords 0 1 6686 -1 50 50 1;
#X restore 297 -66 graph;
#N canvas 0 22 454 304 (subpatch) 0;
#X array Sample4 24520 float 0;
#X coords 0 1 24519 -1 50 50 1;
#X restore 408 -66 graph;
#X obj 277 -10 tabplay~ Sample3;
#X obj 387 -10 tabplay~ Sample4;
#X obj 57 -11 tabplay~ Sample1;
#X obj 165 -11 tabplay~ Sample2;
#N canvas 0 172 1366 596 ALD 0;
#X msg 404 143 bang;
#X text 481 35 "ALD" enveloppe;
#X obj 514 59 inlet;
#X obj 565 58 inlet;
#X obj 615 58 inlet;
#X obj 418 62 inlet;
#X obj 389 442 outlet~;
#X text 643 143 ENVELOPE SECTION;
#X obj 389 356 vline~;
#X msg 362 255 1;
#X obj 362 275 pack f f;
#X obj 362 296 unpack f f;
#X msg 466 256 0;
#X obj 466 277 pack f f f;
#X obj 466 298 unpack f f f;
#X obj 466 235 delay 5;
#X text 112 293 Attack : sends a 1 to get to in A msec;
#X text 539 234 wait the end of the attack;
#X text 548 264 Length+Decay : 0 to get to in D msec \, after L msec
;
#X connect 0 0 9 0;
#X connect 0 0 15 0;
#X connect 2 0 15 1;
#X connect 3 0 13 2;
#X connect 4 0 13 1;
#X connect 5 0 0 0;
#X connect 8 0 6 0;
#X connect 9 0 10 0;
#X connect 10 0 11 0;
#X connect 11 0 8 0;
#X connect 11 1 8 1;
#X connect 12 0 13 0;
#X connect 13 0 14 0;
#X connect 14 0 8 0;
#X connect 14 1 8 1;
#X connect 14 2 8 2;
#X connect 15 0 12 0;
#X restore 71 45 pd ALD;
#N canvas 0 0 1366 696 ALD 0;
#X msg 404 143 bang;
#X text 481 35 "ALD" enveloppe;
#X obj 514 59 inlet;
#X obj 565 58 inlet;
#X obj 615 58 inlet;
#X obj 418 62 inlet;
#X obj 389 442 outlet~;
#X text 643 143 ENVELOPE SECTION;
#X obj 389 356 vline~;
#X msg 362 255 1;
#X obj 362 275 pack f f;
#X obj 362 296 unpack f f;
#X msg 466 256 0;
#X obj 466 277 pack f f f;
#X obj 466 298 unpack f f f;
#X obj 466 235 delay 5;
#X text 112 293 Attack : sends a 1 to get to in A msec;
#X text 539 234 wait the end of the attack;
#X text 548 264 Length+Decay : 0 to get to in D msec \, after L msec
;
#X connect 0 0 9 0;
#X connect 0 0 15 0;
#X connect 2 0 15 1;
#X connect 3 0 13 2;
#X connect 4 0 13 1;
#X connect 5 0 0 0;
#X connect 8 0 6 0;
#X connect 9 0 10 0;
#X connect 10 0 11 0;
#X connect 11 0 8 0;
#X connect 11 1 8 1;
#X connect 12 0 13 0;
#X connect 13 0 14 0;
#X connect 14 0 8 0;
#X connect 14 1 8 1;
#X connect 14 2 8 2;
#X connect 15 0 12 0;
#X restore 179 48 pd ALD;
#N canvas 0 0 1366 696 ALD 0;
#X msg 404 143 bang;
#X text 480 -14 "ALD" enveloppe;
#X obj 513 10 inlet;
#X obj 564 9 inlet;
#X obj 614 9 inlet;
#X obj 418 62 inlet;
#X obj 389 442 outlet~;
#X text 643 143 ENVELOPE SECTION;
#X obj 389 356 vline~;
#X msg 362 255 1;
#X obj 362 275 pack f f;
#X obj 362 296 unpack f f;
#X msg 466 256 0;
#X obj 466 277 pack f f f;
#X obj 466 298 unpack f f f;
#X obj 466 235 delay 5;
#X text 112 293 Attack : sends a 1 to get to in A msec;
#X text 539 234 wait the end of the attack;
#X text 548 264 Length+Decay : 0 to get to in D msec \, after L msec
;
#X connect 0 0 9 0;
#X connect 0 0 15 0;
#X connect 2 0 15 1;
#X connect 3 0 13 2;
#X connect 4 0 13 1;
#X connect 5 0 0 0;
#X connect 8 0 6 0;
#X connect 9 0 10 0;
#X connect 10 0 11 0;
#X connect 11 0 8 0;
#X connect 11 1 8 1;
#X connect 12 0 13 0;
#X connect 13 0 14 0;
#X connect 14 0 8 0;
#X connect 14 1 8 1;
#X connect 14 2 8 2;
#X connect 15 0 12 0;
#X restore 292 46 pd ALD;
#N canvas 0 72 1366 696 ALD 0;
#X msg 404 143 bang;
#X text 481 35 "ALD" enveloppe;
#X obj 514 59 inlet;
#X obj 565 58 inlet;
#X obj 615 58 inlet;
#X obj 418 62 inlet;
#X obj 389 442 outlet~;
#X text 643 143 ENVELOPE SECTION;
#X obj 389 356 vline~;
#X msg 362 255 1;
#X obj 362 275 pack f f;
#X obj 362 296 unpack f f;
#X msg 466 256 0;
#X obj 466 277 pack f f f;
#X obj 466 298 unpack f f f;
#X obj 466 235 delay 5;
#X text 112 293 Attack : sends a 1 to get to in A msec;
#X text 539 234 wait the end of the attack;
#X text 548 264 Length+Decay : 0 to get to in D msec \, after L msec
;
#X connect 0 0 9 0;
#X connect 0 0 15 0;
#X connect 2 0 15 1;
#X connect 3 0 13 2;
#X connect 4 0 13 1;
#X connect 5 0 0 0;
#X connect 8 0 6 0;
#X connect 9 0 10 0;
#X connect 10 0 11 0;
#X connect 11 0 8 0;
#X connect 11 1 8 1;
#X connect 12 0 13 0;
#X connect 13 0 14 0;
#X connect 14 0 8 0;
#X connect 14 1 8 1;
#X connect 14 2 8 2;
#X connect 15 0 12 0;
#X restore 407 44 pd ALD;
#X obj 56 68 *~;
#X obj 164 69 *~;
#X obj 276 67 *~;
#X obj 388 66 *~;
#X obj 53 -222 t b b;
#X obj 136 -218 t b b;
#X obj 218 -218 t b b;
#X obj 301 -214 t b b;
#X obj 211 96 tanh~;
#X obj 210 153 outlet~;
#X obj 669 -258 r soundpack;
#X msg 669 -231 symbol \$1;
#X msg 667 -179 0;
#X msg 700 -179 1;
#X msg 732 -177 2;
#X obj 581 -65 loadbang;
#X msg 647 -15 10;
#X msg 583 -16 2;
#X msg 616 -16 250;
#X obj 53 -245 inlet;
#X obj 136 -242 inlet;
#X obj 217 -244 inlet;
#X obj 295 -247 inlet;
#X obj 23 -43 bng 15 250 50 0 empty empty empty 17 7 0 10 -262144 -1
-1;
#X obj 210 125 *~ 0.5;
#N canvas 2 0 1364 651 soundbanks 0;
#X msg -230 494 read -resize 44857_stomachache_crashbrushtap.wav Sample4
;
#X obj 963 597 soundfiler;
#X obj -349 302 r init;
#X msg 172 483 read -resize 14519_blaster78_revkickbuzz1.wav Sample4
;
#X msg 138 386 read -resize 14518_blaster78_quietglitch1.wav Sample1
;
#X msg 155 419 read -resize 14510_blaster78_clapchord1.wav Sample2
;
#X msg 164 443 read -resize 14515_blaster78_kickclapchord1.wav Sample3
;
#X obj 126 -30 inlet;
#X msg 1201 331 read -resize 22738_FranciscoPadilla_35_Bass_Drum_BasketBall.wav
Sample1;
#X msg 1221 379 read -resize 22740_FranciscoPadilla_37_Click_Finger.wav
Sample2;
#X msg 1233 425 read -resize 22745_FranciscoPadilla_42_Closed_High_Hat.wav
Sample3;
#X msg 1241 465 read -resize 22755_FranciscoPadilla_52_Chinese_Cymbal.wav
Sample4;
#X msg 823 330 read -resize 22772_FranciscoPadilla_69_Cabasa.wav Sample1
;
#X msg 843 378 read -resize 22773_FranciscoPadilla_70_Maracas.wav Sample2
;
#X msg 855 424 read -resize 22778_FranciscoPadilla_75_Claves.wav Sample3
;
#X obj 113 101 sel 0 1 2 3 4;
#X msg 484 377 read -resize 5983_user_56891b_drum52.wav Sample1;
#X msg 518 474 read -resize 5976_user_56891b_drum42.wav Sample4;
#X msg 507 441 read -resize 5986_user_56891b_drum65.wav Sample3;
#X msg 501 410 read -resize 5987_user_56891b_drum70.wav Sample2;
#X msg 863 457 read -resize 22784_FranciscoPadilla_81_Open_Triagle.wav
Sample4;
#X msg -290 398 read -resize 44855_stomachache_bd2.wav Sample1;
#X msg -266 423 read -resize 44859_stomachache_hihatbrushtight2.wav
Sample2;
#X msg -243 450 read -resize 44867_stomachache_snarebrushlighttap.wav
Sample3;
#X connect 0 0 1 0;
#X connect 2 0 21 0;
#X connect 2 0 22 0;
#X connect 2 0 23 0;
#X connect 2 0 0 0;
#X connect 3 0 1 0;
#X connect 4 0 1 0;
#X connect 5 0 1 0;
#X connect 6 0 1 0;
#X connect 7 0 15 0;
#X connect 8 0 1 0;
#X connect 9 0 1 0;
#X connect 10 0 1 0;
#X connect 11 0 1 0;
#X connect 12 0 1 0;
#X connect 13 0 1 0;
#X connect 14 0 1 0;
#X connect 15 0 21 0;
#X connect 15 0 22 0;
#X connect 15 0 23 0;
#X connect 15 0 0 0;
#X connect 15 1 4 0;
#X connect 15 1 5 0;
#X connect 15 1 6 0;
#X connect 15 1 3 0;
#X connect 15 2 16 0;
#X connect 15 2 19 0;
#X connect 15 2 18 0;
#X connect 15 2 17 0;
#X connect 15 3 12 0;
#X connect 15 3 13 0;
#X connect 15 3 14 0;
#X connect 15 3 20 0;
#X connect 15 4 8 0;
#X connect 15 4 9 0;
#X connect 15 4 10 0;
#X connect 15 4 11 0;
#X connect 16 0 1 0;
#X connect 17 0 1 0;
#X connect 18 0 1 0;
#X connect 19 0 1 0;
#X connect 20 0 1 0;
#X connect 21 0 1 0;
#X connect 22 0 1 0;
#X connect 23 0 1 0;
#X restore 700 -103 pd soundbanks;
#X msg 764 -177 3;
#X msg 797 -177 4;
#X obj 669 -205 sel SB1 SB2 SB3 SB4 SB5;
#X obj 486 -120 bng 15 250 50 0 empty empty empty 17 7 0 10 -262144
-1 -1;
#X connect 4 0 14 0;
#X connect 5 0 15 0;
#X connect 6 0 12 0;
#X connect 7 0 13 0;
#X connect 8 0 12 1;
#X connect 9 0 13 1;
#X connect 10 0 14 1;
#X connect 11 0 15 1;
#X connect 12 0 20 0;
#X connect 13 0 20 0;
#X connect 14 0 20 0;
#X connect 15 0 20 0;
#X connect 16 0 6 0;
#X connect 16 1 8 0;
#X connect 17 0 7 0;
#X connect 17 1 9 0;
#X connect 18 0 4 0;
#X connect 18 1 10 0;
#X connect 19 0 5 0;
#X connect 19 1 11 0;
#X connect 20 0 36 0;
#X connect 22 0 23 0;
#X connect 23 0 40 0;
#X connect 24 0 37 0;
#X connect 25 0 37 0;
#X connect 26 0 37 0;
#X connect 27 0 29 0;
#X connect 27 0 30 0;
#X connect 27 0 28 0;
#X connect 28 0 8 3;
#X connect 28 0 11 3;
#X connect 28 0 10 3;
#X connect 28 0 9 3;
#X connect 29 0 8 1;
#X connect 29 0 11 1;
#X connect 29 0 10 1;
#X connect 29 0 9 1;
#X connect 30 0 8 2;
#X connect 30 0 10 2;
#X connect 30 0 9 2;
#X connect 30 0 11 2;
#X connect 31 0 16 0;
#X connect 32 0 17 0;
#X connect 33 0 18 0;
#X connect 34 0 19 0;
#X connect 35 0 6 0;
#X connect 35 0 8 0;
#X connect 36 0 21 0;
#X connect 38 0 37 0;
#X connect 39 0 37 0;
#X connect 40 0 24 0;
#X connect 40 1 25 0;
#X connect 40 2 26 0;
#X connect 40 3 38 0;
#X connect 40 4 39 0;
#X connect 41 0 5 0;
#X connect 41 0 11 0;
#X restore 58 143 pd drum-synths;
#X obj 342 117 loadbang;
#N canvas 642 61 450 300 ringmod 0;
#X obj 211 40 inlet;
#X obj 46 34 inlet~;
#X text 253 40 stream of incoming data values (0 - 100);
#X text 95 34 audio input;
#X text 43 383 one inlet~: audio data for processing;
#X text 43 411 one outlet~: processed audio;
#X text 43 397 one inlet: values interpreted as MIDI pitches (0-100)
;
#X obj 46 311 outlet~;
#X obj 211 208 line~;
#X obj 211 189 pack;
#X msg 234 163 5;
#X obj 211 101 mtof;
#X obj 211 60 clip 0 100;
#X text 103 310 audio output;
#X text 42 353 ring modulate an input signal;
#X text 43 339 milo-sfx-ringmod~.pd;
#X obj 195 250 *~;
#X obj 211 230 osc~;
#X obj 211 122 t f b;
#X obj 211 79 t f f;
#X text 42 368 one user-specified value: on/off key assignment;
#X obj 245 101 s pitch-report;
#X obj 599 310 declare -path z_nrci_abs;
#N canvas 0 22 450 300 bypass~ 0;
#X obj 35 32 inlet~;
#X obj 251 35 inlet;
#X obj 35 279 outlet~;
#X obj 51 227 line~;
#X obj 35 252 *~;
#X msg 51 195 1 5;
#X msg 84 195 0 5;
#X text 84 32 audio input;
#X obj 252 278 outlet~;
#X obj 268 226 line~;
#X obj 252 251 *~;
#X msg 268 194 1 5;
#X msg 301 194 0 5;
#X text 290 36 toggle (0/1);
#X obj 251 58 sel 0;
#X obj 238 92 t b b;
#X obj 281 92 t b b;
#X text 90 279 outlet for bypass;
#X text 310 278 outlet for processing;
#X obj 172 92 loadbang;
#X connect 0 0 4 0;
#X connect 0 0 10 0;
#X connect 1 0 14 0;
#X connect 3 0 4 1;
#X connect 4 0 2 0;
#X connect 5 0 3 0;
#X connect 6 0 3 0;
#X connect 9 0 10 1;
#X connect 10 0 8 0;
#X connect 11 0 9 0;
#X connect 12 0 9 0;
#X connect 14 0 15 0;
#X connect 14 1 16 0;
#X connect 15 0 5 0;
#X connect 15 1 12 0;
#X connect 16 0 6 0;
#X connect 16 1 11 0;
#X connect 19 0 5 0;
#X connect 19 0 12 0;
#X restore 70 227 pd bypass~;
#X obj 123 155 r RMon;
#X connect 0 0 12 0;
#X connect 1 0 23 0;
#X connect 8 0 17 0;
#X connect 9 0 8 0;
#X connect 10 0 9 1;
#X connect 11 0 18 0;
#X connect 12 0 19 0;
#X connect 16 0 7 0;
#X connect 17 0 16 1;
#X connect 18 0 9 0;
#X connect 18 1 10 0;
#X connect 19 0 11 0;
#X connect 19 1 21 0;
#X connect 23 0 7 0;
#X connect 23 1 16 0;
#X connect 24 0 23 1;
#X restore 37 188 pd ringmod;
#X obj 166 138 * 100;
#X obj 342 239 s \$0-loadbang;
#N canvas 0 0 467 524 Quantiz 0;
#X obj -64 53 inlet~;
#X obj 48 360 outlet~;
#X obj 48 253 *~;
#X obj 48 317 /~;
#X obj 100 224 pow;
#X msg 107 196 2;
#X obj 119 163 t b f;
#X obj 51 282 expr~ int($v1);
#X obj 269 30 inlet;
#X obj 266 76 clip 0 16;
#N canvas 0 22 450 300 bypass~ 0;
#X obj 35 32 inlet~;
#X obj 251 35 inlet;
#X obj 35 279 outlet~;
#X obj 51 227 line~;
#X obj 35 252 *~;
#X msg 51 195 1 5;
#X msg 84 195 0 5;
#X text 84 32 audio input;
#X obj 252 278 outlet~;
#X obj 268 226 line~;
#X obj 252 251 *~;
#X msg 268 194 1 5;
#X msg 301 194 0 5;
#X text 290 36 toggle (0/1);
#X obj 251 58 sel 0;
#X obj 238 92 t b b;
#X obj 281 92 t b b;
#X text 90 279 outlet for bypass;
#X text 310 278 outlet for processing;
#X obj 172 92 loadbang;
#X connect 0 0 4 0;
#X connect 0 0 10 0;
#X connect 1 0 14 0;
#X connect 3 0 4 1;
#X connect 4 0 2 0;
#X connect 5 0 3 0;
#X connect 6 0 3 0;
#X connect 9 0 10 1;
#X connect 10 0 8 0;
#X connect 11 0 9 0;
#X connect 12 0 9 0;
#X connect 14 0 15 0;
#X connect 14 1 16 0;
#X connect 15 0 5 0;
#X connect 15 1 12 0;
#X connect 16 0 6 0;
#X connect 16 1 11 0;
#X connect 19 0 5 0;
#X connect 19 0 12 0;
#X restore -45 170 pd bypass~;
#X obj 8 98 r Quantize;
#X connect 0 0 10 0;
#X connect 2 0 7 0;
#X connect 3 0 1 0;
#X connect 4 0 2 1;
#X connect 4 0 3 1;
#X connect 5 0 4 0;
#X connect 6 0 5 0;
#X connect 6 1 4 1;
#X connect 7 0 3 0;
#X connect 8 0 9 0;
#X connect 9 0 6 0;
#X connect 10 0 1 0;
#X connect 10 1 2 0;
#X connect 11 0 10 1;
#X restore 38 210 pd Quantiz;
#X obj 223 138 * 8;
#X obj 377 140 r wordbutton-Reset;
#X msg 377 168 0;
#X obj 377 205 s null;
#X obj 420 205 s nothing;
#X obj 480 205 s nada;
#X obj 522 205 s nichts;
#X connect 0 0 12 0;
#X connect 2 0 0 0;
#X connect 3 0 4 0;
#X connect 4 0 5 0;
#X connect 4 0 13 0;
#X connect 4 1 6 0;
#X connect 4 1 16 0;
#X connect 9 0 10 0;
#X connect 9 1 10 1;
#X connect 9 2 10 2;
#X connect 9 3 10 3;
#X connect 10 0 12 0;
#X connect 11 0 14 0;
#X connect 11 0 18 0;
#X connect 12 0 15 0;
#X connect 13 0 12 1;
#X connect 15 0 7 0;
#X connect 15 0 7 1;
#X connect 16 0 15 1;
#X connect 17 0 18 0;
#X connect 18 0 19 0;
#X connect 18 0 20 0;
#X connect 18 0 21 0;
#X connect 18 0 22 0;
#X restore 321 8 pd audio;
#X obj 67 36 tgl 20 0 k-toggle-1 nichts empty 17 7 0 10 -262144 -1
-1 1 1;
#X obj 8 9 taplist 50 20 rien play-pause Play Stop;
#X obj 92 36 tgl 20 0 k-toggle-2 nichts empty 17 7 0 10 -262144 -1
-1 0 1;
#X obj 117 36 tgl 20 0 k-toggle-3 nichts empty 17 7 0 10 -262144 -1
-1 0 1;
#X obj 142 36 tgl 20 0 k-toggle-4 nichts empty 17 7 0 10 -262144 -1
-1 0 1;
#X obj 167 36 tgl 20 0 k-toggle-5 nichts empty 17 7 0 10 -262144 -1
-1 1 1;
#X obj 192 36 tgl 20 0 k-toggle-6 nichts empty 17 7 0 10 -262144 -1
-1 0 1;
#X obj 217 36 tgl 20 0 k-toggle-7 nichts empty 17 7 0 10 -262144 -1
-1 0 1;
#X obj 242 36 tgl 20 0 k-toggle-8 nichts empty 17 7 0 10 -262144 -1
-1 0 1;
#X obj 267 36 tgl 20 0 k-toggle-9 nichts empty 17 7 0 10 -262144 -1
-1 0 1;
#X obj 292 36 tgl 20 0 k-toggle-10 nichts empty 17 7 0 10 -262144 -1
-1 1 1;
#X obj 317 36 tgl 20 0 k-toggle-11 nichts empty 17 7 0 10 -262144 -1
-1 0 1;
#X obj 342 36 tgl 20 0 k-toggle-12 nichts empty 17 7 0 10 -262144 -1
-1 0 1;
#X obj 367 36 tgl 20 0 k-toggle-13 nichts empty 17 7 0 10 -262144 -1
-1 0 1;
#X obj 392 36 tgl 20 0 k-toggle-14 nichts empty 17 7 0 10 -262144 -1
-1 0 1;
#X obj 417 36 tgl 20 0 k-toggle-15 nichts empty 17 7 0 10 -262144 -1
-1 0 1;
#X obj 442 36 tgl 20 0 k-toggle-16 nichts empty 17 7 0 10 -262144 -1
-1 0 1;
#X text 105 11 bpm;
#X text 19 134 Note;
#X text 97 299 |;
#X text 349 202 >;
#X text 345 197 _;
#X obj 67 178 tgl 20 0 glide-1 nada empty 17 7 0 10 -262144 -1 -1 0
1;
#X obj 92 178 tgl 20 0 glide-2 nada empty 17 7 0 10 -262144 -1 -1 0
1;
#X obj 117 178 tgl 20 0 glide-3 nada empty 17 7 0 10 -262144 -1 -1
0 1;
#X obj 142 178 tgl 20 0 glide-4 nada empty 17 7 0 10 -262144 -1 -1
0 1;
#X obj 167 178 tgl 20 0 glide-5 nada empty 17 7 0 10 -262144 -1 -1
0 1;
#X obj 192 178 tgl 20 0 glide-6 nada empty 17 7 0 10 -262144 -1 -1
0 1;
#X obj 217 178 tgl 20 0 glide-7 nada empty 17 7 0 10 -262144 -1 -1
0 1;
#X obj 242 178 tgl 20 0 glide-8 nada empty 17 7 0 10 -262144 -1 -1
0 1;
#X obj 267 178 tgl 20 0 glide-9 nada empty 17 7 0 10 -262144 -1 -1
0 1;
#X obj 292 178 tgl 20 0 glide-10 nada empty 17 7 0 10 -262144 -1 -1
0 1;
#X obj 317 178 tgl 20 0 glide-11 nada empty 17 7 0 10 -262144 -1 -1
0 1;
#X obj 342 178 tgl 20 0 glide-12 nada empty 17 7 0 10 -262144 -1 -1
1 1;
#X obj 367 178 tgl 20 0 glide-13 nada empty 17 7 0 10 -262144 -1 -1
1 1;
#X obj 392 178 tgl 20 0 glide-14 nada empty 17 7 0 10 -262144 -1 -1
0 1;
#X obj 417 178 tgl 20 0 glide-15 nada empty 17 7 0 10 -262144 -1 -1
0 1;
#X obj 442 178 tgl 20 0 glide-16 nada empty 17 7 0 10 -262144 -1 -1
0 1;
#X text 15 177 Glide;
#X text 8 155 Duration;
#X obj 369 229 hsl 80 15 0 1 0 0 \$0-fromattack \$0-toattack empty
-2 -6 1 8 -258113 -1 -1 2890 1;
#X obj 369 262 hsl 80 15 0 1 0 0 \$0-fromdecay \$0-todecay empty -2
-6 1 8 -258113 -1 -1 2370 1;
#X obj 369 295 hsl 80 15 0 1 0 0 \$0-fromshape \$0-toshape empty -2
-6 1 8 -258113 -1 -1 3950 1;
#X text 364 212 Attack;
#X text 364 246 Decay;
#X text 365 278 Shape;
#X text 97 303 v;
#X obj 85 217 tgl 20 0 RMon empty empty 17 7 0 10 -262144 -1 -1 0 1
;
#X obj 85 241 tgl 20 0 Quantize empty empty 17 7 0 10 -262144 -1 -1
0 1;
#X text 31 218 Ring Mod;
#X text 292 201 Ring mod;
#X text 30 243 Quantize;
#X text 39 302 Quantizer;
#X obj 108 217 touch 250 100 fxcontrol;
#X obj 67 59 tgl 20 0 h-toggle-1 nichts empty 17 7 0 10 -262144 -1
-1 0 1;
#X obj 92 59 tgl 20 0 h-toggle-2 nichts empty 17 7 0 10 -262144 -1
-1 0 1;
#X obj 117 59 tgl 20 0 h-toggle-3 nichts empty 17 7 0 10 -262144 -1
-1 1 1;
#X obj 142 59 tgl 20 0 h-toggle-4 nichts empty 17 7 0 10 -262144 -1
-1 0 1;
#X obj 167 59 tgl 20 0 h-toggle-5 nichts empty 17 7 0 10 -262144 -1
-1 0 1;
#X obj 192 59 tgl 20 0 h-toggle-6 nichts empty 17 7 0 10 -262144 -1
-1 0 1;
#X obj 217 59 tgl 20 0 h-toggle-7 nichts empty 17 7 0 10 -262144 -1
-1 0 1;
#X obj 242 59 tgl 20 0 h-toggle-8 nichts empty 17 7 0 10 -262144 -1
-1 0 1;
#X obj 267 59 tgl 20 0 h-toggle-9 nichts empty 17 7 0 10 -262144 -1
-1 1 1;
#X obj 292 59 tgl 20 0 h-toggle-10 nichts empty 17 7 0 10 -262144 -1
-1 1 1;
#X obj 317 59 tgl 20 0 h-toggle-11 nichts empty 17 7 0 10 -262144 -1
-1 0 1;
#X obj 342 59 tgl 20 0 h-toggle-12 nichts empty 17 7 0 10 -262144 -1
-1 0 1;
#X obj 367 59 tgl 20 0 h-toggle-13 nichts empty 17 7 0 10 -262144 -1
-1 0 1;
#X obj 392 59 tgl 20 0 h-toggle-14 nichts empty 17 7 0 10 -262144 -1
-1 0 1;
#X obj 417 59 tgl 20 0 h-toggle-15 nichts empty 17 7 0 10 -262144 -1
-1 0 1;
#X obj 442 59 tgl 20 0 h-toggle-16 nichts empty 17 7 0 10 -262144 -1
-1 0 1;
#X obj 67 82 tgl 20 0 s-toggle-1 nichts empty 17 7 0 10 -262144 -1
-1 0 1;
#X obj 92 82 tgl 20 0 s-toggle-2 nichts empty 17 7 0 10 -262144 -1
-1 0 1;
#X obj 117 82 tgl 20 0 s-toggle-3 nichts empty 17 7 0 10 -262144 -1
-1 0 1;
#X obj 142 82 tgl 20 0 s-toggle-4 nichts empty 17 7 0 10 -262144 -1
-1 1 1;
#X obj 167 82 tgl 20 0 s-toggle-5 nichts empty 17 7 0 10 -262144 -1
-1 0 1;
#X obj 192 82 tgl 20 0 s-toggle-6 nichts empty 17 7 0 10 -262144 -1
-1 0 1;
#X obj 217 82 tgl 20 0 s-toggle-7 nichts empty 17 7 0 10 -262144 -1
-1 0 1;
#X obj 242 82 tgl 20 0 s-toggle-8 nichts empty 17 7 0 10 -262144 -1
-1 0 1;
#X obj 267 82 tgl 20 0 s-toggle-9 nichts empty 17 7 0 10 -262144 -1
-1 0 1;
#X obj 292 82 tgl 20 0 s-toggle-10 nichts empty 17 7 0 10 -262144 -1
-1 0 1;
#X obj 317 82 tgl 20 0 s-toggle-11 nichts empty 17 7 0 10 -262144 -1
-1 0 1;
#X obj 342 82 tgl 20 0 s-toggle-12 nichts empty 17 7 0 10 -262144 -1
-1 0 1;
#X obj 367 82 tgl 20 0 s-toggle-13 nichts empty 17 7 0 10 -262144 -1
-1 1 1;
#X obj 392 82 tgl 20 0 s-toggle-14 nichts empty 17 7 0 10 -262144 -1
-1 1 1;
#X obj 417 82 tgl 20 0 s-toggle-15 nichts empty 17 7 0 10 -262144 -1
-1 0 1;
#X obj 442 82 tgl 20 0 s-toggle-16 nichts empty 17 7 0 10 -262144 -1
-1 0 1;
#X obj 67 105 tgl 20 0 c-toggle-1 nichts empty 17 7 0 10 -262144 -1
-1 0 1;
#X obj 92 105 tgl 20 0 c-toggle-2 nichts empty 17 7 0 10 -262144 -1
-1 0 1;
#X obj 117 105 tgl 20 0 c-toggle-3 nichts empty 17 7 0 10 -262144 -1
-1 0 1;
#X obj 142 105 tgl 20 0 c-toggle-4 nichts empty 17 7 0 10 -262144 -1
-1 1 1;
#X obj 167 105 tgl 20 0 c-toggle-5 nichts empty 17 7 0 10 -262144 -1
-1 0 1;
#X obj 192 105 tgl 20 0 c-toggle-6 nichts empty 17 7 0 10 -262144 -1
-1 0 1;
#X obj 217 105 tgl 20 0 c-toggle-7 nichts empty 17 7 0 10 -262144 -1
-1 0 1;
#X obj 242 105 tgl 20 0 c-toggle-8 nichts empty 17 7 0 10 -262144 -1
-1 0 1;
#X obj 267 105 tgl 20 0 c-toggle-9 nichts empty 17 7 0 10 -262144 -1
-1 0 1;
#X obj 292 105 tgl 20 0 c-toggle-10 nichts empty 17 7 0 10 -262144
-1 -1 0 1;
#X obj 317 105 tgl 20 0 c-toggle-11 nichts empty 17 7 0 10 -262144
-1 -1 0 1;
#X obj 342 105 tgl 20 0 c-toggle-12 nichts empty 17 7 0 10 -262144
-1 -1 0 1;
#X obj 367 105 tgl 20 0 c-toggle-13 nichts empty 17 7 0 10 -262144
-1 -1 0 1;
#X obj 392 105 tgl 20 0 c-toggle-14 nichts empty 17 7 0 10 -262144
-1 -1 0 1;
#X obj 417 105 tgl 20 0 c-toggle-15 nichts empty 17 7 0 10 -262144
-1 -1 0 1;
#X obj 442 105 tgl 20 0 c-toggle-16 nichts empty 17 7 0 10 -262144
-1 -1 0 1;
#X text 16 36 Kick;
#X text 14 61 Hihat;
#X text 13 82 Snare;
#X text 11 106 Cymbal;
#X obj 413 11 taplist 50 20 blah soundpack SB1 SB2 SB3 SB4 SB5;
#X obj 67 11 nbx 3 20 -1e+037 1e+037 0 0 bpm empty empty 0 -8 0 10
-262144 -1 -1 120 256;
#X obj 67 155 taplist 20 20 null half-1 /1 /2 /3 /4;
#X obj 92 155 taplist 20 20 null half-2 /1 /2 /3 /4;
#X obj 117 155 taplist 20 20 null half-3 /1 /2 /3 /4;
#X obj 142 155 taplist 20 20 null half-4 /1 /2 /3 /4;
#X obj 167 155 taplist 20 20 null half-5 /1 /2 /3 /4;
#X obj 192 155 taplist 20 20 null half-6 /1 /2 /3 /4;
#X obj 217 155 taplist 20 20 null half-7 /1 /2 /3 /4;
#X obj 242 155 taplist 20 20 null half-8 /1 /2 /3 /4;
#X obj 267 155 taplist 20 20 null half-9 /1 /2 /3 /4;
#X obj 292 155 taplist 20 20 null half-10 /1 /2 /3 /4;
#X obj 317 155 taplist 20 20 null half-11 /1 /2 /3 /4;
#X obj 342 155 taplist 20 20 null half-12 /1 /2 /3 /4;
#X obj 392 155 taplist 20 20 null half-14 /1 /2 /3 /4;
#X obj 417 155 taplist 20 20 null half-15 /1 /2 /3 /4;
#X obj 367 155 taplist 20 20 null half-13 /1 /2 /3 /4;
#X obj 442 155 taplist 20 20 null half-16 /1 /2 /3 /4;
#X obj 67 132 taplist 20 20 nothing note-1 Off C C# D Eb E F F# G G#
A Bb B;
#X obj 92 132 taplist 20 20 nothing note- Off C C# D Eb E F F# G G#
A Bb B;
#X obj 117 132 taplist 20 20 nothing note-3 Off C C# D Eb E F F# G
G# A Bb B;
#X obj 142 132 taplist 20 20 nothing note-4 Off C C# D Eb E F F# G
G# A Bb B;
#X obj 167 132 taplist 20 20 nothing note-5 Off C C# D Eb E F F# G
G# A Bb B;
#X obj 192 132 taplist 20 20 nothing note-6 Off C C# D Eb E F F# G
G# A Bb B;
#X obj 217 132 taplist 20 20 nothing note-7 Off C C# D Eb E F F# G
G# A Bb B;
#X obj 242 132 taplist 20 20 nothing note-8 Off C C# D Eb E F F# G
G# A Bb B;
#X obj 267 132 taplist 20 20 nothing note-9 Off C C# D Eb E F F# G
G# A Bb B;
#X obj 292 132 taplist 20 20 nothing note-10 Off C C# D Eb E F F# G
G# A Bb B;
#X obj 317 132 taplist 20 20 nothing note-11 Off C C# D Eb E F F# G
G# A Bb B;
#X obj 342 132 taplist 20 20 nothing note-12 Off C C# D Eb E F F# G
G# A Bb B;
#X obj 367 132 taplist 20 20 nothing note-13 Off C C# D Eb E F F# G
G# A Bb B;
#X obj 392 132 taplist 20 20 nothing note-14 Off C C# D Eb E F F# G
G# A Bb B;
#X obj 417 132 taplist 20 20 nothing note-15 Off C C# D Eb E F F# G
G# A Bb B;
#X obj 442 132 taplist 20 20 nothing note-16 Off C C# D Eb E F F# G
G# A Bb B;
#X obj 252 9 wordbutton 50 20 Reset;
