#N struct 1057template-marker float a float b;
#N canvas 5 12 468 328 10;
#X obj 3 -46 cnv 15 480 320 empty empty empty 20 12 0 14 -232576 -66577
0;
#X obj 62 -85 cnv 15 24 150 empty cursor empty 20 12 0 14 -258113 -66577
0;
#N canvas 529 88 686 515 audio 1;
#N canvas 493 34 724 558 synthetiser 0;
#N canvas 157 0 1121 680 playit 0;
#X obj 578 250 pack 0 0;
#X obj 620 126 loadbang;
#X text 649 149 attack time;
#X obj 608 334 line~;
#X obj 578 276 t a b;
#X obj 779 151 r \$0-decay;
#X obj 643 249 f;
#X obj 597 532 -~ 1;
#X obj 598 554 *~ -1;
#X obj 599 595 *~;
#X obj 552 482 s~ \$0-envelope;
#X obj 597 507 r~ \$0-envelope;
#X obj 696 507 r \$0-envamount;
#X msg 656 572 \$1 20;
#X obj 656 596 line~;
#X obj 599 615 -~ 1;
#X obj 600 637 *~ -1;
#X msg 644 305 0 \$1;
#X obj 759 289 r \$0-accent;
#X obj 759 363 line~;
#X obj 551 401 -~;
#X obj 551 436 *~;
#X obj 602 662 s~ \$0-cutoffmod;
#X obj 608 357 expr~ pow($v1 \, 2);
#X obj 710 476 s~ \$0-VCA;
#X obj 722 427 *~;
#X obj 708 450 +~;
#X obj 778 213 + 50;
#X obj 698 546 + 0.1;
#X msg 760 342 \$1 20;
#X obj 589 422 +~ 1;
#X obj 153 27 r \$0-tuning;
#X msg 144 93 \$1 20;
#X obj 143 112 line~;
#X obj 67 124 line~;
#X obj 318 470 r \$0-gain;
#N canvas 0 22 462 312 rh_scalelog 0;
#X obj 20 155 exp;
#X obj 20 107 *;
#X obj 20 130 +;
#X obj 98 87 log;
#X obj 194 84 log;
#X obj 123 123 t b f;
#X obj 123 145 -;
#X obj 20 183 outlet;
#X obj 20 19 inlet;
#X obj 98 23 inlet;
#X obj 194 24 inlet;
#X connect 0 0 7 0;
#X connect 1 0 2 0;
#X connect 2 0 0 0;
#X connect 3 0 2 1;
#X connect 3 0 5 0;
#X connect 4 0 6 0;
#X connect 5 0 6 0;
#X connect 5 1 6 1;
#X connect 6 0 1 1;
#X connect 8 0 1 0;
#X connect 9 0 3 0;
#X connect 10 0 4 0;
#X restore 318 540 pd rh_scalelog;
#X msg 365 516 0.1;
#X msg 411 516 10;
#X obj 255 543 *~;
#X obj 68 514 *~ 2;
#X obj 68 536 -~ 1;
#X obj 25 338 expr~ $v1>0.5;
#X obj 137 271 line~;
#X msg 135 250 \$1 5;
#X obj 152 299 -~ 1;
#X obj 151 319 *~ -1;
#X obj 114 342 *~;
#X obj 27 285 *~;
#X obj 236 139 r \$0-trisquare;
#X obj 75 246 phasor~;
#X obj 67 167 mtof~;
#X obj 67 146 +~;
#X obj 248 661 outlet~;
#X obj 115 408 *~ 0.8;
#X obj 163 542 clip~ 0 1;
#X obj 180 498 r~ \$0-VCA;
#N canvas 454 65 695 704 VCF1 0;
#X obj 97 427 cpole~;
#X obj 95 481 czero~;
#X obj 364 366 *~ 0.01;
#X obj 419 366 *~ 0.01;
#X obj 382 327 cos~;
#X obj 419 328 cos~;
#X obj 418 306 -~ 0.25;
#X obj 399 223 samplerate~;
#X obj 383 245 /~;
#X obj 94 331 inlet~;
#X obj 98 669 outlet~;
#X obj 168 393 *~;
#X obj 196 394 *~;
#X obj 222 258 *~ -0.1;
#X obj 222 279 expr~ exp($v1);
#X obj 222 300 *~ -1;
#X obj 222 322 +~ 0.9999;
#X obj 220 229 clip~ 0.001 100;
#X text 279 610 taken from 3.audio.examples/H12.peaking.pd and modified
;
#X msg 501 200 bang;
#X obj 100 604 +~;
#X obj 216 202 +~ 20;
#X obj 94 516 /~;
#X obj 125 578 *~;
#X obj 259 514 *~;
#X obj 390 178 +~ 20;
#X obj 399 200 loadbang;
#X obj 224 82 r~ \$0-cutoffmod;
#X obj 176 9 r \$0-resonance;
#X obj 186 82 line~;
#X msg 374 54 \$1 20;
#X obj 373 76 line~;
#X obj 374 33 r \$0-cutoff;
#X obj 190 466 s~ \$0-cpole1;
#X obj 210 432 s~ \$0-cpole2;
#X obj 387 444 s~ \$0-cpole3;
#X obj 394 466 s~ \$0-cpole4;
#X obj 167 547 s~ \$0-scale1;
#X obj 258 546 s~ \$0-scale2;
#X text 281 623 by Roman (net-pd) \, and then a bit more by phuture.
;
#X msg 179 58 \$1 20;
#X obj 191 129 *~;
#X obj 382 111 *~;
#X obj 191 181 *~ 20;
#X obj 390 136 *~ 1000;
#X obj 391 157 clip~ 0 2000;
#X obj 312 481 +~ 2;
#X obj 310 458 *~ 8;
#X obj 169 496 *~ 0.5;
#X obj 168 524 +~ 1;
#X obj 98 632 /~ 20;
#X obj 180 34 * 0.9;
#X obj 225 129 +~ 0.25;
#X obj 227 109 *~ 0.4;
#X obj 193 155 clip~ 0 0.7;
#X connect 0 0 1 0;
#X connect 0 1 1 1;
#X connect 1 0 22 0;
#X connect 2 0 1 2;
#X connect 2 0 35 0;
#X connect 3 0 1 3;
#X connect 3 0 36 0;
#X connect 4 0 2 0;
#X connect 4 0 11 0;
#X connect 5 0 3 0;
#X connect 5 0 12 0;
#X connect 6 0 5 0;
#X connect 7 0 8 1;
#X connect 8 0 6 0;
#X connect 8 0 4 0;
#X connect 9 0 0 0;
#X connect 11 0 0 2;
#X connect 11 0 33 0;
#X connect 12 0 0 3;
#X connect 12 0 34 0;
#X connect 13 0 14 0;
#X connect 14 0 15 0;
#X connect 15 0 16 0;
#X connect 16 0 11 1;
#X connect 16 0 12 1;
#X connect 17 0 13 0;
#X connect 19 0 7 0;
#X connect 20 0 50 0;
#X connect 21 0 17 0;
#X connect 22 0 20 0;
#X connect 22 0 23 0;
#X connect 23 0 20 1;
#X connect 24 0 23 1;
#X connect 24 0 38 0;
#X connect 25 0 8 0;
#X connect 26 0 7 0;
#X connect 27 0 42 1;
#X connect 27 0 53 0;
#X connect 28 0 51 0;
#X connect 29 0 41 0;
#X connect 30 0 31 0;
#X connect 31 0 42 0;
#X connect 32 0 30 0;
#X connect 40 0 29 0;
#X connect 41 0 54 0;
#X connect 42 0 44 0;
#X connect 42 0 47 0;
#X connect 43 0 21 0;
#X connect 43 0 48 0;
#X connect 44 0 45 0;
#X connect 45 0 25 0;
#X connect 46 0 24 1;
#X connect 47 0 46 0;
#X connect 48 0 49 0;
#X connect 49 0 22 1;
#X connect 49 0 37 0;
#X connect 50 0 10 0;
#X connect 51 0 40 0;
#X connect 52 0 41 1;
#X connect 53 0 52 0;
#X connect 54 0 24 0;
#X connect 54 0 43 0;
#X restore 92 585 pd VCF1;
#N canvas 0 72 1366 696 VCF2and3 0;
#X obj 208 102 cpole~;
#X obj 206 156 czero~;
#X obj 205 6 inlet~;
#X obj 211 279 +~;
#X obj 205 191 /~;
#X obj 236 253 *~;
#X obj 232 35 r~ \$0-cpole1;
#X obj 239 57 r~ \$0-cpole2;
#X obj 258 112 r~ \$0-cpole3;
#X obj 265 134 r~ \$0-cpole4;
#X obj 235 184 r~ \$0-scale1;
#X obj 257 231 r~ \$0-scale2;
#X obj 211 407 cpole~;
#X obj 209 461 czero~;
#X obj 212 649 outlet~;
#X obj 214 584 +~;
#X obj 208 496 /~;
#X obj 239 558 *~;
#X obj 235 340 r~ \$0-cpole1;
#X obj 242 362 r~ \$0-cpole2;
#X obj 261 417 r~ \$0-cpole3;
#X obj 268 439 r~ \$0-cpole4;
#X obj 238 489 r~ \$0-scale1;
#X obj 260 536 r~ \$0-scale2;
#X obj 215 621 /~ 8;
#X connect 0 0 1 0;
#X connect 0 1 1 1;
#X connect 1 0 4 0;
#X connect 2 0 0 0;
#X connect 3 0 12 0;
#X connect 4 0 3 0;
#X connect 4 0 5 0;
#X connect 5 0 3 1;
#X connect 6 0 0 2;
#X connect 7 0 0 3;
#X connect 8 0 1 2;
#X connect 9 0 1 3;
#X connect 10 0 4 1;
#X connect 11 0 5 1;
#X connect 12 0 13 0;
#X connect 12 1 13 1;
#X connect 13 0 16 0;
#X connect 15 0 24 0;
#X connect 16 0 15 0;
#X connect 16 0 17 0;
#X connect 17 0 15 1;
#X connect 18 0 12 2;
#X connect 19 0 12 3;
#X connect 20 0 13 2;
#X connect 21 0 13 3;
#X connect 22 0 16 1;
#X connect 23 0 17 1;
#X connect 24 0 14 0;
#X restore 104 609 pd VCF2and3;
#X obj 113 635 *~;
#X obj 253 588 tanh~;
#X obj 153 47 * 40;
#X obj 68 188 *~ -1;
#X obj 253 634 *~ 0.75;
#X obj 45 385 *~ -1;
#X obj 43 365 *~ -0.5;
#X obj 14 450 *~;
#X obj 47 413 -~ 1;
#X obj 47 434 *~ -1;
#X obj 255 563 hip~ 5;
#X obj 255 609 tanh~;
#X msg 621 144 10;
#X obj 642 222 delay 10;
#X obj 779 171 expr pow($f1 \, 3);
#X obj 779 194 * 8000;
#X obj 156 69 + 10;
#X obj 599 575 *~ 0.4;
#X obj 697 527 * 0.5;
#X obj 584 398 /~ 4;
#X obj 13 469 tanh~;
#X obj 1 414 +~ 0.4;
#X obj 644 279 * 1;
#X obj 68 85 pack 0 0;
#X text 31 120 pitch;
#X obj 170 -7 unpack 0 0 0 0;
#X obj 171 -34 inlet;
#X obj 236 164 sel Tri Square;
#X msg 237 189 1;
#X msg 274 190 0;
#X obj 404 431 loadbang;
#X obj 135 182 snapshot~;
#X floatatom 139 211 5 0 0 0 - - -;
#X connect 0 0 4 0;
#X connect 1 0 71 0;
#X connect 3 0 23 0;
#X connect 4 0 3 0;
#X connect 4 1 72 0;
#X connect 5 0 73 0;
#X connect 6 0 81 0;
#X connect 7 0 8 0;
#X connect 8 0 76 0;
#X connect 9 0 15 0;
#X connect 11 0 7 0;
#X connect 12 0 77 0;
#X connect 13 0 14 0;
#X connect 14 0 9 1;
#X connect 15 0 16 0;
#X connect 16 0 22 0;
#X connect 17 0 3 0;
#X connect 18 0 29 0;
#X connect 19 0 25 1;
#X connect 19 0 30 0;
#X connect 19 0 78 0;
#X connect 20 0 21 0;
#X connect 21 0 10 0;
#X connect 23 0 26 0;
#X connect 23 0 25 0;
#X connect 23 0 20 0;
#X connect 25 0 26 1;
#X connect 26 0 24 0;
#X connect 27 0 6 1;
#X connect 28 0 13 0;
#X connect 29 0 19 0;
#X connect 30 0 21 1;
#X connect 31 0 61 0;
#X connect 32 0 33 0;
#X connect 33 0 52 1;
#X connect 34 0 52 0;
#X connect 35 0 36 0;
#X connect 36 0 39 1;
#X connect 37 0 36 1;
#X connect 38 0 36 2;
#X connect 39 0 69 0;
#X connect 40 0 41 0;
#X connect 41 0 57 0;
#X connect 42 0 65 0;
#X connect 42 0 64 0;
#X connect 42 0 67 0;
#X connect 42 0 80 0;
#X connect 43 0 45 0;
#X connect 43 0 48 1;
#X connect 44 0 43 0;
#X connect 45 0 46 0;
#X connect 46 0 47 1;
#X connect 47 0 54 0;
#X connect 48 0 42 0;
#X connect 49 0 86 0;
#X connect 50 0 48 0;
#X connect 50 0 47 0;
#X connect 51 0 62 0;
#X connect 52 0 51 0;
#X connect 52 0 90 0;
#X connect 54 0 40 0;
#X connect 55 0 59 1;
#X connect 56 0 55 0;
#X connect 57 0 58 0;
#X connect 58 0 59 0;
#X connect 59 0 39 0;
#X connect 60 0 70 0;
#X connect 61 0 75 0;
#X connect 62 0 50 0;
#X connect 63 0 53 0;
#X connect 64 0 67 0;
#X connect 66 0 79 0;
#X connect 67 0 68 0;
#X connect 68 0 66 1;
#X connect 69 0 60 0;
#X connect 70 0 63 0;
#X connect 71 0 0 1;
#X connect 71 0 72 1;
#X connect 72 0 6 0;
#X connect 73 0 74 0;
#X connect 74 0 27 0;
#X connect 75 0 32 0;
#X connect 76 0 9 0;
#X connect 77 0 28 0;
#X connect 78 0 20 1;
#X connect 79 0 40 0;
#X connect 80 0 66 0;
#X connect 81 0 17 0;
#X connect 82 0 34 0;
#X connect 84 0 0 0;
#X connect 84 1 72 1;
#X connect 84 2 82 0;
#X connect 84 3 82 1;
#X connect 85 0 84 0;
#X connect 86 0 87 0;
#X connect 86 1 88 0;
#X connect 87 0 44 0;
#X connect 88 0 44 0;
#X connect 89 0 37 0;
#X connect 89 0 38 0;
#X connect 90 0 91 0;
#X restore 14 78 pd playit;
#X obj 584 290 f \$0;
#X msg 585 265 bang;
#X obj 384 225 f \$0;
#X msg 382 268 \; \$1-tuning-r steady \$2 \; \$1-cutoff-r steady \$2
\; \$1-resonance-r steady \$2 \; \$1-decay-r steady \$2 \; \$1-envamount-r
steady \$2 \; \$1-accent-r steady \$2;
#X obj 384 247 pack 0 0;
#X obj 384 205 t b f;
#X obj 387 392 r \$0-steady;
#X obj 387 421 sel 0 1;
#X obj 382 489 s \$0-steady-r;
#X obj 384 182 r \$0-steady;
#X msg 387 445 label jump;
#X msg 393 466 label steady;
#X obj 11 122 outlet~;
#X obj 586 213 loadbang;
#X obj 589 237 t b b;
#X obj 621 269 s \$0-loadbang1;
#X msg 585 323 \; \$1-tuning-r 0.4 \; \$1-cutoff-r 0.23 \; \$1-resonance-r
0.65 \; \$1-decay-r 0.4 \; \$1-envamount-r 0.7 \; \$1-accent-r 0.8
\; \$1-gain-r 0.499 \; \$1-trisquare-r 0 \; \$1-steady-r 1;
#X text 167 12 accent/notelength/pitch/time(packed);
#X obj 23 17 inlet;
#X connect 0 0 13 0;
#X connect 1 0 17 0;
#X connect 2 0 1 0;
#X connect 3 0 5 0;
#X connect 5 0 4 0;
#X connect 6 0 3 0;
#X connect 6 1 5 1;
#X connect 7 0 8 0;
#X connect 8 0 11 0;
#X connect 8 1 12 0;
#X connect 10 0 6 0;
#X connect 11 0 9 0;
#X connect 12 0 9 0;
#X connect 14 0 15 0;
#X connect 15 0 2 0;
#X connect 15 1 16 0;
#X connect 19 0 0 0;
#X restore 14 78 pd synthetiser;
#N canvas 626 101 450 300 beats 0;
#X obj -88 -33 expr 15000/$f1;
#X obj -88 -53 r bpm;
#X obj 11 32 metro 500;
#X symbolatom 103 -37 10 0 0 0 - - -;
#X obj 11 -54 r play-pause;
#X obj 11 -33 sel Play Stop;
#X obj 11 53 f 0;
#X obj 37 53 + 1;
#X obj 11 107 s pos;
#X floatatom 67 92 5 0 0 0 - - -;
#X msg 11 -11 0;
#X msg 48 -11 1;
#X obj -88 -12 s notetime;
#X floatatom -49 25 5 0 0 0 - - -;
#X obj 61 10 r notetime;
#X obj 11 75 mod 16;
#X obj 94 153 * 25;
#X msg 94 203 \; cursor pos \$1 -85;
#X obj 94 176 + 62;
#X connect 0 0 12 0;
#X connect 0 0 13 0;
#X connect 1 0 0 0;
#X connect 2 0 6 0;
#X connect 4 0 3 0;
#X connect 4 0 5 0;
#X connect 5 0 10 0;
#X connect 5 1 11 0;
#X connect 6 0 7 0;
#X connect 6 0 15 0;
#X connect 7 0 6 1;
#X connect 10 0 2 0;
#X connect 10 0 6 1;
#X connect 11 0 2 0;
#X connect 14 0 2 1;
#X connect 15 0 8 0;
#X connect 15 0 9 0;
#X connect 15 0 16 0;
#X connect 16 0 18 0;
#X connect 18 0 17 0;
#X restore 13 -64 pd beats;
#N canvas 683 0 667 680 synth-seq 0;
#X obj 75 -88 r pos;
#X obj 75 -59 sel 0 1 2 3 4 5 6 7 8 9 10 11 12 13 14 15;
#X obj 75 343 outlet;
#X obj 75 -12 onestep note1 octave1 glide1 accent1 half1;
#X obj 105 33 onestep note3 octave3 glide3 accent3 half3;
#X obj 90 11 onestep note2 octave2 glide2 accent2 half2;
#X obj 120 55 onestep note4 octave4 glide4 accent4 half4;
#X obj 135 78 onestep note5 octave5 glide5 accent5 half5;
#X obj 150 100 onestep note6 octave6 glide6 accent6 half6;
#X obj 165 122 onestep note7 octave7 glide7 accent7 half7;
#X obj 180 145 onestep note8 octave8 glide8 accent8 half8;
#X obj 196 168 onestep note9 octave9 glide9 accent9 half9;
#X obj 209 190 onestep note10 octave10 glide10 accent10 half10;
#X obj 227 215 onestep note11 octave11 glide11 accent11 half11;
#X obj 242 237 onestep note12 octave12 glide12 accent112 half12;
#X obj 257 259 onestep note13 octave13 glide13 accent13 half13;
#X obj 272 282 onestep note14 octave14 glide14 accent14 hal14;
#X obj 288 305 onestep note15 octave15 glide15 accent15 half15;
#X obj 302 326 onestep note16 octave16 glide16 accent16 half16;
#X msg 183 401 set \$1 \$2 \$3 \$4;
#X msg 184 421 2 1 86 1;
#X connect 0 0 1 0;
#X connect 1 0 3 0;
#X connect 1 1 5 0;
#X connect 1 2 4 0;
#X connect 1 3 6 0;
#X connect 1 4 7 0;
#X connect 1 5 8 0;
#X connect 1 6 9 0;
#X connect 1 7 10 0;
#X connect 1 8 11 0;
#X connect 1 9 12 0;
#X connect 1 10 13 0;
#X connect 1 11 14 0;
#X connect 1 12 15 0;
#X connect 1 13 16 0;
#X connect 1 14 17 0;
#X connect 1 15 18 0;
#X connect 3 0 2 0;
#X connect 3 0 19 0;
#X connect 4 0 2 0;
#X connect 4 0 19 0;
#X connect 5 0 2 0;
#X connect 5 0 19 0;
#X connect 6 0 2 0;
#X connect 6 0 19 0;
#X connect 7 0 2 0;
#X connect 7 0 19 0;
#X connect 8 0 2 0;
#X connect 8 0 19 0;
#X connect 9 0 2 0;
#X connect 9 0 19 0;
#X connect 10 0 2 0;
#X connect 10 0 19 0;
#X connect 11 0 2 0;
#X connect 11 0 19 0;
#X connect 12 0 2 0;
#X connect 12 0 19 0;
#X connect 13 0 2 0;
#X connect 13 0 19 0;
#X connect 14 0 2 0;
#X connect 14 0 19 0;
#X connect 15 0 2 0;
#X connect 15 0 19 0;
#X connect 16 0 2 0;
#X connect 16 0 19 0;
#X connect 17 0 2 0;
#X connect 17 0 19 0;
#X connect 18 0 2 0;
#X connect 18 0 19 0;
#X connect 19 0 20 0;
#X restore 14 55 pd synth-seq;
#X obj 185 26 r fxcontrol;
#X obj 185 48 unpack f f;
#X floatatom 260 65 5 0 0 0 - - -;
#X floatatom 295 65 5 0 0 0 - - -;
#X obj 114 137 dac~;
#N canvas 0 0 450 300 objects_send_receives 0;
#X text 66 100 taplist 50 20 nada drum-line Kick Snare RimShot Hihat
;
#X text 67 118 taplist 50 20 rien play-pause Play Stop;
#X text 62 55 taplist 20 20 nothing note1 Off C C# D Eb E F F# G G#
A Bb B;
#X text 73 180 taplist 50 20 \$0-steady-r \$0-steady Steady Jump;
#X text 70 161 taplist 50 20 \$0-trisquare-r \$0-trisquare Tri Square
;
#X text 64 75 taplist 20 20 nichts octave1 0 1 2 3 4;
#X text 68 10 touch 250 100 fxcontrol;
#X text 82 218 onestep note1 octave1 glide1 accent1 half1;
#X restore 78 -64 pd objects_send_receives;
#N canvas 0 72 1366 696 drum-seq 0;
#X floatatom 801 143 0 0 0 0 - - -;
#X floatatom 96 623 0 0 0 0 - - -;
#X floatatom 122 621 0 0 0 0 - - -;
#X floatatom 154 621 0 0 0 0 - - -;
#X floatatom 186 621 0 0 0 0 - - -;
#X floatatom 218 621 0 0 0 0 - - -;
#X floatatom 250 621 0 0 0 0 - - -;
#X floatatom 282 621 0 0 0 0 - - -;
#X floatatom 315 621 0 0 0 0 - - -;
#X floatatom 347 621 0 0 0 0 - - -;
#X floatatom 379 621 0 0 0 0 - - -;
#X floatatom 411 621 0 0 0 0 - - -;
#X floatatom 443 621 0 0 0 0 - - -;
#X floatatom 475 621 0 0 0 0 - - -;
#X floatatom 507 621 0 0 0 0 - - -;
#X floatatom 539 621 0 0 0 0 - - -;
#X floatatom 571 621 0 0 0 0 - - -;
#X text 85 641 extended note info;
#X obj 981 113 bng 20 250 50 0 empty empty empty 20 8 0 8 -203904 -262130
-1;
#X obj 118 553 sequence a--------------------------------------------------
;
#X text 431 13 CLEAR PATTERN;
#X text 930 69 PASTE PATTERN;
#X msg 451 93 0;
#N canvas 501 233 417 136 route 0;
#X obj 18 23 inlet;
#X obj 60 22 inlet;
#X obj 105 21 inlet;
#X obj 147 20 inlet;
#X obj 12 88 outlet;
#X obj 58 88 outlet;
#X obj 107 87 outlet;
#X obj 153 87 outlet;
#X obj 211 23 inlet;
#X obj 253 22 inlet;
#X obj 298 21 inlet;
#X obj 340 20 inlet;
#X obj 205 88 outlet;
#X obj 251 88 outlet;
#X obj 300 87 outlet;
#X obj 346 87 outlet;
#X connect 0 0 4 0;
#X connect 1 0 5 0;
#X connect 2 0 6 0;
#X connect 3 0 7 0;
#X connect 8 0 12 0;
#X connect 9 0 13 0;
#X connect 10 0 14 0;
#X connect 11 0 15 0;
#X restore -325 157 pd route UP----------------;
#N canvas 501 233 421 140 route 0;
#X obj 18 23 inlet;
#X obj 60 22 inlet;
#X obj 105 21 inlet;
#X obj 147 20 inlet;
#X obj 12 88 outlet;
#X obj 58 88 outlet;
#X obj 107 87 outlet;
#X obj 153 87 outlet;
#X obj 211 23 inlet;
#X obj 253 22 inlet;
#X obj 298 21 inlet;
#X obj 340 20 inlet;
#X obj 205 88 outlet;
#X obj 251 88 outlet;
#X obj 300 87 outlet;
#X obj 346 87 outlet;
#X connect 0 0 4 0;
#X connect 1 0 5 0;
#X connect 2 0 6 0;
#X connect 3 0 7 0;
#X connect 8 0 12 0;
#X connect 9 0 13 0;
#X connect 10 0 14 0;
#X connect 11 0 15 0;
#X restore -313 361 pd route BOTTOM----------------;
#N canvas 501 233 417 136 route 0;
#X obj 18 23 inlet;
#X obj 60 22 inlet;
#X obj 105 21 inlet;
#X obj 147 20 inlet;
#X obj 12 88 outlet;
#X obj 58 88 outlet;
#X obj 107 87 outlet;
#X obj 153 87 outlet;
#X obj 211 23 inlet;
#X obj 253 22 inlet;
#X obj 298 21 inlet;
#X obj 340 20 inlet;
#X obj 205 88 outlet;
#X obj 251 88 outlet;
#X obj 300 87 outlet;
#X obj 346 87 outlet;
#X connect 0 0 4 0;
#X connect 1 0 5 0;
#X connect 2 0 6 0;
#X connect 3 0 7 0;
#X connect 8 0 12 0;
#X connect 9 0 13 0;
#X connect 10 0 14 0;
#X connect 11 0 15 0;
#X restore 500 253 pd route UP----------------;
#N canvas 501 233 417 136 route 0;
#X obj 18 23 inlet;
#X obj 60 22 inlet;
#X obj 105 21 inlet;
#X obj 147 20 inlet;
#X obj 12 88 outlet;
#X obj 58 88 outlet;
#X obj 107 87 outlet;
#X obj 153 87 outlet;
#X obj 211 23 inlet;
#X obj 253 22 inlet;
#X obj 298 21 inlet;
#X obj 340 20 inlet;
#X obj 205 88 outlet;
#X obj 251 88 outlet;
#X obj 300 87 outlet;
#X obj 346 87 outlet;
#X connect 0 0 4 0;
#X connect 1 0 5 0;
#X connect 2 0 6 0;
#X connect 3 0 7 0;
#X connect 8 0 12 0;
#X connect 9 0 13 0;
#X connect 10 0 14 0;
#X connect 11 0 15 0;
#X restore 465 482 pd route BOTTOM----------------;
#X obj -576 279 r \$0-d-toggle1;
#X obj -576 258 s \$0-d-toggle1.r;
#X obj -471 258 s \$0-d-toggle2.r;
#X obj -471 278 r \$0-d-toggle2;
#X obj -367 259 s \$0-d-toggle3.r;
#X obj -367 279 r \$0-d-toggle3;
#X obj -259 259 s \$0-d-toggle4.r;
#X obj -259 279 r \$0-d-toggle4;
#X obj -151 259 s \$0-d-toggle5.r;
#X obj -151 280 r \$0-d-toggle5;
#X obj -46 259 s \$0-d-toggle6.r;
#X obj -46 279 r \$0-d-toggle6;
#X obj 58 260 s \$0-d-toggle7.r;
#X obj 58 280 r \$0-d-toggle7;
#X obj 166 260 s \$0-d-toggle8.r;
#X obj 166 280 r \$0-d-toggle8;
#X obj 127 354 s \$0-d-toggle9.r;
#X obj 127 375 r \$0-d-toggle9;
#X obj 232 354 s \$0-d-toggle10.r;
#X obj 231 377 r \$0-d-toggle10;
#X obj 343 353 s \$0-d-toggle11.r;
#X obj 343 373 r \$0-d-toggle11;
#X obj 451 353 s \$0-d-toggle12.r;
#X obj 451 373 r \$0-d-toggle12;
#X obj 576 350 s \$0-d-toggle13.r;
#X obj 576 371 r \$0-d-toggle13;
#X obj 687 350 s \$0-d-toggle14.r;
#X obj 686 373 r \$0-d-toggle14;
#X obj 798 349 s \$0-d-toggle15.r;
#X obj 798 369 r \$0-d-toggle15;
#X obj 906 349 s \$0-d-toggle16.r;
#X obj 906 369 r \$0-d-toggle16;
#X obj 658 29 r drum-line;
#X obj 658 51 sel Kick Snare RimShot Hihat;
#X msg 658 77 0;
#X msg 699 77 1;
#X msg 740 77 2;
#X msg 782 77 3;
#X obj 450 34 r clear;
#X connect 2 0 19 1;
#X connect 3 0 19 2;
#X connect 4 0 19 3;
#X connect 5 0 19 4;
#X connect 6 0 19 5;
#X connect 7 0 19 6;
#X connect 8 0 19 7;
#X connect 9 0 19 8;
#X connect 10 0 19 9;
#X connect 11 0 19 10;
#X connect 12 0 19 11;
#X connect 13 0 19 12;
#X connect 14 0 19 13;
#X connect 15 0 19 14;
#X connect 16 0 19 15;
#X connect 18 0 19 17;
#X connect 19 0 1 0;
#X connect 19 0 23 0;
#X connect 19 1 2 0;
#X connect 19 1 23 1;
#X connect 19 2 3 0;
#X connect 19 2 23 2;
#X connect 19 3 4 0;
#X connect 19 3 23 3;
#X connect 19 4 5 0;
#X connect 19 4 23 4;
#X connect 19 5 6 0;
#X connect 19 5 23 5;
#X connect 19 6 7 0;
#X connect 19 6 23 6;
#X connect 19 7 8 0;
#X connect 19 7 23 7;
#X connect 19 8 9 0;
#X connect 19 8 25 0;
#X connect 19 9 10 0;
#X connect 19 9 25 1;
#X connect 19 10 11 0;
#X connect 19 10 25 2;
#X connect 19 11 12 0;
#X connect 19 11 25 3;
#X connect 19 12 13 0;
#X connect 19 12 25 4;
#X connect 19 13 14 0;
#X connect 19 13 25 5;
#X connect 19 14 15 0;
#X connect 19 14 25 6;
#X connect 19 15 16 0;
#X connect 19 15 25 7;
#X connect 22 0 28 0;
#X connect 22 0 29 0;
#X connect 22 0 31 0;
#X connect 22 0 33 0;
#X connect 22 0 35 0;
#X connect 22 0 37 0;
#X connect 22 0 39 0;
#X connect 22 0 41 0;
#X connect 22 0 43 0;
#X connect 22 0 45 0;
#X connect 22 0 47 0;
#X connect 22 0 49 0;
#X connect 22 0 51 0;
#X connect 22 0 53 0;
#X connect 22 0 55 0;
#X connect 22 0 57 0;
#X connect 23 0 28 0;
#X connect 23 1 29 0;
#X connect 23 2 31 0;
#X connect 23 3 33 0;
#X connect 23 4 35 0;
#X connect 23 5 37 0;
#X connect 23 6 39 0;
#X connect 23 7 41 0;
#X connect 24 0 19 0;
#X connect 24 1 19 1;
#X connect 24 2 19 2;
#X connect 24 3 19 3;
#X connect 24 4 19 4;
#X connect 24 5 19 5;
#X connect 24 6 19 6;
#X connect 24 7 19 7;
#X connect 25 0 43 0;
#X connect 25 1 45 0;
#X connect 25 2 47 0;
#X connect 25 3 49 0;
#X connect 25 4 51 0;
#X connect 25 5 53 0;
#X connect 25 6 55 0;
#X connect 25 7 57 0;
#X connect 26 0 19 8;
#X connect 26 1 19 9;
#X connect 26 2 19 10;
#X connect 26 3 19 11;
#X connect 26 4 19 12;
#X connect 26 5 19 13;
#X connect 26 6 19 14;
#X connect 26 7 19 15;
#X connect 27 0 24 0;
#X connect 30 0 24 1;
#X connect 32 0 24 2;
#X connect 34 0 24 3;
#X connect 36 0 24 4;
#X connect 38 0 24 5;
#X connect 40 0 24 6;
#X connect 42 0 24 7;
#X connect 44 0 26 0;
#X connect 46 0 26 1;
#X connect 48 0 26 2;
#X connect 50 0 26 3;
#X connect 52 0 26 4;
#X connect 54 0 26 5;
#X connect 56 0 26 6;
#X connect 58 0 26 7;
#X connect 59 0 60 0;
#X connect 60 0 61 0;
#X connect 60 1 62 0;
#X connect 60 2 63 0;
#X connect 60 3 64 0;
#X connect 61 0 19 16;
#X connect 61 0 0 0;
#X connect 62 0 19 16;
#X connect 62 0 0 0;
#X connect 63 0 19 16;
#X connect 63 0 0 0;
#X connect 64 0 19 16;
#X connect 64 0 0 0;
#X connect 65 0 22 0;
#X restore 13 -39 pd drum-seq;
#X obj 13 -17 sequencetable;
#N canvas 0 0 1366 684 drum-synths 0;
#X obj 217 -244 r channel3;
#X obj 295 -247 r channel4;
#X obj 53 -245 r channel1;
#X obj 136 -242 r channel2;
#N canvas 0 22 454 304 (subpatch) 0;
#X array Sample1 60378 float 0;
#X coords 0 1 60377 -1 50 50 1;
#X restore 78 -65 graph;
#N canvas 0 22 458 308 (subpatch) 0;
#X array Sample2 31010 float 0;
#X coords 0 1 31009 -1 50 50 1;
#X restore 184 -65 graph;
#N canvas 0 22 458 308 (subpatch) 0;
#X array Sample3 24346 float 0;
#X coords 0 1 24345 -1 50 50 1;
#X restore 297 -66 graph;
#N canvas 0 22 454 304 (subpatch) 0;
#X array Sample4 213831 float 0;
#X coords 0 1 213830 -1 50 50 1;
#X restore 408 -66 graph;
#X obj 277 -10 tabplay~ Sample3;
#X obj 387 -10 tabplay~ Sample4;
#X obj 57 -11 tabplay~ Sample1;
#X obj 165 -11 tabplay~ Sample2;
#N canvas 0 22 450 300 ALD 0;
#X msg 404 143 bang;
#X floatatom 514 84 5 0 0 0 - - -;
#X floatatom 565 83 5 0 0 0 - - -;
#X floatatom 615 83 5 0 0 0 - - -;
#X text 481 35 "ALD" enveloppe;
#X obj 514 59 inlet;
#X obj 565 58 inlet;
#X obj 615 58 inlet;
#X obj 418 62 inlet;
#X obj 389 442 outlet~;
#X text 643 143 ENVELOPE SECTION;
#X obj 389 356 vline~;
#X msg 362 255 1;
#X obj 362 275 pack f f;
#X obj 362 296 unpack f f;
#X msg 466 256 0;
#X obj 466 277 pack f f f;
#X obj 466 298 unpack f f f;
#X obj 466 235 delay 5;
#X text 112 293 Attack : sends a 1 to get to in A msec;
#X text 539 234 wait the end of the attack;
#X text 548 264 Length+Decay : 0 to get to in D msec \, after L msec
;
#X text 503 84 A;
#X text 554 84 L;
#X text 604 84 D;
#X connect 0 0 12 0;
#X connect 0 0 18 0;
#X connect 1 0 13 1;
#X connect 1 0 18 1;
#X connect 2 0 16 2;
#X connect 3 0 16 1;
#X connect 5 0 1 0;
#X connect 6 0 2 0;
#X connect 7 0 3 0;
#X connect 8 0 0 0;
#X connect 11 0 9 0;
#X connect 12 0 13 0;
#X connect 13 0 14 0;
#X connect 14 0 11 0;
#X connect 14 1 11 1;
#X connect 15 0 16 0;
#X connect 16 0 17 0;
#X connect 17 0 11 0;
#X connect 17 1 11 1;
#X connect 17 2 11 2;
#X connect 18 0 15 0;
#X restore 71 45 pd ALD;
#N canvas 0 22 450 300 ALD 0;
#X msg 404 143 bang;
#X floatatom 514 84 5 0 0 0 - - -;
#X floatatom 565 83 5 0 0 0 - - -;
#X floatatom 615 83 5 0 0 0 - - -;
#X text 481 35 "ALD" enveloppe;
#X obj 514 59 inlet;
#X obj 565 58 inlet;
#X obj 615 58 inlet;
#X obj 418 62 inlet;
#X obj 389 442 outlet~;
#X text 643 143 ENVELOPE SECTION;
#X obj 389 356 vline~;
#X msg 362 255 1;
#X obj 362 275 pack f f;
#X obj 362 296 unpack f f;
#X msg 466 256 0;
#X obj 466 277 pack f f f;
#X obj 466 298 unpack f f f;
#X obj 466 235 delay 5;
#X text 112 293 Attack : sends a 1 to get to in A msec;
#X text 539 234 wait the end of the attack;
#X text 548 264 Length+Decay : 0 to get to in D msec \, after L msec
;
#X text 503 84 A;
#X text 554 84 L;
#X text 604 84 D;
#X connect 0 0 12 0;
#X connect 0 0 18 0;
#X connect 1 0 13 1;
#X connect 1 0 18 1;
#X connect 2 0 16 2;
#X connect 3 0 16 1;
#X connect 5 0 1 0;
#X connect 6 0 2 0;
#X connect 7 0 3 0;
#X connect 8 0 0 0;
#X connect 11 0 9 0;
#X connect 12 0 13 0;
#X connect 13 0 14 0;
#X connect 14 0 11 0;
#X connect 14 1 11 1;
#X connect 15 0 16 0;
#X connect 16 0 17 0;
#X connect 17 0 11 0;
#X connect 17 1 11 1;
#X connect 17 2 11 2;
#X connect 18 0 15 0;
#X restore 179 48 pd ALD;
#N canvas 0 22 450 300 ALD 0;
#X msg 404 143 bang;
#X floatatom 514 84 5 0 0 0 - - -;
#X floatatom 565 83 5 0 0 0 - - -;
#X floatatom 615 83 5 0 0 0 - - -;
#X text 480 -14 "ALD" enveloppe;
#X obj 513 10 inlet;
#X obj 564 9 inlet;
#X obj 614 9 inlet;
#X obj 418 62 inlet;
#X obj 389 442 outlet~;
#X text 643 143 ENVELOPE SECTION;
#X obj 389 356 vline~;
#X msg 362 255 1;
#X obj 362 275 pack f f;
#X obj 362 296 unpack f f;
#X msg 466 256 0;
#X obj 466 277 pack f f f;
#X obj 466 298 unpack f f f;
#X obj 466 235 delay 5;
#X text 112 293 Attack : sends a 1 to get to in A msec;
#X text 539 234 wait the end of the attack;
#X text 548 264 Length+Decay : 0 to get to in D msec \, after L msec
;
#X text 503 84 A;
#X text 554 84 L;
#X text 604 84 D;
#X connect 0 0 12 0;
#X connect 0 0 18 0;
#X connect 1 0 13 1;
#X connect 1 0 18 1;
#X connect 2 0 16 2;
#X connect 3 0 16 1;
#X connect 5 0 1 0;
#X connect 6 0 2 0;
#X connect 7 0 3 0;
#X connect 8 0 0 0;
#X connect 11 0 9 0;
#X connect 12 0 13 0;
#X connect 13 0 14 0;
#X connect 14 0 11 0;
#X connect 14 1 11 1;
#X connect 15 0 16 0;
#X connect 16 0 17 0;
#X connect 17 0 11 0;
#X connect 17 1 11 1;
#X connect 17 2 11 2;
#X connect 18 0 15 0;
#X restore 292 46 pd ALD;
#N canvas 0 22 450 300 ALD 0;
#X msg 404 143 bang;
#X floatatom 514 84 5 0 0 0 - - -;
#X floatatom 565 83 5 0 0 0 - - -;
#X floatatom 615 83 5 0 0 0 - - -;
#X text 481 35 "ALD" enveloppe;
#X obj 514 59 inlet;
#X obj 565 58 inlet;
#X obj 615 58 inlet;
#X obj 418 62 inlet;
#X obj 389 442 outlet~;
#X text 643 143 ENVELOPE SECTION;
#X obj 389 356 vline~;
#X msg 362 255 1;
#X obj 362 275 pack f f;
#X obj 362 296 unpack f f;
#X msg 466 256 0;
#X obj 466 277 pack f f f;
#X obj 466 298 unpack f f f;
#X obj 466 235 delay 5;
#X text 112 293 Attack : sends a 1 to get to in A msec;
#X text 539 234 wait the end of the attack;
#X text 548 264 Length+Decay : 0 to get to in D msec \, after L msec
;
#X text 503 84 A;
#X text 554 84 L;
#X text 604 84 D;
#X connect 0 0 12 0;
#X connect 0 0 18 0;
#X connect 1 0 13 1;
#X connect 1 0 18 1;
#X connect 2 0 16 2;
#X connect 3 0 16 1;
#X connect 5 0 1 0;
#X connect 6 0 2 0;
#X connect 7 0 3 0;
#X connect 8 0 0 0;
#X connect 11 0 9 0;
#X connect 12 0 13 0;
#X connect 13 0 14 0;
#X connect 14 0 11 0;
#X connect 14 1 11 1;
#X connect 15 0 16 0;
#X connect 16 0 17 0;
#X connect 17 0 11 0;
#X connect 17 1 11 1;
#X connect 17 2 11 2;
#X connect 18 0 15 0;
#X restore 403 48 pd ALD;
#X obj 56 68 *~;
#X obj 164 69 *~;
#X obj 276 67 *~;
#X obj 388 66 *~;
#N canvas 683 0 667 663 loadsounds 0;
#X msg -298 18 read -resize 44855_stomachache_bd2.wav Sample1;
#X msg -291 40 read -resize 44859_stomachache_hihatbrushtight2.wav
Sample2;
#X msg -281 94 read -resize 44857_stomachache_crashbrushtap.wav Sample4
;
#X msg -286 60 read -resize 44867_stomachache_snarebrushlighttap.wav
Sample3;
#X obj 88 302 soundfiler;
#X obj 96 -21 sel 0 1 2 3 4 5;
#X msg -260 148 read -resize 23941_ricemutt_LS_rosin.wav Sample1;
#X msg -253 171 read -resize 23946_ricemutt_harmonic.wav Sample2;
#X msg -248 190 read -resize 23947_ricemutt_shortharmonicsqueal.wav
Sample3;
#X msg -243 212 read -resize 23948_ricemutt_tik.wav Sample4;
#X obj 244 -87 inlet;
#X msg 97 32 read -resize 14510_blaster78_clapchord1.wav Sample1;
#X msg 109 74 read -resize 14518_blaster78_quietglitch1.wav Sample3
;
#X msg 114 96 read -resize 14519_blaster78_revkickbuzz1.wav Sample4
;
#X msg 105 56 read -resize 14515_blaster78_kickclapchord1.wav Sample2
;
#X connect 0 0 4 0;
#X connect 1 0 4 0;
#X connect 2 0 4 0;
#X connect 3 0 4 0;
#X connect 5 0 0 0;
#X connect 5 0 1 0;
#X connect 5 0 3 0;
#X connect 5 0 2 0;
#X connect 5 1 6 0;
#X connect 5 1 7 0;
#X connect 5 1 8 0;
#X connect 5 1 9 0;
#X connect 5 2 11 0;
#X connect 5 2 14 0;
#X connect 5 2 12 0;
#X connect 5 2 13 0;
#X connect 6 0 4 0;
#X connect 7 0 4 0;
#X connect 8 0 4 0;
#X connect 9 0 4 0;
#X connect 10 0 5 0;
#X connect 11 0 4 0;
#X connect 12 0 4 0;
#X connect 13 0 4 0;
#X connect 14 0 4 0;
#X restore 472 -122 pd loadsounds;
#X obj 468 -238 bng 15 250 50 0 empty empty empty 17 7 0 10 -262144
-1 -1;
#X obj 469 -216 f 0;
#X obj 502 -216 + 1;
#X floatatom 470 -161 5 0 0 0 - - -;
#X obj 471 -188 mod 3;
#X obj 53 -222 t b b;
#X obj 136 -218 t b b;
#X obj 218 -218 t b b;
#X obj 301 -214 t b b;
#X obj 581 -65 loadbang;
#X obj 211 96 tanh~;
#X obj 213 123 outlet~;
#X msg 647 -15 10;
#X msg 583 -16 2;
#X msg 616 -16 500;
#X obj 469 -267 loadbang;
#X connect 0 0 28 0;
#X connect 1 0 29 0;
#X connect 2 0 26 0;
#X connect 3 0 27 0;
#X connect 8 0 18 0;
#X connect 9 0 19 0;
#X connect 10 0 16 0;
#X connect 11 0 17 0;
#X connect 12 0 16 1;
#X connect 13 0 17 1;
#X connect 14 0 18 1;
#X connect 15 0 19 1;
#X connect 16 0 31 0;
#X connect 17 0 31 0;
#X connect 18 0 31 0;
#X connect 19 0 31 0;
#X connect 21 0 22 0;
#X connect 22 0 23 0;
#X connect 22 0 25 0;
#X connect 23 0 22 1;
#X connect 24 0 20 0;
#X connect 25 0 24 0;
#X connect 26 0 10 0;
#X connect 26 1 12 0;
#X connect 27 0 11 0;
#X connect 27 1 13 0;
#X connect 28 0 8 0;
#X connect 28 1 14 0;
#X connect 29 0 9 0;
#X connect 29 1 15 0;
#X connect 30 0 34 0;
#X connect 30 0 35 0;
#X connect 30 0 33 0;
#X connect 31 0 32 0;
#X connect 33 0 12 3;
#X connect 33 0 15 3;
#X connect 33 0 14 3;
#X connect 33 0 13 3;
#X connect 34 0 12 1;
#X connect 34 0 15 1;
#X connect 34 0 14 1;
#X connect 34 0 13 1;
#X connect 35 0 12 2;
#X connect 35 0 14 2;
#X connect 35 0 13 2;
#X connect 36 0 21 0;
#X restore 116 76 pd drum-synths;
#X connect 0 0 7 0;
#X connect 0 0 7 1;
#X connect 2 0 0 0;
#X connect 3 0 4 0;
#X connect 4 0 5 0;
#X connect 4 1 6 0;
#X connect 11 0 7 0;
#X connect 11 0 7 1;
#X restore 367 -32 pd audio;
#X obj 67 1 tgl 20 0 \$0-d-toggle1 \$0-d-toggle1.r empty 17 7 0 10
-262144 -1 -1 1 1;
#X obj 8 1 taplist 50 20 nada drum-line Kick Snare RimShot Hihat;
#X obj 8 -33 taplist 50 20 rien play-pause Play Stop;
#X obj 92 1 tgl 20 0 \$0-d-toggle2 \$0-d-toggle2.r empty 17 7 0 10
-262144 -1 -1 0 1;
#X obj 118 1 tgl 20 0 \$0-d-toggle3 \$0-d-toggle3.r empty 17 7 0 10
-262144 -1 -1 0 1;
#X obj 143 1 tgl 20 0 \$0-d-toggle4 \$0-d-toggle4.r empty 17 7 0 10
-262144 -1 -1 0 1;
#X obj 169 1 tgl 20 0 \$0-d-toggle5 \$0-d-toggle5.r empty 17 7 0 10
-262144 -1 -1 1 1;
#X obj 194 1 tgl 20 0 \$0-d-toggle6 \$0-d-toggle6.r empty 17 7 0 10
-262144 -1 -1 0 1;
#X obj 218 1 tgl 20 0 \$0-d-toggle7 \$0-d-toggle7.r empty 17 7 0 10
-262144 -1 -1 0 1;
#X obj 242 1 tgl 20 0 \$0-d-toggle8 \$0-d-toggle8.r empty 17 7 0 10
-262144 -1 -1 0 1;
#X obj 267 1 tgl 20 0 \$0-d-toggle9 \$0-d-toggle9.r empty 17 7 0 10
-262144 -1 -1 1 1;
#X obj 293 1 tgl 20 0 \$0-d-toggle10 \$0-d-toggle10.r empty 17 7 0
10 -262144 -1 -1 0 1;
#X obj 317 1 tgl 20 0 \$0-d-toggle11 \$0-d-toggle11.r empty 17 7 0
10 -262144 -1 -1 0 1;
#X obj 342 1 tgl 20 0 \$0-d-toggle12 \$0-d-toggle12.r empty 17 7 0
10 -262144 -1 -1 0 1;
#X obj 368 1 tgl 20 0 \$0-d-toggle13 \$0-d-toggle13.r empty 17 7 0
10 -262144 -1 -1 1 1;
#X obj 393 1 tgl 20 0 \$0-d-toggle14 \$0-d-toggle14.r empty 17 7 0
10 -262144 -1 -1 0 1;
#X obj 418 1 tgl 20 0 \$0-d-toggle15 \$0-d-toggle15.r empty 17 7 0
10 -262144 -1 -1 0 1;
#X obj 443 1 tgl 20 0 \$0-d-toggle16 \$0-d-toggle16.r empty 17 7 0
10 -262144 -1 -1 0 1;
#X obj 67 26 taplist 20 20 nothing note1 Off C C# D Eb E F F# G G#
A Bb B;
#X obj 68 -33 nbx 5 20 -1e+37 1e+37 0 0 bpm empty empty 0 -8 0 10 -262144
-1 -1 124 256;
#X text 129 -32 bpm;
#X obj 93 26 taplist 20 20 nothing note2 Off C C# D Eb E F F# G G#
A Bb B;
#X obj 118 26 taplist 20 20 nothing note3 Off C C# D Eb E F F# G G#
A Bb B;
#X obj 143 26 taplist 20 20 nothing note4 Off C C# D Eb E F F# G G#
A Bb B;
#X obj 169 26 taplist 20 20 nothing note5 Off C C# D Eb E F F# G G#
A Bb B;
#X obj 193 26 taplist 20 20 nothing note6 Off C C# D Eb E F F# G G#
A Bb B;
#X obj 218 26 taplist 20 20 nothing note7 Off C C# D Eb E F F# G G#
A Bb B;
#X obj 242 26 taplist 20 20 nothing note8 Off C C# D Eb E F F# G G#
A Bb B;
#X obj 267 26 taplist 20 20 nothing note9 Off C C# D Eb E F F# G G#
A Bb B;
#X obj 293 26 taplist 20 20 nothing note10 Off C C# D Eb E F F# G G#
A Bb B;
#X obj 343 26 taplist 20 20 nothing note12 Off C C# D Eb E F F# G G#
A Bb B;
#X obj 368 26 taplist 20 20 nothing note13 Off C C# D Eb E F F# G G#
A Bb B;
#X obj 318 26 taplist 20 20 nothing note11 Off C C# D Eb E F F# G G#
A Bb B;
#X obj 393 26 taplist 20 20 nothing note14 Off C C# D Eb E F F# G G#
A Bb B;
#X obj 418 26 taplist 20 20 nothing note15 Off C C# D Eb E F F# G G#
A Bb B;
#X obj 443 26 taplist 20 20 nothing note16 Off C C# D Eb E F F# G G#
A Bb B;
#X obj 352 172 vsl 15 60 0 1 0 0 \$0-cutoff \$0-cutoff-r empty 0 -9
0 10 -228856 -1 -1 4800 0;
#X obj 371 172 vsl 15 60 0 1 0 0 \$0-resonance \$0-resonance-r empty
0 -9 0 10 -228856 -1 -1 3835 0;
#X obj 390 172 vsl 15 60 0 1 0 0 \$0-decay \$0-decay-r empty 0 -9 0
10 -228856 -1 -1 5200 0;
#X obj 409 172 vsl 15 60 0 1 0 0 \$0-envamount \$0-envamount-r empty
0 -9 0 10 -228856 -1 -1 4130 0;
#X obj 428 172 vsl 15 60 0 1 0 0 \$0-accent \$0-accent-r empty 0 -9
0 10 -228856 -1 -1 4720 0;
#X obj 334 172 vsl 15 60 0 1 0 0 \$0-tuning \$0-tuning-r empty 0 -9
0 10 -228856 -1 -1 2600 0;
#X obj 447 172 vsl 15 60 0 1 0 0 \$0-gain \$0-gain-r empty 0 -9 0 10
-228856 -258113 -1 2944 1;
#X text 373 141 R;
#X text 373 149 e;
#X text 373 155 s;
#X text 354 142 C;
#X text 354 148 u;
#X text 354 156 t;
#X text 392 141 D;
#X text 392 148 e;
#X text 392 155 c;
#X text 412 142 E;
#X text 412 149 n;
#X text 412 156 v;
#X text 431 142 A;
#X text 431 148 c;
#X text 431 155 c;
#X text 412 231 sliders;
#X text 448 152 G;
#X obj 411 245 taplist 50 20 \$0-steady-r \$0-steady Steady Jump;
#X obj 336 245 taplist 50 20 \$0-trisquare-r \$0-trisquare Tri Square
;
#X text 335 156 o;
#X text 337 153 |;
#X text 340 147 ~;
#X obj 67 120 tgl 20 0 half1 oizafiojofe empty 17 7 0 10 -262144 -1
-1 0 1;
#X obj 92 120 tgl 20 0 half2 \$0fepzokf empty 17 7 0 10 -262144 -1
-1 0 1;
#X obj 118 120 tgl 20 0 half3 \$0feziojf empty 17 7 0 10 -262144 -1
-1 0 1;
#X obj 143 120 tgl 20 0 half4 iojoijoijoijoijij empty 17 7 0 10 -262144
-1 -1 0 1;
#X obj 168 120 tgl 20 0 half5 \$0-dndjnids empty 17 7 0 10 -262144
-1 -1 1 1;
#X obj 193 120 tgl 20 0 half6 eiueiuheh empty 17 7 0 10 -262144 -1
-1 0 1;
#X obj 218 120 tgl 20 0 half7 oijdoijoijd empty 17 7 0 10 -262144 -1
-1 0 1;
#X obj 243 120 tgl 20 0 half8 oijoijeoijoeijeee empty 17 7 0 10 -262144
-1 -1 0 1;
#X obj 268 120 tgl 20 0 half9 oaijoijoaijaijoa empty 17 7 0 10 -262144
-1 -1 0 1;
#X obj 293 120 tgl 20 0 half10 ajoijoiajzzz empty 17 7 0 10 -262144
-1 -1 0 1;
#X obj 318 120 tgl 20 0 half11 aiojiajoijdndjuhe empty 17 7 0 10 -262144
-1 -1 0 1;
#X obj 343 120 tgl 20 0 half12 diiduhiuhe empty 17 7 0 10 -262144 -1
-1 0 1;
#X obj 368 120 tgl 20 0 half13 njdniueuhiud empty 17 7 0 10 -262144
-1 -1 0 1;
#X obj 393 120 tgl 20 0 half14 iuhiudhiduhsuh empty 17 7 0 10 -262144
-1 -1 0 1;
#X obj 418 120 tgl 20 0 half15 djoijiofjoijs empty 17 7 0 10 -262144
-1 -1 0 1;
#X obj 443 120 tgl 20 0 half16 jdoijoijfoijfijeijoijzoijz empty 17
7 0 10 -262144 -1 -1 0 1;
#X obj 67 72 tgl 20 0 accent1 \$0fiezojf empty 17 7 0 10 -262144 -1
-1 1 1;
#X obj 92 72 tgl 20 0 accent2 \$0fjezoijf empty 17 7 0 10 -262144 -1
-1 0 1;
#X obj 118 72 tgl 20 0 accent3 ofiezjfoiezjoiezj empty 17 7 0 10 -262144
-1 -1 0 1;
#X obj 143 72 tgl 20 0 accent4 \$0fezfezogze empty 17 7 0 10 -262144
-1 -1 0 1;
#X obj 168 72 tgl 20 0 accent5 feziufneziufnc empty 17 7 0 10 -262144
-1 -1 0 1;
#X obj 193 72 tgl 20 0 accent6 \$0dzaoidzaoij empty 17 7 0 10 -262144
-1 -1 0 1;
#X obj 218 72 tgl 20 0 accent7 fezofeezfiojoi empty 17 7 0 10 -262144
-1 -1 0 1;
#X obj 243 72 tgl 20 0 accent8 ezfjoezijoeifcez empty 17 7 0 10 -262144
-1 -1 0 1;
#X obj 268 72 tgl 20 0 accent9 fezjoifjeoiezvdvn empty 17 7 0 10 -262144
-1 -1 1 1;
#X obj 293 72 tgl 20 0 accent10 feijojovijdide empty 17 7 0 10 -262144
-1 -1 0 1;
#X obj 318 72 tgl 20 0 accent11 zefioezjoeij empty 17 7 0 10 -262144
-1 -1 0 1;
#X obj 343 72 tgl 20 0 accent12 fezoijvorzarzkapo empty 17 7 0 10 -262144
-1 -1 0 1;
#X obj 368 72 tgl 20 0 accent13 fezjoijfoefezoi empty 17 7 0 10 -262144
-1 -1 0 1;
#X obj 393 72 tgl 20 0 accent14 ezfoecoezjfoije empty 17 7 0 10 -262144
-1 -1 0 1;
#X obj 418 72 tgl 20 0 accent15 foeizjfeizdjfezij empty 17 7 0 10 -262144
-1 -1 0 1;
#X obj 443 72 tgl 20 0 accent16 fejzoifjoezijce empty 17 7 0 10 -262144
-1 -1 0 1;
#X text 19 25 Note;
#X text 15 70 Accent;
#X text 8 120 Hal-note;
#X obj 67 49 taplist 20 20 nichts octave1 0 1 2 3 4;
#X obj 93 49 taplist 20 20 nichts octave2 0 1 2 3 4;
#X text 14 48 Octave;
#X obj 118 49 taplist 20 20 nichts octave3 0 1 2 3 4;
#X obj 143 49 taplist 20 20 nichts octave4 0 1 2 3 4;
#X obj 169 49 taplist 20 20 nichts octave5 0 1 2 3 4;
#X obj 193 49 taplist 20 20 nichts octave6 0 1 2 3 4;
#X obj 218 49 taplist 20 20 nichts octave7 0 1 2 3 4;
#X obj 243 49 taplist 20 20 nichts octave8 0 1 2 3 4;
#X obj 267 49 taplist 20 20 nichts octave9 0 1 2 3 4;
#X obj 293 49 taplist 20 20 nichts octave10 0 1 2 3 4;
#X obj 318 49 taplist 20 20 nichts octave11 0 1 2 3 4;
#X obj 343 49 taplist 20 20 nichts octave12 0 1 2 3 4;
#X obj 368 49 taplist 20 20 nichts octave13 0 1 2 3 4;
#X obj 393 49 taplist 20 20 nichts octave14 0 1 2 3 4;
#X obj 418 49 taplist 20 20 nichts octave15 0 1 2 3 4;
#X obj 443 49 taplist 20 20 nichts octave16 0 1 2 3 4;
#X obj 65 155 touch 250 100 fxcontrol;
#X text 47 149 ^;
#X text 47 151 |;
#X text 6 164 bit crush;
#X text 306 253 >;
#X text 302 248 _;
#X text 251 253 BP freq;
#X obj 67 96 tgl 20 0 glide1 oizafiojofefezfn empty 17 7 0 10 -262144
-1 -1 0 1;
#X obj 92 96 tgl 20 0 glide2 \$0fepzokf empty 17 7 0 10 -262144 -1
-1 0 1;
#X obj 118 96 tgl 20 0 glide3 \$0feziojfoazpdkza empty 17 7 0 10 -262144
-1 -1 0 1;
#X obj 143 96 tgl 20 0 glide4 \$0-d-dzadpza empty 17 7 0 10 -262144
-1 -1 0 1;
#X obj 168 96 tgl 20 0 glide5 fezofkepzokfe empty 17 7 0 10 -262144
-1 -1 1 1;
#X obj 193 96 tgl 20 0 glide6 \$0-d-fegregre empty 17 7 0 10 -262144
-1 -1 0 1;
#X obj 218 96 tgl 20 0 glide7 feznfezinfeizn empty 17 7 0 10 -262144
-1 -1 0 1;
#X obj 243 96 tgl 20 0 glide8 feizneziunf empty 17 7 0 10 -262144 -1
-1 0 1;
#X obj 268 96 tgl 20 0 glide9 fzeoijfoeizj empty 17 7 0 10 -262144
-1 -1 0 1;
#X obj 293 96 tgl 20 0 glide10 feiozjfo empty 17 7 0 10 -262144 -1
-1 0 1;
#X obj 318 96 tgl 20 0 glide11 dfoezijfei empty 17 7 0 10 -262144 -1
-1 0 1;
#X obj 343 96 tgl 20 0 glide12 fefoeizjfgrkoerezf empty 17 7 0 10 -262144
-1 -1 0 1;
#X obj 368 96 tgl 20 0 glide13 fezofieoizjfoeizjfc empty 17 7 0 10
-262144 -1 -1 0 1;
#X obj 393 96 tgl 20 0 glide14 efzoiejzfoiejzioezj empty 17 7 0 10
-262144 -1 -1 0 1;
#X obj 418 96 tgl 20 0 glide15 fezofkpeozkfpeozk empty 17 7 0 10 -262144
-1 -1 0 1;
#X obj 443 96 tgl 20 0 glide16 fozoezije empty 17 7 0 10 -262144 -1
-1 0 1;
#X text 15 95 Glide;
#X obj 64 -4 cnv 15 2 150 empty empty empty 20 12 0 14 -257985 -66577
0;
#X obj 164 -5 cnv 15 2 150 empty empty empty 20 12 0 14 -257985 -66577
0;
#X obj 264 -4 cnv 15 2 150 empty empty empty 20 12 0 14 -257985 -66577
0;
#X obj 364 -4 cnv 15 2 150 empty empty empty 20 12 0 14 -257985 -66577
0;
#X obj 195 -31 bng 15 250 50 0 clear empty empty 17 7 0 10 -262144
-1 -1;
#X text 210 -34 clear;
