#N canvas 683 0 667 680 10;
#X msg 84 143 36;
#X msg 101 163 37;
#X msg 118 186 38;
#X msg 135 206 39;
#X msg 153 143 40;
#X msg 170 163 41;
#X msg 187 186 42;
#X msg 204 206 43;
#X msg 222 146 44;
#X msg 239 166 45;
#X msg 256 189 46;
#X msg 273 209 47;
#X obj 144 323 +;
#X obj 84 118 select C C# D Eb E F F# G G# A Bb B;
#X obj 84 98 symbol;
#X obj 150 -32 inlet bang;
#X msg 117 74 symbol \$1;
#X obj 455 471 f;
#X obj 150 -9 t b b b b b;
#X obj 144 611 outlet;
#X obj 117 51 r \$1;
#X obj 144 530 makenote;
#X obj 144 588 pack 0 0 0;
#X obj 256 395 symbol;
#X msg 289 371 symbol \$1;
#X obj 256 420 select /1 /2 /3 /4;
#X obj 371 420 r notetime;
#X obj 256 450 f;
#X obj 256 472 / 1;
#X obj 290 450 f;
#X obj 290 472 / 2;
#X obj 322 450 f;
#X obj 356 450 f;
#X obj 322 472 / 3;
#X obj 356 472 / 4;
#X obj 470 444 t f;
#X msg 177 440 80;
#X obj 470 422 r \$2;
#X obj 289 343 r \$3;
#X connect 0 0 12 0;
#X connect 1 0 12 0;
#X connect 2 0 12 0;
#X connect 3 0 12 0;
#X connect 4 0 12 0;
#X connect 5 0 12 0;
#X connect 6 0 12 0;
#X connect 7 0 12 0;
#X connect 8 0 12 0;
#X connect 9 0 12 0;
#X connect 10 0 12 0;
#X connect 11 0 12 0;
#X connect 12 0 21 0;
#X connect 13 0 0 0;
#X connect 13 1 1 0;
#X connect 13 2 2 0;
#X connect 13 3 3 0;
#X connect 13 4 4 0;
#X connect 13 5 5 0;
#X connect 13 6 6 0;
#X connect 13 7 7 0;
#X connect 13 8 8 0;
#X connect 13 9 9 0;
#X connect 13 10 10 0;
#X connect 13 11 11 0;
#X connect 14 0 13 0;
#X connect 15 0 18 0;
#X connect 16 0 14 1;
#X connect 17 0 22 2;
#X connect 18 0 14 0;
#X connect 18 2 36 0;
#X connect 18 3 23 0;
#X connect 18 4 17 0;
#X connect 20 0 16 0;
#X connect 21 0 22 0;
#X connect 21 1 22 1;
#X connect 22 0 19 0;
#X connect 23 0 25 0;
#X connect 24 0 23 1;
#X connect 25 0 27 0;
#X connect 25 1 29 0;
#X connect 25 2 31 0;
#X connect 25 3 32 0;
#X connect 26 0 27 1;
#X connect 26 0 29 1;
#X connect 26 0 31 1;
#X connect 26 0 32 1;
#X connect 27 0 28 0;
#X connect 28 0 21 2;
#X connect 29 0 30 0;
#X connect 30 0 21 2;
#X connect 31 0 33 0;
#X connect 32 0 34 0;
#X connect 33 0 21 2;
#X connect 34 0 21 2;
#X connect 35 0 17 1;
#X connect 36 0 21 1;
#X connect 37 0 35 0;
#X connect 38 0 24 0;
