#N canvas 9 54 1349 681 10;
#X obj -975 91 soundfiler;
#N canvas 0 22 450 300 (subpatch) 0;
#X array \$0-array1 352800 float 2;
#X coords 0 1 352800 -1 200 140 1;
#X restore -13 450 graph;
#X obj -345 -68 loadbang;
#X obj -390 342 phasor~;
#X obj -859 183 *;
#X obj -894 199 *;
#X obj -894 236 -;
#X obj -862 213 t b f;
#X obj -390 189 pack f f;
#X msg -390 214 \$2 \$1;
#X obj -390 238 /;
#X obj -391 420 *~;
#X obj -391 457 +~;
#X obj -390 307 *;
#X obj -373 277 t b f;
#X text -846 240 loop lenght in samples;
#X text -410 253 frequency = sample rate / loop length;
#X text -362 421 scale phasor to loop length;
#X text -362 454 offset by loopstart;
#X text -210 595 .mmb;
#X msg -345 -4 44100;
#X msg -411 -4 0;
#X msg -447 -3 1;
#X obj -782 -50 inlet loopstart;
#X obj -975 27 inlet filepath;
#X obj -764 -25 inlet loopend;
#X obj -742 1 inlet speed;
#X msg -373 -4 1;
#X obj -392 383 *~;
#X obj -701 26 inlet toggle;
#X obj -975 48 pack s \$0;
#X msg -975 70 read -resize \$1 \$2-array1;
#X obj -564 562 outlet;
#X obj -564 541 bng 15 250 50 0 empty empty empty 17 7 0 10 -262144
-1 -1;
#X obj -564 417 tgl 15 0 empty empty empty 17 7 0 10 -262144 -1 -1
1 1;
#X obj -564 457 snapshot~ 100;
#X obj -564 498 i;
#X obj -564 519 sel 0;
#X obj -564 478 * 1000;
#X obj -564 435 metro 1;
#X connect 0 0 4 1;
#X connect 0 0 5 1;
#X connect 2 0 20 0;
#X connect 2 0 21 0;
#X connect 2 0 22 0;
#X connect 2 0 27 0;
#X connect 3 0 28 0;
#X connect 3 0 35 0;
#X connect 4 0 7 0;
#X connect 5 0 6 0;
#X connect 6 0 8 0;
#X connect 6 0 11 1;
#X connect 7 0 6 0;
#X connect 7 1 6 1;
#X connect 7 1 12 1;
#X connect 8 0 9 0;
#X connect 9 0 10 0;
#X connect 10 0 13 0;
#X connect 11 0 12 0;
#X connect 13 0 3 0;
#X connect 14 0 13 0;
#X connect 14 1 13 1;
#X connect 20 0 8 1;
#X connect 21 0 4 0;
#X connect 22 0 5 0;
#X connect 23 0 4 0;
#X connect 24 0 30 0;
#X connect 25 0 5 0;
#X connect 26 0 14 0;
#X connect 27 0 14 0;
#X connect 27 0 34 0;
#X connect 28 0 11 0;
#X connect 29 0 28 1;
#X connect 30 0 31 0;
#X connect 31 0 0 0;
#X connect 33 0 32 0;
#X connect 34 0 39 0;
#X connect 35 0 38 0;
#X connect 36 0 37 0;
#X connect 37 0 33 0;
#X connect 38 0 36 0;
#X connect 39 0 35 0;
